SplineFontDB: 3.0
FontName: Keypunch029-BoldItalic
FullName: Keypunch029 Bold Italic
FamilyName: Keypunch029
Weight: Bold
Copyright: Copyright (c) 2017, Stewart C. Russell, Toronto, Canada, scruss@scruss.com
UComments: "2017-3-21: Created with FontForge (http://fontforge.org)+AAoACgAA-Generated from a bitmap of the code plate (character generator) of an IBM 029 keypunch+AAoA"
FontLog: "2017-03-21: scruss+AAoA - initial release"
Version: 001.000
ItalicAngle: -9.46232
UnderlinePosition: -100
UnderlineWidth: 50
Ascent: 800
Descent: 200
InvalidEm: 0
LayerCount: 2
Layer: 0 0 "Back" 1
Layer: 1 0 "Fore" 0
XUID: [1021 283 -237619002 11336279]
StyleMap: 0x0021
FSType: 0
OS2Version: 0
OS2_WeightWidthSlopeOnly: 0
OS2_UseTypoMetrics: 1
CreationTime: 1490117757
ModificationTime: 1490118960
PfmFamily: 49
TTFWeight: 700
TTFWidth: 5
LineGap: 90
VLineGap: 0
OS2TypoAscent: 0
OS2TypoAOffset: 1
OS2TypoDescent: 0
OS2TypoDOffset: 1
OS2TypoLinegap: 90
OS2WinAscent: 0
OS2WinAOffset: 1
OS2WinDescent: 0
OS2WinDOffset: 1
HheadAscent: 0
HheadAOffset: 1
HheadDescent: 0
HheadDOffset: 1
OS2Vendor: 'PfEd'
MarkAttachClasses: 1
DEI: 91125

StartChar: sterling
Encoding: 163 163 0
Width: 522
VWidth: 0
UnlinkRmOvrlpSave: 1
Flags: W
HStem: 200 86<52.6424 110.718 111.282 153.717 154.282 196.717 197.282 239.717 240.282 281.718 282.283 324.718 325.283 367.718 368.283 410.718 411.282 453.717 454.282 512.358> 286 85<152.642 210.718 211.282 269.358> 371 86<166.642 224.718 225.283 284.358> 457 86<95.39 153.717 154.282 196.717 197.282 239.717 240.282 281.718 282.283 324.718 325.283 384.358> 543 86<195.39 253.717 254.282 312.358> 629 85<209.642 267.718 268.283 327.358> 714 86<309.642 367.718 368.283 410.718 411.282 453.717 454.282 496.717 497.282 539.717 540.282 598.358>
VStem: 147 128<291.642 365.61> 161 129<377.167 450.833> 190 128<549.167 622.833> 204 129<634.39 708.358>
LayerCount: 2
Back
Fore
SplineSet
518 243 m 0x80
 518 219 499 200 475 200 c 0
 467 200 460 202 454 206 c 1
 448 202 440 200 432 200 c 0
 424 200 417 202 411 206 c 1
 405 202 398 200 390 200 c 0
 382 200 374 202 368 206 c 1
 362 202 355 200 347 200 c 0
 339 200 331 202 325 206 c 1
 319 202 312 200 304 200 c 0
 296 200 288 202 282 206 c 1
 276 202 269 200 261 200 c 0
 253 200 246 202 240 206 c 1
 234 202 226 200 218 200 c 0
 210 200 203 202 197 206 c 1
 191 202 183 200 175 200 c 0
 167 200 160 202 154 206 c 1
 148 202 140 200 132 200 c 0
 124 200 117 202 111 206 c 1
 105 202 98 200 90 200 c 0
 66 200 47 219 47 243 c 0
 47 267 66 286 90 286 c 0
 98 286 105 284 111 280 c 1
 117 284 124 286 132 286 c 0
 140 286 148 284 154 280 c 1
 160 284 167 286 175 286 c 0
 183 286 191 284 197 280 c 1
 203 284 210 286 218 286 c 0
 226 286 234 284 240 280 c 1
 246 284 253 286 261 286 c 0
 269 286 276 284 282 280 c 1
 288 284 296 286 304 286 c 0
 312 286 319 284 325 280 c 1
 331 284 339 286 347 286 c 0
 355 286 362 284 368 280 c 1
 374 284 382 286 390 286 c 0
 398 286 405 284 411 280 c 1
 417 284 424 286 432 286 c 0
 440 286 448 284 454 280 c 1
 460 284 467 286 475 286 c 0
 499 286 518 267 518 243 c 0x80
275 329 m 0x41
 275 305 256 286 232 286 c 0
 224 286 217 287 211 291 c 1
 205 287 198 286 190 286 c 0x8040
 166 286 147 305 147 329 c 0x81
 147 353 166 371 190 371 c 0x4040
 198 371 205 370 211 366 c 1
 217 370 224 371 232 371 c 0
 256 371 275 353 275 329 c 0x41
290 414 m 0x2080
 290 390 271 371 247 371 c 0
 239 371 231 373 225 377 c 1
 219 373 212 371 204 371 c 0x4020
 180 371 161 390 161 414 c 0x4080
 161 438 180 457 204 457 c 0x2020
 212 457 219 455 225 451 c 1
 231 455 239 457 247 457 c 0
 271 457 290 438 290 414 c 0x2080
390 500 m 0
 390 476 371 457 347 457 c 0
 339 457 331 459 325 463 c 1
 319 459 312 457 304 457 c 0x10
 296 457 288 459 282 463 c 1
 276 459 269 457 261 457 c 0
 253 457 246 459 240 463 c 1
 234 459 226 457 218 457 c 0
 210 457 203 459 197 463 c 1
 191 459 183 457 175 457 c 0x20
 167 457 160 459 154 463 c 1
 148 459 140 457 132 457 c 0
 108 457 90 476 90 500 c 0
 90 524 108 543 132 543 c 0
 140 543 148 541 154 537 c 1
 160 541 167 543 175 543 c 0
 183 543 191 541 197 537 c 1
 203 541 210 543 218 543 c 0
 226 543 234 541 240 537 c 1
 246 541 253 543 261 543 c 0
 269 543 276 541 282 537 c 1
 288 541 296 543 304 543 c 0
 312 543 319 541 325 537 c 1
 331 541 339 543 347 543 c 0x10
 371 543 390 524 390 500 c 0
318 586 m 0x0840
 318 562 299 543 275 543 c 0x11
 267 543 260 545 254 549 c 1
 248 545 240 543 232 543 c 0
 208 543 190 562 190 586 c 0x1040
 190 610 208 629 232 629 c 0
 240 629 248 627 254 623 c 1
 260 627 267 629 275 629 c 0x09
 299 629 318 610 318 586 c 0x0840
333 671 m 0x0420
 333 647 314 629 290 629 c 0x0880
 282 629 274 630 268 634 c 1
 262 630 255 629 247 629 c 0
 223 629 204 647 204 671 c 0x0820
 204 695 223 714 247 714 c 0
 255 714 262 713 268 709 c 1
 274 713 282 714 290 714 c 0x0480
 314 714 333 695 333 671 c 0x0420
604 757 m 0
 604 733 585 714 561 714 c 0
 553 714 546 716 540 720 c 1
 534 716 526 714 518 714 c 0
 510 714 503 716 497 720 c 1
 491 716 483 714 475 714 c 0
 467 714 460 716 454 720 c 1
 448 716 440 714 432 714 c 0
 424 714 417 716 411 720 c 1
 405 716 398 714 390 714 c 0
 382 714 374 716 368 720 c 1
 362 716 355 714 347 714 c 0
 323 714 304 733 304 757 c 0
 304 781 323 800 347 800 c 0
 355 800 362 798 368 794 c 1
 374 798 382 800 390 800 c 0
 398 800 405 798 411 794 c 1
 417 798 424 800 432 800 c 0
 440 800 448 798 454 794 c 1
 460 798 467 800 475 800 c 0
 483 800 491 798 497 794 c 1
 503 798 510 800 518 800 c 0
 526 800 534 798 540 794 c 1
 546 798 553 800 561 800 c 0x02
 585 800 604 781 604 757 c 0
EndSplineSet
EndChar

StartChar: Euro
Encoding: 8364 8364 1
Width: 522
VWidth: 0
UnlinkRmOvrlpSave: 1
Flags: W
HStem: 200 86<195.642 253.718 254.283 296.718 297.283 339.718 340.283 382.718 383.282 425.717 426.282 484.358> 286 85<124.642 182.718 183.282 241.358> 371 86<52.6424 111.717 112.282 153.718 154.283 196.718 197.283 239.718 240.283 282.718 283.282 341.358> 457 86<152.642 211.717 212.282 270.358> 543 86<81.6424 139.718 140.283 182.718 183.282 225.717 226.282 268.717 269.282 311.717 312.282 370.358> 629 85<181.642 239.718 240.283 299.358> 714 86<281.642 339.718 340.283 382.718 383.282 425.717 426.282 468.717 469.282 511.717 512.282 570.358>
VStem: 119 128<291.642 365.61> 147 129<463.167 536.833> 176 129<634.39 708.358>
LayerCount: 2
Back
Fore
SplineSet
490 243 m 0x8080
 490 219 471 200 447 200 c 0
 439 200 432 202 426 206 c 1
 420 202 412 200 404 200 c 0
 396 200 389 202 383 206 c 1
 377 202 370 200 362 200 c 0
 354 200 346 202 340 206 c 1
 334 202 327 200 319 200 c 0
 311 200 303 202 297 206 c 1
 291 202 284 200 276 200 c 0
 268 200 260 202 254 206 c 1
 248 202 241 200 233 200 c 0
 209 200 190 219 190 243 c 0
 190 267 209 286 233 286 c 0
 241 286 248 284 254 280 c 1
 260 284 268 286 276 286 c 0
 284 286 291 284 297 280 c 1
 303 284 311 286 319 286 c 0
 327 286 334 284 340 280 c 1
 346 284 354 286 362 286 c 0
 370 286 377 284 383 280 c 1
 389 284 396 286 404 286 c 0
 412 286 420 284 426 280 c 1
 432 284 439 286 447 286 c 0
 471 286 490 267 490 243 c 0x8080
247 329 m 0x41
 247 305 228 286 204 286 c 0x81
 196 286 189 287 183 291 c 1
 177 287 170 286 162 286 c 0
 138 286 119 305 119 329 c 0
 119 353 138 371 162 371 c 0
 170 371 177 370 183 366 c 1
 189 370 196 371 204 371 c 0
 228 371 247 353 247 329 c 0x41
347 414 m 0
 347 390 328 371 304 371 c 0
 296 371 289 373 283 377 c 1
 277 373 270 371 262 371 c 0x2040
 254 371 246 373 240 377 c 1
 234 373 227 371 219 371 c 0
 211 371 203 373 197 377 c 1
 191 373 184 371 176 371 c 0
 168 371 160 373 154 377 c 1
 148 373 141 371 133 371 c 0x4040
 125 371 118 373 112 377 c 1
 106 373 98 371 90 371 c 0
 66 371 47 390 47 414 c 0
 47 438 66 457 90 457 c 0
 98 457 106 455 112 451 c 1
 118 455 125 457 133 457 c 0
 141 457 148 455 154 451 c 1
 160 455 168 457 176 457 c 0
 184 457 191 455 197 451 c 1
 203 455 211 457 219 457 c 0
 227 457 234 455 240 451 c 1
 246 455 254 457 262 457 c 0
 270 457 277 455 283 451 c 1
 289 455 296 457 304 457 c 0x2040
 328 457 347 438 347 414 c 0
276 500 m 0x1080
 276 476 257 457 233 457 c 0
 225 457 218 459 212 463 c 1
 206 459 198 457 190 457 c 0x2080
 166 457 147 476 147 500 c 0
 147 524 166 543 190 543 c 0
 198 543 206 541 212 537 c 1
 218 541 225 543 233 543 c 0
 257 543 276 524 276 500 c 0x1080
376 586 m 0
 376 562 357 543 333 543 c 0
 325 543 318 545 312 549 c 1
 306 545 298 543 290 543 c 0x09
 282 543 275 545 269 549 c 1
 263 545 255 543 247 543 c 0
 239 543 232 545 226 549 c 1
 220 545 212 543 204 543 c 0
 196 543 189 545 183 549 c 1
 177 545 170 543 162 543 c 0x11
 154 543 146 545 140 549 c 1
 134 545 127 543 119 543 c 0
 95 543 76 562 76 586 c 0
 76 610 95 629 119 629 c 0
 127 629 134 627 140 623 c 1
 146 627 154 629 162 629 c 0
 170 629 177 627 183 623 c 1
 189 627 196 629 204 629 c 0
 212 629 220 627 226 623 c 1
 232 627 239 629 247 629 c 0
 255 629 263 627 269 623 c 1
 275 627 282 629 290 629 c 0
 298 629 306 627 312 623 c 1
 318 627 325 629 333 629 c 0x09
 357 629 376 610 376 586 c 0
305 671 m 0x0440
 305 647 286 629 262 629 c 0
 254 629 246 630 240 634 c 1
 234 630 227 629 219 629 c 0x0840
 195 629 176 647 176 671 c 0
 176 695 195 714 219 714 c 0
 227 714 234 713 240 709 c 1
 246 713 254 714 262 714 c 0
 286 714 305 695 305 671 c 0x0440
576 757 m 0
 576 733 557 714 533 714 c 0
 525 714 518 716 512 720 c 1
 506 716 498 714 490 714 c 0
 482 714 475 716 469 720 c 1
 463 716 455 714 447 714 c 0
 439 714 432 716 426 720 c 1
 420 716 412 714 404 714 c 0
 396 714 389 716 383 720 c 1
 377 716 370 714 362 714 c 0
 354 714 346 716 340 720 c 1
 334 716 327 714 319 714 c 0
 295 714 276 733 276 757 c 0
 276 781 295 800 319 800 c 0
 327 800 334 798 340 794 c 1
 346 798 354 800 362 800 c 0
 370 800 377 798 383 794 c 1
 389 798 396 800 404 800 c 0
 412 800 420 798 426 794 c 1
 432 798 439 800 447 800 c 0
 455 800 463 798 469 794 c 1
 475 798 482 800 490 800 c 0
 498 800 506 798 512 794 c 1
 518 798 525 800 533 800 c 0x0280
 557 800 576 781 576 757 c 0
EndSplineSet
EndChar

StartChar: logicalnot
Encoding: 172 172 2
Width: 522
VWidth: 0
UnlinkRmOvrlpSave: 1
Flags: W
HStem: 200 86<367.39 425.717 426.282 484.358> 286 85<381.642 439.718 440.283 499.358> 371 86<52.6424 111.717 112.282 153.718 154.283 196.718 197.283 239.718 240.283 282.718 283.282 325.717 326.282 368.717 369.282 411.717 412.282 453.718 454.283 513.358>
VStem: 362 128<206.167 279.833> 376 129<291.642 365.61>
LayerCount: 2
Back
Fore
SplineSet
490 243 m 0x90
 490 219 471 200 447 200 c 0
 439 200 432 202 426 206 c 1
 420 202 412 200 404 200 c 0
 380 200 362 219 362 243 c 0
 362 267 380 286 404 286 c 0
 412 286 420 284 426 280 c 1
 432 284 439 286 447 286 c 0
 471 286 490 267 490 243 c 0x90
505 329 m 0x48
 505 305 486 286 462 286 c 0
 454 286 446 287 440 291 c 1
 434 287 427 286 419 286 c 0x88
 395 286 376 305 376 329 c 0
 376 353 395 371 419 371 c 0
 427 371 434 370 440 366 c 1
 446 370 454 371 462 371 c 0
 486 371 505 353 505 329 c 0x48
519 414 m 0
 519 390 500 371 476 371 c 0
 468 371 460 373 454 377 c 1
 448 373 441 371 433 371 c 0
 425 371 418 373 412 377 c 1
 406 373 398 371 390 371 c 0x40
 382 371 375 373 369 377 c 1
 363 373 355 371 347 371 c 0
 339 371 332 373 326 377 c 1
 320 373 312 371 304 371 c 0
 296 371 289 373 283 377 c 1
 277 373 270 371 262 371 c 0
 254 371 246 373 240 377 c 1
 234 373 227 371 219 371 c 0
 211 371 203 373 197 377 c 1
 191 373 184 371 176 371 c 0
 168 371 160 373 154 377 c 1
 148 373 141 371 133 371 c 0
 125 371 118 373 112 377 c 1
 106 373 98 371 90 371 c 0
 66 371 47 390 47 414 c 0
 47 438 66 457 90 457 c 0
 98 457 106 455 112 451 c 1
 118 455 125 457 133 457 c 0
 141 457 148 455 154 451 c 1
 160 455 168 457 176 457 c 0
 184 457 191 455 197 451 c 1
 203 455 211 457 219 457 c 0
 227 457 234 455 240 451 c 1
 246 455 254 457 262 457 c 0
 270 457 277 455 283 451 c 1
 289 455 296 457 304 457 c 0
 312 457 320 455 326 451 c 1
 332 455 339 457 347 457 c 0
 355 457 363 455 369 451 c 1
 375 455 382 457 390 457 c 0
 398 457 406 455 412 451 c 1
 418 455 425 457 433 457 c 0
 441 457 448 455 454 451 c 1
 460 455 468 457 476 457 c 0x20
 500 457 519 438 519 414 c 0
EndSplineSet
EndChar

StartChar: sqlozenge
Encoding: 8977 8977 3
Width: 522
VWidth: 0
UnlinkRmOvrlpSave: 1
Flags: W
HStem: 200 86<52.6424 110.718 111.282 169.358 395.39 453.717 454.282 512.358> 286 85<152.642 210.718 211.282 253.717 254.282 296.717 297.282 339.717 340.282 381.718 382.283 441.358> 371 86<166.642 224.718 225.283 284.358 337.642 396.717 397.282 455.358> 457 86<180.642 239.717 240.282 298.358 352.642 410.718 411.282 469.358> 543 86<195.39 253.717 254.282 312.358 366.642 424.718 425.283 484.358> 629 85<209.642 267.718 268.283 310.718 311.282 353.717 354.282 396.717 397.282 439.717 440.282 498.358> 714 86<137.642 196.717 197.282 255.358 480.642 539.717 540.282 598.358>
VStem: 47 128<206.167 279.833> 132 129<720.167 793.833> 161 129<377.167 450.833> 175 129<463.167 536.833> 190 128<549.167 622.833> 332 129<377.167 450.833> 347 128<463.167 536.833> 361 129<549.167 622.833> 390 128<206.167 279.833> 475 129<720.167 793.833>
LayerCount: 2
Back
Fore
SplineSet
518 243 m 0x8001
 518 219 499 200 475 200 c 0x800080
 467 200 460 202 454 206 c 1
 448 202 440 200 432 200 c 0
 408 200 390 219 390 243 c 0x8001
 390 267 408 286 432 286 c 0
 440 286 448 284 454 280 c 1
 460 284 467 286 475 286 c 0x800080
 499 286 518 267 518 243 c 0x8001
175 243 m 0x81
 175 219 156 200 132 200 c 0x8080
 124 200 117 202 111 206 c 1
 105 202 98 200 90 200 c 0
 66 200 47 219 47 243 c 0x81
 47 267 66 286 90 286 c 0
 98 286 105 284 111 280 c 1
 117 284 124 286 132 286 c 0x8080
 156 286 175 267 175 243 c 0x81
447 329 m 0
 447 305 428 286 404 286 c 0x8012
 396 286 388 287 382 291 c 1
 376 287 369 286 361 286 c 0
 353 286 346 287 340 291 c 1
 334 287 326 286 318 286 c 0
 310 286 303 287 297 291 c 1
 291 287 283 286 275 286 c 0
 267 286 260 287 254 291 c 1
 248 287 240 286 232 286 c 0
 224 286 217 287 211 291 c 1
 205 287 198 286 190 286 c 0
 166 286 147 305 147 329 c 0
 147 353 166 371 190 371 c 0
 198 371 205 370 211 366 c 1
 217 370 224 371 232 371 c 0
 240 371 248 370 254 366 c 1
 260 370 267 371 275 371 c 0
 283 371 291 370 297 366 c 1
 303 370 310 371 318 371 c 0
 326 371 334 370 340 366 c 1
 346 370 353 371 361 371 c 0
 369 371 376 370 382 366 c 1
 388 370 396 371 404 371 c 0x4012
 428 371 447 353 447 329 c 0
461 414 m 0x2008
 461 390 442 371 418 371 c 0
 410 371 403 373 397 377 c 1
 391 373 383 371 375 371 c 0x4008
 351 371 332 390 332 414 c 0
 332 438 351 457 375 457 c 0
 383 457 391 455 397 451 c 1
 403 455 410 457 418 457 c 0
 442 457 461 438 461 414 c 0x2008
290 414 m 0x2040
 290 390 271 371 247 371 c 0
 239 371 231 373 225 377 c 1
 219 373 212 371 204 371 c 0x4040
 180 371 161 390 161 414 c 0
 161 438 180 457 204 457 c 0
 212 457 219 455 225 451 c 1
 231 455 239 457 247 457 c 0
 271 457 290 438 290 414 c 0x2040
475 500 m 0x1004
 475 476 456 457 432 457 c 0
 424 457 417 459 411 463 c 1
 405 459 398 457 390 457 c 0x2001
 366 457 347 476 347 500 c 0x2004
 347 524 366 543 390 543 c 0x1001
 398 543 405 541 411 537 c 1
 417 541 424 543 432 543 c 0
 456 543 475 524 475 500 c 0x1004
304 500 m 0x1020
 304 476 285 457 261 457 c 0x2080
 253 457 246 459 240 463 c 1
 234 459 226 457 218 457 c 0
 194 457 175 476 175 500 c 0x2020
 175 524 194 543 218 543 c 0
 226 543 234 541 240 537 c 1
 246 541 253 543 261 543 c 0x1080
 285 543 304 524 304 500 c 0x1020
490 586 m 0x0802
 490 562 471 543 447 543 c 0
 439 543 431 545 425 549 c 1
 419 545 412 543 404 543 c 0x1002
 380 543 361 562 361 586 c 0
 361 610 380 629 404 629 c 0
 412 629 419 627 425 623 c 1
 431 627 439 629 447 629 c 0
 471 629 490 610 490 586 c 0x0802
318 586 m 0x0810
 318 562 299 543 275 543 c 0
 267 543 260 545 254 549 c 1
 248 545 240 543 232 543 c 0x1010
 208 543 190 562 190 586 c 0
 190 610 208 629 232 629 c 0
 240 629 248 627 254 623 c 1
 260 627 267 629 275 629 c 0
 299 629 318 610 318 586 c 0x0810
504 671 m 0
 504 647 485 629 461 629 c 0
 453 629 446 630 440 634 c 1
 434 630 426 629 418 629 c 0
 410 629 403 630 397 634 c 1
 391 630 383 629 375 629 c 0x0848
 367 629 360 630 354 634 c 1
 348 630 340 629 332 629 c 0x0448
 324 629 317 630 311 634 c 1
 305 630 298 629 290 629 c 0
 282 629 274 630 268 634 c 1
 262 630 255 629 247 629 c 0x0848
 223 629 204 647 204 671 c 0
 204 695 223 714 247 714 c 0
 255 714 262 713 268 709 c 1
 274 713 282 714 290 714 c 0
 298 714 305 713 311 709 c 1
 317 713 324 714 332 714 c 0
 340 714 348 713 354 709 c 1
 360 713 367 714 375 714 c 0
 383 714 391 713 397 709 c 1
 403 713 410 714 418 714 c 0
 426 714 434 713 440 709 c 1
 446 713 453 714 461 714 c 0x0448
 485 714 504 695 504 671 c 0
604 757 m 0x020080
 604 733 585 714 561 714 c 0
 553 714 546 716 540 720 c 1
 534 716 526 714 518 714 c 0x0201
 494 714 475 733 475 757 c 0x020080
 475 781 494 800 518 800 c 0x0201
 526 800 534 798 540 794 c 1
 546 798 553 800 561 800 c 0
 585 800 604 781 604 757 c 0x020080
261 757 m 0x0280
 261 733 242 714 218 714 c 0x0480
 210 714 203 716 197 720 c 1
 191 716 183 714 175 714 c 0x0220
 151 714 132 733 132 757 c 0x0280
 132 781 151 800 175 800 c 0x0220
 183 800 191 798 197 794 c 1
 203 798 210 800 218 800 c 0
 242 800 261 781 261 757 c 0x0280
EndSplineSet
EndChar

StartChar: exclam
Encoding: 33 33 4
Width: 522
VWidth: 0
UnlinkRmOvrlpSave: 1
Flags: W
HStem: 200 86<52.6424 110.718 111.283 170.358> 371 86<80.6424 139.717 140.282 198.358> 457 86<95.6424 153.718 154.282 212.358> 543 86<109.642 167.718 168.283 227.358> 629 85<123.642 182.717 183.282 241.358> 714 86<138.39 196.717 197.282 255.358>
VStem: 47 129<206.167 279.833> 75 129<377.167 450.833> 90 128<463.167 536.833> 104 129<549.167 622.833> 118 129<634.39 708.358> 133 128<720.167 793.833>
LayerCount: 2
Back
Fore
SplineSet
176 243 m 0x82
 176 219 157 200 133 200 c 0x8010
 125 200 117 202 111 206 c 1
 105 202 98 200 90 200 c 0x8080
 66 200 47 219 47 243 c 0x82
 47 267 66 286 90 286 c 0x8080
 98 286 105 284 111 280 c 1
 117 284 125 286 133 286 c 0x8010
 157 286 176 267 176 243 c 0x82
204 414 m 0xc1
 204 390 185 371 161 371 c 0
 153 371 146 373 140 377 c 1
 134 373 126 371 118 371 c 0xc020
 94 371 75 390 75 414 c 0xc1
 75 438 94 457 118 457 c 0xc020
 126 457 134 455 140 451 c 1
 146 455 153 457 161 457 c 0
 185 457 204 438 204 414 c 0xc1
218 500 m 0xa080
 218 476 199 457 175 457 c 0
 167 457 160 459 154 463 c 1
 148 459 141 457 133 457 c 0xc010
 109 457 90 476 90 500 c 0xc080
 90 524 109 543 133 543 c 0xa010
 141 543 148 541 154 537 c 1
 160 541 167 543 175 543 c 0
 199 543 218 524 218 500 c 0xa080
233 586 m 0x9040
 233 562 214 543 190 543 c 0
 182 543 174 545 168 549 c 1
 162 545 155 543 147 543 c 0xa040
 123 543 104 562 104 586 c 0
 104 610 123 629 147 629 c 0
 155 629 162 627 168 623 c 1
 174 627 182 629 190 629 c 0
 214 629 233 610 233 586 c 0x9040
247 671 m 0x8820
 247 647 228 629 204 629 c 0x91
 196 629 189 630 183 634 c 1
 177 630 169 629 161 629 c 0
 137 629 118 647 118 671 c 0x9020
 118 695 137 714 161 714 c 0
 169 714 177 713 183 709 c 1
 189 713 196 714 204 714 c 0x89
 228 714 247 695 247 671 c 0x8820
261 757 m 0x8410
 261 733 242 714 218 714 c 0x8880
 210 714 203 716 197 720 c 1
 191 716 183 714 175 714 c 0
 151 714 133 733 133 757 c 0x8810
 133 781 151 800 175 800 c 0
 183 800 191 798 197 794 c 1
 203 798 210 800 218 800 c 0x8480
 242 800 261 781 261 757 c 0x8410
EndSplineSet
EndChar

StartChar: numbersign
Encoding: 35 35 6
Width: 522
VWidth: 0
UnlinkRmOvrlpSave: 1
Flags: W
HStem: 200 86<109.642 168.717 169.282 227.358 281.642 339.718 340.283 399.358> 286 85<124.642 182.718 183.282 241.358 295.642 353.718 354.283 413.358> 371 86<52.6424 111.717 112.282 153.718 154.283 196.718 197.283 256.358 309.642 368.717 369.282 411.717 412.282 453.718 454.283 513.358> 543 86<81.6424 139.718 140.283 182.718 183.282 225.717 226.282 284.358 338.642 396.718 397.283 439.718 440.283 482.718 483.282 541.358> 629 85<181.642 239.718 240.283 299.358 352.642 411.717 412.282 470.358> 714 86<195.642 253.718 254.283 313.358 367.39 425.717 426.282 484.358>
VStem: 47 215<377.167 450.833> 76 214<549.167 622.833> 104 129<206.167 279.833> 119 128<291.642 365.61> 176 129<634.39 708.358> 190 129<720.167 793.833> 276 129<206.167 279.833> 290 129<291.642 365.61> 304 215<377.167 450.833> 333 214<549.167 622.833> 347 129<634.39 708.358> 362 128<720.167 793.833>
LayerCount: 2
Back
Fore
SplineSet
405 243 m 0x8008
 405 219 386 200 362 200 c 0
 354 200 346 202 340 206 c 1
 334 202 327 200 319 200 c 0x801040
 295 200 276 219 276 243 c 0x8008
 276 267 295 286 319 286 c 0
 327 286 334 284 340 280 c 1
 346 284 354 286 362 286 c 0x801040
 386 286 405 267 405 243 c 0x8008
233 243 m 0x8080
 233 219 214 200 190 200 c 0x8010
 182 200 175 202 169 206 c 1
 163 202 155 200 147 200 c 0
 123 200 104 219 104 243 c 0x8080
 104 267 123 286 147 286 c 0
 155 286 163 284 169 280 c 1
 175 284 182 286 190 286 c 0x8010
 214 286 233 267 233 243 c 0x8080
419 329 m 0x4004
 419 305 400 286 376 286 c 0
 368 286 360 287 354 291 c 1
 348 287 341 286 333 286 c 0x8001
 309 286 290 305 290 329 c 0x8004
 290 353 309 371 333 371 c 0x4001
 341 371 348 370 354 366 c 1
 360 370 368 371 376 371 c 0
 400 371 419 353 419 329 c 0x4004
247 329 m 0x4040
 247 305 228 286 204 286 c 0
 196 286 189 287 183 291 c 1
 177 287 170 286 162 286 c 0x8040
 138 286 119 305 119 329 c 0
 119 353 138 371 162 371 c 0
 170 371 177 370 183 366 c 1
 189 370 196 371 204 371 c 0
 228 371 247 353 247 329 c 0x4040
519 414 m 0x2002
 519 390 500 371 476 371 c 0
 468 371 460 373 454 377 c 1
 448 373 441 371 433 371 c 0x200080
 425 371 418 373 412 377 c 1
 406 373 398 371 390 371 c 0
 382 371 375 373 369 377 c 1
 363 373 355 371 347 371 c 0x400080
 323 371 304 390 304 414 c 0x4002
 304 438 323 457 347 457 c 0
 355 457 363 455 369 451 c 1
 375 455 382 457 390 457 c 0
 398 457 406 455 412 451 c 1
 418 455 425 457 433 457 c 0
 441 457 448 455 454 451 c 1
 460 455 468 457 476 457 c 0x200080
 500 457 519 438 519 414 c 0x2002
262 414 m 0x22
 262 390 243 371 219 371 c 0
 211 371 203 373 197 377 c 1
 191 373 184 371 176 371 c 0
 168 371 160 373 154 377 c 1
 148 373 141 371 133 371 c 0x4020
 125 371 118 373 112 377 c 1
 106 373 98 371 90 371 c 0
 66 371 47 390 47 414 c 0x22
 47 438 66 457 90 457 c 0
 98 457 106 455 112 451 c 1
 118 455 125 457 133 457 c 0
 141 457 148 455 154 451 c 1
 160 455 168 457 176 457 c 0x2020
 184 457 191 455 197 451 c 1
 203 455 211 457 219 457 c 0
 243 457 262 438 262 414 c 0x22
547 586 m 0x1001
 547 562 528 543 504 543 c 0
 496 543 489 545 483 549 c 1
 477 545 470 543 462 543 c 0
 454 543 446 545 440 549 c 1
 434 545 427 543 419 543 c 0x1004
 411 543 403 545 397 549 c 1
 391 545 384 543 376 543 c 0
 352 543 333 562 333 586 c 0x1001
 333 610 352 629 376 629 c 0
 384 629 391 627 397 623 c 1
 403 627 411 629 419 629 c 0x1004
 427 629 434 627 440 623 c 1
 446 627 454 629 462 629 c 0
 470 629 477 627 483 623 c 1
 489 627 496 629 504 629 c 0
 528 629 547 610 547 586 c 0x1001
290 586 m 0x11
 290 562 271 543 247 543 c 0
 239 543 232 545 226 549 c 1
 220 545 212 543 204 543 c 0
 196 543 189 545 183 549 c 1
 177 545 170 543 162 543 c 0
 154 543 146 545 140 549 c 1
 134 545 127 543 119 543 c 0x1040
 95 543 76 562 76 586 c 0x11
 76 610 95 629 119 629 c 0
 127 629 134 627 140 623 c 1
 146 627 154 629 162 629 c 0
 170 629 177 627 183 623 c 1
 189 627 196 629 204 629 c 0
 212 629 220 627 226 623 c 1
 232 627 239 629 247 629 c 0x1040
 271 629 290 610 290 586 c 0x11
476 671 m 0x080080
 476 647 457 629 433 629 c 0
 425 629 418 630 412 634 c 1
 406 630 398 629 390 629 c 0x100080
 366 629 347 647 347 671 c 0
 347 695 366 714 390 714 c 0
 398 714 406 713 412 709 c 1
 418 713 425 714 433 714 c 0
 457 714 476 695 476 671 c 0x080080
305 671 m 0x0820
 305 647 286 629 262 629 c 0x12
 254 629 246 630 240 634 c 1
 234 630 227 629 219 629 c 0
 195 629 176 647 176 671 c 0x1020
 176 695 195 714 219 714 c 0
 227 714 234 713 240 709 c 1
 246 713 254 714 262 714 c 0x0a
 286 714 305 695 305 671 c 0x0820
490 757 m 0x040040
 490 733 471 714 447 714 c 0
 439 714 432 716 426 720 c 1
 420 716 412 714 404 714 c 0x080040
 380 714 362 733 362 757 c 0
 362 781 380 800 404 800 c 0
 412 800 420 798 426 794 c 1
 432 798 439 800 447 800 c 0
 471 800 490 781 490 757 c 0x040040
319 757 m 0x0410
 319 733 300 714 276 714 c 0
 268 714 260 716 254 720 c 1
 248 716 241 714 233 714 c 0x0888
 209 714 190 733 190 757 c 0x0810
 190 781 209 800 233 800 c 0
 241 800 248 798 254 794 c 1
 260 798 268 800 276 800 c 0x0488
 300 800 319 781 319 757 c 0x0410
EndSplineSet
EndChar

StartChar: quotedbl
Encoding: 34 34 7
Width: 522
VWidth: 0
UnlinkRmOvrlpSave: 1
Flags: W
HStem: 543 86<52.39 110.717 111.282 169.358 223.642 281.718 282.283 341.358> 629 85<66.6424 124.718 125.283 184.358 237.642 296.717 297.282 355.358> 714 86<80.6424 138.718 139.283 198.358 252.39 310.717 311.282 369.358>
VStem: 47 128<549.167 622.833> 61 129<634.39 708.358> 75 129<720.167 793.833> 218 129<549.167 622.833> 232 129<634.39 708.358> 247 128<720.167 793.833>
LayerCount: 2
Back
Fore
SplineSet
347 586 m 0x82
 347 562 328 543 304 543 c 0
 296 543 288 545 282 549 c 1
 276 545 269 543 261 543 c 0
 237 543 218 562 218 586 c 0
 218 610 237 629 261 629 c 0
 269 629 276 627 282 623 c 1
 288 627 296 629 304 629 c 0
 328 629 347 610 347 586 c 0x82
175 586 m 0x90
 175 562 156 543 132 543 c 0
 124 543 117 545 111 549 c 1
 105 545 97 543 89 543 c 0
 65 543 47 562 47 586 c 0
 47 610 65 629 89 629 c 0
 97 629 105 627 111 623 c 1
 117 627 124 629 132 629 c 0
 156 629 175 610 175 586 c 0x90
361 671 m 0x41
 361 647 342 629 318 629 c 0
 310 629 303 630 297 634 c 1
 291 630 283 629 275 629 c 0x81
 251 629 232 647 232 671 c 0
 232 695 251 714 275 714 c 0
 283 714 291 713 297 709 c 1
 303 713 310 714 318 714 c 0
 342 714 361 695 361 671 c 0x41
190 671 m 0x48
 190 647 171 629 147 629 c 0
 139 629 131 630 125 634 c 1
 119 630 112 629 104 629 c 0x88
 80 629 61 647 61 671 c 0
 61 695 80 714 104 714 c 0
 112 714 119 713 125 709 c 1
 131 713 139 714 147 714 c 0
 171 714 190 695 190 671 c 0x48
375 757 m 0x2080
 375 733 356 714 332 714 c 0
 324 714 317 716 311 720 c 1
 305 716 297 714 289 714 c 0x4080
 265 714 247 733 247 757 c 0
 247 781 265 800 289 800 c 0
 297 800 305 798 311 794 c 1
 317 798 324 800 332 800 c 0
 356 800 375 781 375 757 c 0x2080
204 757 m 0x24
 204 733 185 714 161 714 c 0
 153 714 145 716 139 720 c 1
 133 716 126 714 118 714 c 0x44
 94 714 75 733 75 757 c 0
 75 781 94 800 118 800 c 0
 126 800 133 798 139 794 c 1
 145 798 153 800 161 800 c 0
 185 800 204 781 204 757 c 0x24
EndSplineSet
EndChar

StartChar: percent
Encoding: 37 37 8
Width: 522
VWidth: 0
UnlinkRmOvrlpSave: 1
Flags: W
HStem: 200 86<52.6424 110.718 111.282 169.358 309.642 367.718 368.283 410.718 411.282 453.717 454.282 512.358> 286 85<66.6424 124.718 125.283 184.358 323.642 381.718 382.283 424.718 425.283 467.718 468.283 527.358> 371 86<166.642 224.718 225.283 284.358> 457 86<266.642 324.718 325.283 384.358> 543 86<366.642 424.718 425.283 484.358> 629 85<123.642 181.718 182.283 224.718 225.283 267.718 268.283 327.358 466.642 524.718 525.283 584.358> 714 86<137.642 196.717 197.282 239.717 240.282 281.718 282.283 341.358 480.642 539.717 540.282 598.358>
VStem: 47 128<206.167 279.833> 61 129<291.642 365.61> 118 215<634.39 708.358> 132 215<720.167 793.833> 161 129<377.167 450.833> 261 129<463.167 536.833> 304 214<206.167 279.833> 318 215<291.642 365.61> 361 129<549.167 622.833> 461 129<634.39 708.358> 475 129<720.167 793.833>
LayerCount: 2
Back
Fore
SplineSet
518 243 m 0x8004
 518 219 499 200 475 200 c 0
 467 200 460 202 454 206 c 1
 448 202 440 200 432 200 c 0
 424 200 417 202 411 206 c 1
 405 202 398 200 390 200 c 0x800840
 382 200 374 202 368 206 c 1
 362 202 355 200 347 200 c 0x8020
 323 200 304 219 304 243 c 0x8004
 304 267 323 286 347 286 c 0x8020
 355 286 362 284 368 280 c 1
 374 284 382 286 390 286 c 0
 398 286 405 284 411 280 c 1
 417 284 424 286 432 286 c 0
 440 286 448 284 454 280 c 1
 460 284 467 286 475 286 c 0x800840
 499 286 518 267 518 243 c 0x8004
175 243 m 0x81
 175 219 156 200 132 200 c 0x8020
 124 200 117 202 111 206 c 1
 105 202 98 200 90 200 c 0
 66 200 47 219 47 243 c 0x81
 47 267 66 286 90 286 c 0
 98 286 105 284 111 280 c 1
 117 284 124 286 132 286 c 0x8020
 156 286 175 267 175 243 c 0x81
533 329 m 0x4002
 533 305 514 286 490 286 c 0
 482 286 474 287 468 291 c 1
 462 287 455 286 447 286 c 0
 439 286 431 287 425 291 c 1
 419 287 412 286 404 286 c 0
 396 286 388 287 382 291 c 1
 376 287 369 286 361 286 c 0x8001
 337 286 318 305 318 329 c 0x8002
 318 353 337 371 361 371 c 0
 369 371 376 370 382 366 c 1
 388 370 396 371 404 371 c 0
 412 371 419 370 425 366 c 1
 431 370 439 371 447 371 c 0
 455 371 462 370 468 366 c 1
 474 370 482 371 490 371 c 0x4001
 514 371 533 353 533 329 c 0x4002
190 329 m 0x4080
 190 305 171 286 147 286 c 0
 139 286 131 287 125 291 c 1
 119 287 112 286 104 286 c 0x8080
 80 286 61 305 61 329 c 0
 61 353 80 371 104 371 c 0
 112 371 119 370 125 366 c 1
 131 370 139 371 147 371 c 0
 171 371 190 353 190 329 c 0x4080
290 414 m 0x2010
 290 390 271 371 247 371 c 0
 239 371 231 373 225 377 c 1
 219 373 212 371 204 371 c 0
 180 371 161 390 161 414 c 0
 161 438 180 457 204 457 c 0
 212 457 219 455 225 451 c 1
 231 455 239 457 247 457 c 0
 271 457 290 438 290 414 c 0x2010
390 500 m 0x1008
 390 476 371 457 347 457 c 0x1020
 339 457 331 459 325 463 c 1
 319 459 312 457 304 457 c 0x1004
 280 457 261 476 261 500 c 0x1008
 261 524 280 543 304 543 c 0x1004
 312 543 319 541 325 537 c 1
 331 541 339 543 347 543 c 0x1020
 371 543 390 524 390 500 c 0x1008
490 586 m 0x0801
 490 562 471 543 447 543 c 0
 439 543 431 545 425 549 c 1
 419 545 412 543 404 543 c 0
 380 543 361 562 361 586 c 0
 361 610 380 629 404 629 c 0
 412 629 419 627 425 623 c 1
 431 627 439 629 447 629 c 0
 471 629 490 610 490 586 c 0x0801
590 671 m 0x040080
 590 647 571 629 547 629 c 0
 539 629 531 630 525 634 c 1
 519 630 512 629 504 629 c 0
 480 629 461 647 461 671 c 0
 461 695 480 714 504 714 c 0
 512 714 519 713 525 709 c 1
 531 713 539 714 547 714 c 0
 571 714 590 695 590 671 c 0x040080
333 671 m 0x0440
 333 647 314 629 290 629 c 0
 282 629 274 630 268 634 c 1
 262 630 255 629 247 629 c 0
 239 629 231 630 225 634 c 1
 219 630 212 629 204 629 c 0
 196 629 188 630 182 634 c 1
 176 630 169 629 161 629 c 0x0410
 137 629 118 647 118 671 c 0x0440
 118 695 137 714 161 714 c 0
 169 714 176 713 182 709 c 1
 188 713 196 714 204 714 c 0
 212 714 219 713 225 709 c 1
 231 713 239 714 247 714 c 0
 255 714 262 713 268 709 c 1
 274 713 282 714 290 714 c 0x0410
 314 714 333 695 333 671 c 0x0440
604 757 m 0x020040
 604 733 585 714 561 714 c 0
 553 714 546 716 540 720 c 1
 534 716 526 714 518 714 c 0x0404
 494 714 475 733 475 757 c 0x040040
 475 781 494 800 518 800 c 0x0204
 526 800 534 798 540 794 c 1
 546 798 553 800 561 800 c 0
 585 800 604 781 604 757 c 0x020040
347 757 m 0x0220
 347 733 328 714 304 714 c 0x0404
 296 714 288 716 282 720 c 1
 276 716 269 714 261 714 c 0
 253 714 246 716 240 720 c 1
 234 716 226 714 218 714 c 0
 210 714 203 716 197 720 c 1
 191 716 183 714 175 714 c 0x0508
 151 714 132 733 132 757 c 0x0420
 132 781 151 800 175 800 c 0
 183 800 191 798 197 794 c 1
 203 798 210 800 218 800 c 0
 226 800 234 798 240 794 c 1
 246 798 253 800 261 800 c 0x0308
 269 800 276 798 282 794 c 1
 288 798 296 800 304 800 c 0x0204
 328 800 347 781 347 757 c 0x0220
EndSplineSet
EndChar

StartChar: dollar
Encoding: 36 36 9
Width: 522
VWidth: 0
UnlinkRmOvrlpSave: 1
Flags: W
HStem: 200 86<209.642 267.718 268.283 327.358> 286 85<52.6424 110.718 111.283 153.718 154.283 196.718 197.282 239.717 240.282 282.717 283.282 325.717 326.282 367.718 368.283 427.358> 371 86<409.642 467.718 468.283 527.358> 457 86<166.642 225.717 226.282 267.718 268.283 310.718 311.283 353.718 354.283 396.718 397.282 455.358> 543 86<95.6424 153.718 154.283 213.358> 629 85<195.642 253.718 254.283 296.718 297.282 339.717 340.282 382.717 383.282 425.717 426.282 467.718 468.283 510.718 511.283 570.358> 714 86<295.642 353.718 354.283 413.358>
VStem: 90 129<549.167 622.833> 204 129<206.167 279.833> 290 129<720.167 793.833> 404 129<377.167 450.833>
LayerCount: 2
Back
Fore
SplineSet
333 243 m 0x8080
 333 219 314 200 290 200 c 0x8040
 282 200 274 202 268 206 c 1
 262 202 255 200 247 200 c 0
 223 200 204 219 204 243 c 0x8080
 204 267 223 286 247 286 c 0
 255 286 262 284 268 280 c 1
 274 284 282 286 290 286 c 0x8040
 314 286 333 267 333 243 c 0x8080
433 329 m 0
 433 305 414 286 390 286 c 0
 382 286 374 287 368 291 c 1
 362 287 355 286 347 286 c 0x41
 339 286 332 287 326 291 c 1
 320 287 312 286 304 286 c 0
 296 286 289 287 283 291 c 1
 277 287 269 286 261 286 c 0
 253 286 246 287 240 291 c 1
 234 287 226 286 218 286 c 0x81
 210 286 203 287 197 291 c 1
 191 287 184 286 176 286 c 0
 168 286 160 287 154 291 c 1
 148 287 141 286 133 286 c 0
 125 286 117 287 111 291 c 1
 105 287 98 286 90 286 c 0
 66 286 47 305 47 329 c 0
 47 353 66 371 90 371 c 0
 98 371 105 370 111 366 c 1
 117 370 125 371 133 371 c 0
 141 371 148 370 154 366 c 1
 160 370 168 371 176 371 c 0
 184 371 191 370 197 366 c 1
 203 370 210 371 218 371 c 0
 226 371 234 370 240 366 c 1
 246 370 253 371 261 371 c 0
 269 371 277 370 283 366 c 1
 289 370 296 371 304 371 c 0
 312 371 320 370 326 366 c 1
 332 370 339 371 347 371 c 0
 355 371 362 370 368 366 c 1
 374 370 382 371 390 371 c 0x41
 414 371 433 353 433 329 c 0
533 414 m 0x2020
 533 390 514 371 490 371 c 0
 482 371 474 373 468 377 c 1
 462 373 455 371 447 371 c 0
 423 371 404 390 404 414 c 0
 404 438 423 457 447 457 c 0
 455 457 462 455 468 451 c 1
 474 455 482 457 490 457 c 0
 514 457 533 438 533 414 c 0x2020
461 500 m 0
 461 476 442 457 418 457 c 0x2080
 410 457 403 459 397 463 c 1
 391 459 384 457 376 457 c 0
 368 457 360 459 354 463 c 1
 348 459 341 457 333 457 c 0x1080
 325 457 317 459 311 463 c 1
 305 459 298 457 290 457 c 0x1040
 282 457 274 459 268 463 c 1
 262 459 255 457 247 457 c 0
 239 457 232 459 226 463 c 1
 220 459 212 457 204 457 c 0
 180 457 161 476 161 500 c 0
 161 524 180 543 204 543 c 0x1080
 212 543 220 541 226 537 c 1
 232 541 239 543 247 543 c 0
 255 543 262 541 268 537 c 1
 274 541 282 543 290 543 c 0x1040
 298 543 305 541 311 537 c 1
 317 541 325 543 333 543 c 0
 341 543 348 541 354 537 c 1
 360 541 368 543 376 543 c 0
 384 543 391 541 397 537 c 1
 403 541 410 543 418 543 c 0x1080
 442 543 461 524 461 500 c 0
219 586 m 0x09
 219 562 200 543 176 543 c 0x11
 168 543 160 545 154 549 c 1
 148 545 141 543 133 543 c 0
 109 543 90 562 90 586 c 0
 90 610 109 629 133 629 c 0
 141 629 148 627 154 623 c 1
 160 627 168 629 176 629 c 0
 200 629 219 610 219 586 c 0x09
576 671 m 0
 576 647 557 629 533 629 c 0
 525 629 517 630 511 634 c 1
 505 630 498 629 490 629 c 0
 482 629 474 630 468 634 c 1
 462 630 455 629 447 629 c 0
 439 629 432 630 426 634 c 1
 420 630 412 629 404 629 c 0
 396 629 389 630 383 634 c 1
 377 630 369 629 361 629 c 0
 353 629 346 630 340 634 c 1
 334 630 326 629 318 629 c 0
 310 629 303 630 297 634 c 1
 291 630 284 629 276 629 c 0
 268 629 260 630 254 634 c 1
 248 630 241 629 233 629 c 0
 209 629 190 647 190 671 c 0
 190 695 209 714 233 714 c 0
 241 714 248 713 254 709 c 1
 260 713 268 714 276 714 c 0
 284 714 291 713 297 709 c 1
 303 713 310 714 318 714 c 0
 326 714 334 713 340 709 c 1
 346 713 353 714 361 714 c 0
 369 714 377 713 383 709 c 1
 389 713 396 714 404 714 c 0
 412 714 420 713 426 709 c 1
 432 713 439 714 447 714 c 0
 455 714 462 713 468 709 c 1
 474 713 482 714 490 714 c 0
 498 714 505 713 511 709 c 1
 517 713 525 714 533 714 c 0x0420
 557 714 576 695 576 671 c 0
419 757 m 0x0240
 419 733 400 714 376 714 c 0
 368 714 360 716 354 720 c 1
 348 716 341 714 333 714 c 0x0480
 309 714 290 733 290 757 c 0x0440
 290 781 309 800 333 800 c 0x0280
 341 800 348 798 354 794 c 1
 360 798 368 800 376 800 c 0
 400 800 419 781 419 757 c 0x0240
EndSplineSet
EndChar

StartChar: quotesingle
Encoding: 39 39 10
Width: 522
VWidth: 0
UnlinkRmOvrlpSave: 1
Flags: W
HStem: 543 86<52.39 110.717 111.282 153.717 154.282 196.717 197.282 255.358> 629 85<66.6424 124.718 125.283 167.718 168.282 210.717 211.282 269.358> 714 86<80.6424 138.718 139.283 181.718 182.283 224.718 225.283 284.358>
VStem: 47 214<549.167 622.833> 61 214<634.39 708.358> 75 215<720.167 793.833>
LayerCount: 2
Back
Fore
SplineSet
261 586 m 0x90
 261 562 242 543 218 543 c 0
 210 543 203 545 197 549 c 1
 191 545 183 543 175 543 c 0
 167 543 160 545 154 549 c 1
 148 545 140 543 132 543 c 0
 124 543 117 545 111 549 c 1
 105 545 97 543 89 543 c 0
 65 543 47 562 47 586 c 0
 47 610 65 629 89 629 c 0
 97 629 105 627 111 623 c 1
 117 627 124 629 132 629 c 0
 140 629 148 627 154 623 c 1
 160 627 167 629 175 629 c 0
 183 629 191 627 197 623 c 1
 203 627 210 629 218 629 c 0
 242 629 261 610 261 586 c 0x90
275 671 m 0x48
 275 647 256 629 232 629 c 0
 224 629 217 630 211 634 c 1
 205 630 197 629 189 629 c 0
 181 629 174 630 168 634 c 1
 162 630 155 629 147 629 c 0
 139 629 131 630 125 634 c 1
 119 630 112 629 104 629 c 0x88
 80 629 61 647 61 671 c 0
 61 695 80 714 104 714 c 0
 112 714 119 713 125 709 c 1
 131 713 139 714 147 714 c 0
 155 714 162 713 168 709 c 1
 174 713 181 714 189 714 c 0
 197 714 205 713 211 709 c 1
 217 713 224 714 232 714 c 0
 256 714 275 695 275 671 c 0x48
290 757 m 0x24
 290 733 271 714 247 714 c 0
 239 714 231 716 225 720 c 1
 219 716 212 714 204 714 c 0
 196 714 188 716 182 720 c 1
 176 716 169 714 161 714 c 0
 153 714 145 716 139 720 c 1
 133 716 126 714 118 714 c 0x44
 94 714 75 733 75 757 c 0
 75 781 94 800 118 800 c 0
 126 800 133 798 139 794 c 1
 145 798 153 800 161 800 c 0
 169 800 176 798 182 794 c 1
 188 798 196 800 204 800 c 0
 212 800 219 798 225 794 c 1
 231 798 239 800 247 800 c 0
 271 800 290 781 290 757 c 0x24
EndSplineSet
EndChar

StartChar: ampersand
Encoding: 38 38 11
Width: 522
VWidth: 0
UnlinkRmOvrlpSave: 1
Flags: W
HStem: 200 86<123.642 182.717 183.282 225.717 226.282 267.718 268.283 327.358 381.39 439.717 440.282 498.358> 286 85<52.6424 110.718 111.283 170.358 309.642 367.718 368.283 427.358> 371 86<66.6424 125.717 126.282 184.358 238.642 296.718 297.282 355.358 409.642 467.718 468.283 527.358> 457 86<166.642 225.717 226.282 284.358> 543 86<95.6424 153.718 154.283 213.358 266.642 325.717 326.282 384.358> 629 85<109.642 167.718 168.283 227.358 281.39 339.717 340.282 398.358> 714 86<209.642 267.718 268.283 327.358>
VStem: 47 129<291.642 365.61> 61 129<377.167 450.833> 90 129<549.167 622.833> 104 129<634.39 708.358> 118 215<206.167 279.833> 161 129<463.167 536.833> 204 129<720.167 793.833> 233 128<377.167 450.833> 261 129<549.167 622.833> 276 128<634.39 708.358> 304 129<291.642 365.61> 376 128<206.167 279.833> 404 129<377.167 450.833>
LayerCount: 2
Back
Fore
SplineSet
504 243 m 0x800020
 504 219 485 200 461 200 c 0
 453 200 446 202 440 206 c 1
 434 202 426 200 418 200 c 0
 394 200 376 219 376 243 c 0
 376 267 394 286 418 286 c 0
 426 286 434 284 440 280 c 1
 446 284 453 286 461 286 c 0
 485 286 504 267 504 243 c 0x800020
333 243 m 0x8010
 333 219 314 200 290 200 c 0x8008
 282 200 274 202 268 206 c 1
 262 202 255 200 247 200 c 0
 239 200 232 202 226 206 c 1
 220 202 212 200 204 200 c 0x8004
 196 200 189 202 183 206 c 1
 177 202 169 200 161 200 c 0x8008
 137 200 118 219 118 243 c 0x8010
 118 267 137 286 161 286 c 0x8008
 169 286 177 284 183 280 c 1
 189 284 196 286 204 286 c 0x8004
 212 286 220 284 226 280 c 1
 232 284 239 286 247 286 c 0
 255 286 262 284 268 280 c 1
 274 284 282 286 290 286 c 0x8008
 314 286 333 267 333 243 c 0x8010
433 329 m 0x400040
 433 305 414 286 390 286 c 0x8001
 382 286 374 287 368 291 c 1
 362 287 355 286 347 286 c 0
 323 286 304 305 304 329 c 0x400040
 304 353 323 371 347 371 c 0
 355 371 362 370 368 366 c 1
 374 370 382 371 390 371 c 0x4001
 414 371 433 353 433 329 c 0x400040
176 329 m 0x41
 176 305 157 286 133 286 c 0x81
 125 286 117 287 111 291 c 1
 105 287 98 286 90 286 c 0x4040
 66 286 47 305 47 329 c 0x41
 47 353 66 371 90 371 c 0x4040
 98 371 105 370 111 366 c 1
 117 370 125 371 133 371 c 0
 157 371 176 353 176 329 c 0x41
533 414 m 0x200010
 533 390 514 371 490 371 c 0
 482 371 474 373 468 377 c 1
 462 373 455 371 447 371 c 0
 423 371 404 390 404 414 c 0
 404 438 423 457 447 457 c 0
 455 457 462 455 468 451 c 1
 474 455 482 457 490 457 c 0
 514 457 533 438 533 414 c 0x200010
361 414 m 0x2002
 361 390 342 371 318 371 c 0x4002
 310 371 303 373 297 377 c 1
 291 373 284 371 276 371 c 0x200080
 252 371 233 390 233 414 c 0x2002
 233 438 252 457 276 457 c 0x200080
 284 457 291 455 297 451 c 1
 303 455 310 457 318 457 c 0
 342 457 361 438 361 414 c 0x2002
190 414 m 0x2080
 190 390 171 371 147 371 c 0
 139 371 132 373 126 377 c 1
 120 373 112 371 104 371 c 0x4020
 80 371 61 390 61 414 c 0x4080
 61 438 80 457 104 457 c 0x2020
 112 457 120 455 126 451 c 1
 132 455 139 457 147 457 c 0
 171 457 190 438 190 414 c 0x2080
290 500 m 0x1008
 290 476 271 457 247 457 c 0x2008
 239 457 232 459 226 463 c 1
 220 459 212 457 204 457 c 0x1004
 180 457 161 476 161 500 c 0x1008
 161 524 180 543 204 543 c 0x1004
 212 543 220 541 226 537 c 1
 232 541 239 543 247 543 c 0
 271 543 290 524 290 500 c 0x1008
390 586 m 0x0801
 390 562 371 543 347 543 c 0
 339 543 332 545 326 549 c 1
 320 545 312 543 304 543 c 0x080040
 280 543 261 562 261 586 c 0x0801
 261 610 280 629 304 629 c 0x080040
 312 629 320 627 326 623 c 1
 332 627 339 629 347 629 c 0
 371 629 390 610 390 586 c 0x0801
219 586 m 0x0840
 219 562 200 543 176 543 c 0x11
 168 543 160 545 154 549 c 1
 148 545 141 543 133 543 c 0
 109 543 90 562 90 586 c 0x0840
 90 610 109 629 133 629 c 0
 141 629 148 627 154 623 c 1
 160 627 168 629 176 629 c 0x09
 200 629 219 610 219 586 c 0x0840
404 671 m 0x040080
 404 647 385 629 361 629 c 0x0802
 353 629 346 630 340 634 c 1
 334 630 326 629 318 629 c 0
 294 629 276 647 276 671 c 0x080080
 276 695 294 714 318 714 c 0
 326 714 334 713 340 709 c 1
 346 713 353 714 361 714 c 0x0402
 385 714 404 695 404 671 c 0x040080
233 671 m 0x0420
 233 647 214 629 190 629 c 0x0880
 182 629 174 630 168 634 c 1
 162 630 155 629 147 629 c 0
 123 629 104 647 104 671 c 0x0820
 104 695 123 714 147 714 c 0
 155 714 162 713 168 709 c 1
 174 713 182 714 190 714 c 0x0480
 214 714 233 695 233 671 c 0x0420
333 757 m 0x0204
 333 733 314 714 290 714 c 0x0408
 282 714 274 716 268 720 c 1
 262 716 255 714 247 714 c 0
 223 714 204 733 204 757 c 0x0204
 204 781 223 800 247 800 c 0
 255 800 262 798 268 794 c 1
 274 798 282 800 290 800 c 0x0208
 314 800 333 781 333 757 c 0x0204
EndSplineSet
EndChar

StartChar: parenright
Encoding: 41 41 12
Width: 522
VWidth: 0
UnlinkRmOvrlpSave: 1
Flags: W
HStem: 200 86<52.6424 111.717 112.282 170.358> 286 85<152.642 211.717 212.282 270.358> 371 86<252.642 311.717 312.282 370.358> 457 86<267.642 325.718 326.282 384.358> 543 86<281.642 339.718 340.283 399.358> 629 85<210.39 268.717 269.282 327.358> 714 86<138.642 196.718 197.283 256.358>
VStem: 47 129<206.167 279.833> 133 129<720.167 793.833> 147 129<291.642 365.61> 205 128<634.39 708.358> 247 129<377.167 450.833> 262 128<463.167 536.833> 276 129<549.167 622.833>
LayerCount: 2
Back
Fore
SplineSet
176 243 m 0x81
 176 219 157 200 133 200 c 0x8080
 125 200 118 202 112 206 c 1
 106 202 98 200 90 200 c 0
 66 200 47 219 47 243 c 0x81
 47 267 66 286 90 286 c 0
 98 286 106 284 112 280 c 1
 118 284 125 286 133 286 c 0x8080
 157 286 176 267 176 243 c 0x81
276 329 m 0x4040
 276 305 257 286 233 286 c 0
 225 286 218 287 212 291 c 1
 206 287 198 286 190 286 c 0
 166 286 147 305 147 329 c 0
 147 353 166 371 190 371 c 0
 198 371 206 370 212 366 c 1
 218 370 225 371 233 371 c 0
 257 371 276 353 276 329 c 0x4040
376 414 m 0x2010
 376 390 357 371 333 371 c 0x2020
 325 371 318 373 312 377 c 1
 306 373 298 371 290 371 c 0
 266 371 247 390 247 414 c 0x2010
 247 438 266 457 290 457 c 0
 298 457 306 455 312 451 c 1
 318 455 325 457 333 457 c 0x2020
 357 457 376 438 376 414 c 0x2010
390 500 m 0x1008
 390 476 371 457 347 457 c 0
 339 457 332 459 326 463 c 1
 320 459 313 457 305 457 c 0x2008
 281 457 262 476 262 500 c 0
 262 524 281 543 305 543 c 0
 313 543 320 541 326 537 c 1
 332 541 339 543 347 543 c 0
 371 543 390 524 390 500 c 0x1008
405 586 m 0x0804
 405 562 386 543 362 543 c 0
 354 543 346 545 340 549 c 1
 334 545 327 543 319 543 c 0x1004
 295 543 276 562 276 586 c 0
 276 610 295 629 319 629 c 0
 327 629 334 627 340 623 c 1
 346 627 354 629 362 629 c 0
 386 629 405 610 405 586 c 0x0804
333 671 m 0x0420
 333 647 314 629 290 629 c 0x0820
 282 629 275 630 269 634 c 1
 263 630 255 629 247 629 c 0x0410
 223 629 205 647 205 671 c 0x0420
 205 695 223 714 247 714 c 0x0410
 255 714 263 713 269 709 c 1
 275 713 282 714 290 714 c 0
 314 714 333 695 333 671 c 0x0420
262 757 m 0x0280
 262 733 243 714 219 714 c 0x0480
 211 714 203 716 197 720 c 1
 191 716 184 714 176 714 c 0x03
 152 714 133 733 133 757 c 0x0280
 133 781 152 800 176 800 c 0x03
 184 800 191 798 197 794 c 1
 203 798 211 800 219 800 c 0
 243 800 262 781 262 757 c 0x0280
EndSplineSet
EndChar

StartChar: parenleft
Encoding: 40 40 13
Width: 522
VWidth: 0
UnlinkRmOvrlpSave: 1
Flags: W
HStem: 200 86<195.642 253.718 254.283 313.358> 286 85<123.642 182.717 183.282 241.358> 371 86<52.6424 110.718 111.283 170.358> 457 86<66.6424 125.717 126.282 184.358> 543 86<81.39 139.717 140.282 198.358> 629 85<181.39 239.717 240.282 298.358> 714 86<281.39 339.717 340.282 398.358>
VStem: 47 129<377.167 450.833> 61 129<463.167 536.833> 76 128<549.167 622.833> 118 129<291.642 365.61> 176 128<634.39 708.358> 190 129<206.167 279.833> 276 128<720.167 793.833>
LayerCount: 2
Back
Fore
SplineSet
319 243 m 0x8008
 319 219 300 200 276 200 c 0x8004
 268 200 260 202 254 206 c 1
 248 202 241 200 233 200 c 0
 209 200 190 219 190 243 c 0x8008
 190 267 209 286 233 286 c 0
 241 286 248 284 254 280 c 1
 260 284 268 286 276 286 c 0x8004
 300 286 319 267 319 243 c 0x8008
247 329 m 0x4020
 247 305 228 286 204 286 c 0x8040
 196 286 189 287 183 291 c 1
 177 287 169 286 161 286 c 0
 137 286 118 305 118 329 c 0x4020
 118 353 137 371 161 371 c 0
 169 371 177 370 183 366 c 1
 189 370 196 371 204 371 c 0x4040
 228 371 247 353 247 329 c 0x4020
176 414 m 0x21
 176 390 157 371 133 371 c 0x41
 125 371 117 373 111 377 c 1
 105 373 98 371 90 371 c 0
 66 371 47 390 47 414 c 0
 47 438 66 457 90 457 c 0
 98 457 105 455 111 451 c 1
 117 455 125 457 133 457 c 0
 157 457 176 438 176 414 c 0x21
190 500 m 0x1080
 190 476 171 457 147 457 c 0
 139 457 132 459 126 463 c 1
 120 459 112 457 104 457 c 0x2080
 80 457 61 476 61 500 c 0
 61 524 80 543 104 543 c 0
 112 543 120 541 126 537 c 1
 132 541 139 543 147 543 c 0
 171 543 190 524 190 500 c 0x1080
204 586 m 0x0840
 204 562 185 543 161 543 c 0
 153 543 146 545 140 549 c 1
 134 545 126 543 118 543 c 0x1020
 94 543 76 562 76 586 c 0x1040
 76 610 94 629 118 629 c 0x0820
 126 629 134 627 140 623 c 1
 146 627 153 629 161 629 c 0
 185 629 204 610 204 586 c 0x0840
304 671 m 0x0410
 304 647 285 629 261 629 c 0
 253 629 246 630 240 634 c 1
 234 630 226 629 218 629 c 0
 194 629 176 647 176 671 c 0
 176 695 194 714 218 714 c 0
 226 714 234 713 240 709 c 1
 246 713 253 714 261 714 c 0
 285 714 304 695 304 671 c 0x0410
404 757 m 0x0204
 404 733 385 714 361 714 c 0
 353 714 346 716 340 720 c 1
 334 716 326 714 318 714 c 0
 294 714 276 733 276 757 c 0
 276 781 294 800 318 800 c 0
 326 800 334 798 340 794 c 1
 346 798 353 800 361 800 c 0
 385 800 404 781 404 757 c 0x0204
EndSplineSet
EndChar

StartChar: plus
Encoding: 43 43 14
Width: 522
VWidth: 0
UnlinkRmOvrlpSave: 1
Flags: W
HStem: 286 85<194.642 253.717 254.282 312.358> 371 86<209.642 267.718 268.282 326.358> 457 86<52.39 110.717 111.282 153.717 154.282 196.717 197.282 238.718 239.283 281.718 282.283 324.718 325.283 367.718 368.282 410.717 411.282 453.717 454.282 512.358> 543 86<237.642 296.717 297.282 355.358> 629 85<252.39 310.717 311.282 369.358>
VStem: 189 129<291.642 365.61> 204 128<377.167 450.833> 232 129<549.167 622.833> 247 128<634.39 708.358>
LayerCount: 2
Back
Fore
SplineSet
318 329 m 0x84
 318 305 299 286 275 286 c 0
 267 286 260 287 254 291 c 1
 248 287 240 286 232 286 c 0x81
 208 286 189 305 189 329 c 0x84
 189 353 208 371 232 371 c 0x81
 240 371 248 370 254 366 c 1
 260 370 267 371 275 371 c 0
 299 371 318 353 318 329 c 0x84
332 414 m 0x42
 332 390 313 371 289 371 c 0
 281 371 274 373 268 377 c 1
 262 373 255 371 247 371 c 0x8080
 223 371 204 390 204 414 c 0x82
 204 438 223 457 247 457 c 0x4080
 255 457 262 455 268 451 c 1
 274 455 281 457 289 457 c 0
 313 457 332 438 332 414 c 0x42
518 500 m 0
 518 476 499 457 475 457 c 0
 467 457 460 459 454 463 c 1
 448 459 440 457 432 457 c 0
 424 457 417 459 411 463 c 1
 405 459 397 457 389 457 c 0
 381 457 374 459 368 463 c 1
 362 459 355 457 347 457 c 0x20
 339 457 331 459 325 463 c 1
 319 459 312 457 304 457 c 0
 296 457 288 459 282 463 c 1
 276 459 269 457 261 457 c 0
 253 457 245 459 239 463 c 1
 233 459 226 457 218 457 c 0x40
 210 457 203 459 197 463 c 1
 191 459 183 457 175 457 c 0
 167 457 160 459 154 463 c 1
 148 459 140 457 132 457 c 0
 124 457 117 459 111 463 c 1
 105 459 97 457 89 457 c 0
 65 457 47 476 47 500 c 0
 47 524 65 543 89 543 c 0
 97 543 105 541 111 537 c 1
 117 541 124 543 132 543 c 0
 140 543 148 541 154 537 c 1
 160 541 167 543 175 543 c 0
 183 543 191 541 197 537 c 1
 203 541 210 543 218 543 c 0
 226 543 233 541 239 537 c 1
 245 541 253 543 261 543 c 0
 269 543 276 541 282 537 c 1
 288 541 296 543 304 543 c 0
 312 543 319 541 325 537 c 1
 331 541 339 543 347 543 c 0
 355 543 362 541 368 537 c 1
 374 541 381 543 389 543 c 0
 397 543 405 541 411 537 c 1
 417 541 424 543 432 543 c 0
 440 543 448 541 454 537 c 1
 460 541 467 543 475 543 c 0x20
 499 543 518 524 518 500 c 0
361 586 m 0x11
 361 562 342 543 318 543 c 0x24
 310 543 303 545 297 549 c 1
 291 545 283 543 275 543 c 0
 251 543 232 562 232 586 c 0x21
 232 610 251 629 275 629 c 0
 283 629 291 627 297 623 c 1
 303 627 310 629 318 629 c 0x14
 342 629 361 610 361 586 c 0x11
375 671 m 0x0880
 375 647 356 629 332 629 c 0x12
 324 629 317 630 311 634 c 1
 305 630 297 629 289 629 c 0
 265 629 247 647 247 671 c 0x1080
 247 695 265 714 289 714 c 0
 297 714 305 713 311 709 c 1
 317 713 324 714 332 714 c 0x0a
 356 714 375 695 375 671 c 0x0880
EndSplineSet
EndChar

StartChar: asterisk
Encoding: 42 42 15
Width: 522
VWidth: 0
UnlinkRmOvrlpSave: 1
Flags: W
HStem: 371 86<52.6424 111.717 112.282 170.358 224.642 282.718 283.282 341.358 395.642 453.718 454.283 513.358> 457 86<152.642 211.717 212.282 253.718 254.283 296.718 297.283 339.718 340.283 382.718 383.282 441.358> 543 86<81.6424 139.718 140.283 182.718 183.282 225.717 226.282 268.717 269.282 311.717 312.282 353.718 354.283 396.718 397.283 439.718 440.283 482.718 483.282 541.358> 629 85<181.642 239.718 240.283 282.718 283.282 325.717 326.282 368.717 369.282 411.717 412.282 470.358> 714 86<109.642 168.717 169.282 227.358 281.642 339.718 340.283 399.358 452.642 511.717 512.282 570.358>
VStem: 47 129<377.167 450.833> 104 129<720.167 793.833> 219 128<377.167 450.833> 276 129<720.167 793.833> 390 129<377.167 450.833> 447 129<720.167 793.833>
LayerCount: 2
Back
Fore
SplineSet
519 414 m 0x8040
 519 390 500 371 476 371 c 0
 468 371 460 373 454 377 c 1
 448 373 441 371 433 371 c 0
 409 371 390 390 390 414 c 0
 390 438 409 457 433 457 c 0
 441 457 448 455 454 451 c 1
 460 455 468 457 476 457 c 0
 500 457 519 438 519 414 c 0x8040
347 414 m 0x81
 347 390 328 371 304 371 c 0
 296 371 289 373 283 377 c 1
 277 373 270 371 262 371 c 0
 238 371 219 390 219 414 c 0
 219 438 238 457 262 457 c 0
 270 457 277 455 283 451 c 1
 289 455 296 457 304 457 c 0
 328 457 347 438 347 414 c 0x81
176 414 m 0x84
 176 390 157 371 133 371 c 0
 125 371 118 373 112 377 c 1
 106 373 98 371 90 371 c 0
 66 371 47 390 47 414 c 0
 47 438 66 457 90 457 c 0
 98 457 106 455 112 451 c 1
 118 455 125 457 133 457 c 0
 157 457 176 438 176 414 c 0x84
447 500 m 0x42a0
 447 476 428 457 404 457 c 0x82a0
 396 457 389 459 383 463 c 1
 377 459 370 457 362 457 c 0x42a0
 354 457 346 459 340 463 c 1
 334 459 327 457 319 457 c 0
 311 457 303 459 297 463 c 1
 291 459 284 457 276 457 c 0
 268 457 260 459 254 463 c 1
 248 459 241 457 233 457 c 0x82a0
 225 457 218 459 212 463 c 1
 206 459 198 457 190 457 c 0
 166 457 147 476 147 500 c 0
 147 524 166 543 190 543 c 0
 198 543 206 541 212 537 c 1
 218 541 225 543 233 543 c 0
 241 543 248 541 254 537 c 1
 260 541 268 543 276 543 c 0
 284 543 291 541 297 537 c 1
 303 541 311 543 319 543 c 0
 327 543 334 541 340 537 c 1
 346 541 354 543 362 543 c 0
 370 543 377 541 383 537 c 1
 389 541 396 543 404 543 c 0
 428 543 447 524 447 500 c 0x42a0
547 586 m 0
 547 562 528 543 504 543 c 0
 496 543 489 545 483 549 c 1
 477 545 470 543 462 543 c 0x20
 454 543 446 545 440 549 c 1
 434 545 427 543 419 543 c 0
 411 543 403 545 397 549 c 1
 391 545 384 543 376 543 c 0
 368 543 360 545 354 549 c 1
 348 545 341 543 333 543 c 0
 325 543 318 545 312 549 c 1
 306 545 298 543 290 543 c 0
 282 543 275 545 269 549 c 1
 263 545 255 543 247 543 c 0
 239 543 232 545 226 549 c 1
 220 545 212 543 204 543 c 0
 196 543 189 545 183 549 c 1
 177 545 170 543 162 543 c 0x40
 154 543 146 545 140 549 c 1
 134 545 127 543 119 543 c 0
 95 543 76 562 76 586 c 0
 76 610 95 629 119 629 c 0
 127 629 134 627 140 623 c 1
 146 627 154 629 162 629 c 0
 170 629 177 627 183 623 c 1
 189 627 196 629 204 629 c 0
 212 629 220 627 226 623 c 1
 232 627 239 629 247 629 c 0
 255 629 263 627 269 623 c 1
 275 627 282 629 290 629 c 0
 298 629 306 627 312 623 c 1
 318 627 325 629 333 629 c 0
 341 629 348 627 354 623 c 1
 360 627 368 629 376 629 c 0
 384 629 391 627 397 623 c 1
 403 627 411 629 419 629 c 0
 427 629 434 627 440 623 c 1
 446 627 454 629 462 629 c 0
 470 629 477 627 483 623 c 1
 489 627 496 629 504 629 c 0x20
 528 629 547 610 547 586 c 0
476 671 m 0
 476 647 457 629 433 629 c 0
 425 629 418 630 412 634 c 1
 406 630 398 629 390 629 c 0
 382 629 375 630 369 634 c 1
 363 630 355 629 347 629 c 0
 339 629 332 630 326 634 c 1
 320 630 312 629 304 629 c 0
 296 629 289 630 283 634 c 1
 277 630 270 629 262 629 c 0
 254 629 246 630 240 634 c 1
 234 630 227 629 219 629 c 0x2540
 195 629 176 647 176 671 c 0
 176 695 195 714 219 714 c 0
 227 714 234 713 240 709 c 1
 246 713 254 714 262 714 c 0
 270 714 277 713 283 709 c 1
 289 713 296 714 304 714 c 0
 312 714 320 713 326 709 c 1
 332 713 339 714 347 714 c 0
 355 714 363 713 369 709 c 1
 375 713 382 714 390 714 c 0
 398 714 406 713 412 709 c 1
 418 713 425 714 433 714 c 0x1540
 457 714 476 695 476 671 c 0
576 757 m 0x0820
 576 733 557 714 533 714 c 0
 525 714 518 716 512 720 c 1
 506 716 498 714 490 714 c 0
 466 714 447 733 447 757 c 0
 447 781 466 800 490 800 c 0
 498 800 506 798 512 794 c 1
 518 798 525 800 533 800 c 0
 557 800 576 781 576 757 c 0x0820
405 757 m 0x0880
 405 733 386 714 362 714 c 0
 354 714 346 716 340 720 c 1
 334 716 327 714 319 714 c 0x1080
 295 714 276 733 276 757 c 0
 276 781 295 800 319 800 c 0
 327 800 334 798 340 794 c 1
 346 798 354 800 362 800 c 0
 386 800 405 781 405 757 c 0x0880
233 757 m 0x0a
 233 733 214 714 190 714 c 0x12
 182 714 175 716 169 720 c 1
 163 716 155 714 147 714 c 0
 123 714 104 733 104 757 c 0
 104 781 123 800 147 800 c 0
 155 800 163 798 169 794 c 1
 175 798 182 800 190 800 c 0
 214 800 233 781 233 757 c 0x0a
EndSplineSet
EndChar

StartChar: hyphen
Encoding: 45 45 16
Width: 522
VWidth: 0
UnlinkRmOvrlpSave: 1
Flags: W
HStem: 371 86<52.6424 111.717 112.282 153.718 154.283 196.718 197.283 239.718 240.283 282.718 283.282 325.717 326.282 368.717 369.282 411.717 412.282 453.718 454.283 513.358>
LayerCount: 2
Back
Fore
SplineSet
519 414 m 0
 519 390 500 371 476 371 c 0
 468 371 460 373 454 377 c 1
 448 373 441 371 433 371 c 0
 425 371 418 373 412 377 c 1
 406 373 398 371 390 371 c 0
 382 371 375 373 369 377 c 1
 363 373 355 371 347 371 c 0
 339 371 332 373 326 377 c 1
 320 373 312 371 304 371 c 0
 296 371 289 373 283 377 c 1
 277 373 270 371 262 371 c 0
 254 371 246 373 240 377 c 1
 234 373 227 371 219 371 c 0
 211 371 203 373 197 377 c 1
 191 373 184 371 176 371 c 0
 168 371 160 373 154 377 c 1
 148 373 141 371 133 371 c 0
 125 371 118 373 112 377 c 1
 106 373 98 371 90 371 c 0
 66 371 47 390 47 414 c 0
 47 438 66 457 90 457 c 0
 98 457 106 455 112 451 c 1
 118 455 125 457 133 457 c 0
 141 457 148 455 154 451 c 1
 160 455 168 457 176 457 c 0
 184 457 191 455 197 451 c 1
 203 455 211 457 219 457 c 0
 227 457 234 455 240 451 c 1
 246 455 254 457 262 457 c 0
 270 457 277 455 283 451 c 1
 289 455 296 457 304 457 c 0
 312 457 320 455 326 451 c 1
 332 455 339 457 347 457 c 0
 355 457 363 455 369 451 c 1
 375 455 382 457 390 457 c 0
 398 457 406 455 412 451 c 1
 418 455 425 457 433 457 c 0
 441 457 448 455 454 451 c 1
 460 455 468 457 476 457 c 0
 500 457 519 438 519 414 c 0
EndSplineSet
EndChar

StartChar: comma
Encoding: 44 44 17
Width: 522
VWidth: 0
UnlinkRmOvrlpSave: 1
Flags: W
HStem: 200 86<52.6424 111.717 112.282 170.358> 286 85<152.642 211.717 212.282 270.358> 371 86<81.6424 139.718 140.283 182.718 183.283 225.718 226.282 284.358> 457 86<95.6424 154.717 155.282 196.718 197.283 239.718 240.283 299.358>
VStem: 47 129<206.167 279.833> 76 214<377.167 450.833> 90 215<463.167 536.833> 147 129<291.642 365.61>
LayerCount: 2
Back
Fore
SplineSet
176 243 m 0x88
 176 219 157 200 133 200 c 0
 125 200 118 202 112 206 c 1
 106 202 98 200 90 200 c 0x82
 66 200 47 219 47 243 c 0x88
 47 267 66 286 90 286 c 0x82
 98 286 106 284 112 280 c 1
 118 284 125 286 133 286 c 0
 157 286 176 267 176 243 c 0x88
276 329 m 0x41
 276 305 257 286 233 286 c 0
 225 286 218 287 212 291 c 1
 206 287 198 286 190 286 c 0
 166 286 147 305 147 329 c 0
 147 353 166 371 190 371 c 0
 198 371 206 370 212 366 c 1
 218 370 225 371 233 371 c 0
 257 371 276 353 276 329 c 0x41
290 414 m 0x24
 290 390 271 371 247 371 c 0
 239 371 232 373 226 377 c 1
 220 373 213 371 205 371 c 0
 197 371 189 373 183 377 c 1
 177 373 170 371 162 371 c 0x44
 154 371 146 373 140 377 c 1
 134 373 127 371 119 371 c 0
 95 371 76 390 76 414 c 0
 76 438 95 457 119 457 c 0
 127 457 134 455 140 451 c 1
 146 455 154 457 162 457 c 0
 170 457 177 455 183 451 c 1
 189 455 197 457 205 457 c 0
 213 457 220 455 226 451 c 1
 232 455 239 457 247 457 c 0
 271 457 290 438 290 414 c 0x24
305 500 m 0x12
 305 476 286 457 262 457 c 0
 254 457 246 459 240 463 c 1
 234 459 227 457 219 457 c 0
 211 457 203 459 197 463 c 1
 191 459 184 457 176 457 c 0x28
 168 457 161 459 155 463 c 1
 149 459 141 457 133 457 c 0
 109 457 90 476 90 500 c 0x22
 90 524 109 543 133 543 c 0
 141 543 149 541 155 537 c 1
 161 541 168 543 176 543 c 0x18
 184 543 191 541 197 537 c 1
 203 541 211 543 219 543 c 0
 227 543 234 541 240 537 c 1
 246 541 254 543 262 543 c 0
 286 543 305 524 305 500 c 0x12
EndSplineSet
EndChar

StartChar: slash
Encoding: 47 47 18
Width: 522
VWidth: 0
UnlinkRmOvrlpSave: 1
Flags: W
HStem: 286 85<52.6424 110.718 111.283 170.358> 371 86<152.642 210.718 211.283 270.358> 457 86<252.642 310.718 311.283 370.358> 543 86<352.642 410.718 411.283 470.358> 629 85<452.642 510.718 511.283 570.358>
VStem: 47 129<291.642 365.61> 147 129<377.167 450.833> 247 129<463.167 536.833> 347 129<549.167 622.833> 447 129<634.39 708.358>
LayerCount: 2
Back
Fore
SplineSet
176 329 m 0x84
 176 305 157 286 133 286 c 0
 125 286 117 287 111 291 c 1
 105 287 98 286 90 286 c 0
 66 286 47 305 47 329 c 0
 47 353 66 371 90 371 c 0
 98 371 105 370 111 366 c 1
 117 370 125 371 133 371 c 0
 157 371 176 353 176 329 c 0x84
276 414 m 0x42
 276 390 257 371 233 371 c 0
 225 371 217 373 211 377 c 1
 205 373 198 371 190 371 c 0
 166 371 147 390 147 414 c 0
 147 438 166 457 190 457 c 0
 198 457 205 455 211 451 c 1
 217 455 225 457 233 457 c 0
 257 457 276 438 276 414 c 0x42
376 500 m 0x21
 376 476 357 457 333 457 c 0
 325 457 317 459 311 463 c 1
 305 459 298 457 290 457 c 0
 266 457 247 476 247 500 c 0
 247 524 266 543 290 543 c 0
 298 543 305 541 311 537 c 1
 317 541 325 543 333 543 c 0
 357 543 376 524 376 500 c 0x21
476 586 m 0x1080
 476 562 457 543 433 543 c 0
 425 543 417 545 411 549 c 1
 405 545 398 543 390 543 c 0
 366 543 347 562 347 586 c 0
 347 610 366 629 390 629 c 0
 398 629 405 627 411 623 c 1
 417 627 425 629 433 629 c 0
 457 629 476 610 476 586 c 0x1080
576 671 m 0x0840
 576 647 557 629 533 629 c 0
 525 629 517 630 511 634 c 1
 505 630 498 629 490 629 c 0
 466 629 447 647 447 671 c 0
 447 695 466 714 490 714 c 0
 498 714 505 713 511 709 c 1
 517 713 525 714 533 714 c 0
 557 714 576 695 576 671 c 0x0840
EndSplineSet
EndChar

StartChar: period
Encoding: 46 46 19
Width: 522
VWidth: 0
UnlinkRmOvrlpSave: 1
Flags: W
HStem: 200 86<52.6424 111.717 112.282 154.717 155.282 196.718 197.283 256.358> 286 85<67.6424 125.718 126.282 168.717 169.282 211.717 212.282 270.358>
VStem: 47 215<206.167 279.833> 62 214<291.642 365.61>
LayerCount: 2
Back
Fore
SplineSet
262 243 m 0xa0
 262 219 243 200 219 200 c 0
 211 200 203 202 197 206 c 1
 191 202 184 200 176 200 c 0
 168 200 161 202 155 206 c 1
 149 202 141 200 133 200 c 0
 125 200 118 202 112 206 c 1
 106 202 98 200 90 200 c 0
 66 200 47 219 47 243 c 0
 47 267 66 286 90 286 c 0
 98 286 106 284 112 280 c 1
 118 284 125 286 133 286 c 0
 141 286 149 284 155 280 c 1
 161 284 168 286 176 286 c 0
 184 286 191 284 197 280 c 1
 203 284 211 286 219 286 c 0
 243 286 262 267 262 243 c 0xa0
276 329 m 0x50
 276 305 257 286 233 286 c 0
 225 286 218 287 212 291 c 1
 206 287 198 286 190 286 c 0
 182 286 175 287 169 291 c 1
 163 287 155 286 147 286 c 0
 139 286 132 287 126 291 c 1
 120 287 113 286 105 286 c 0x90
 81 286 62 305 62 329 c 0
 62 353 81 371 105 371 c 0
 113 371 120 370 126 366 c 1
 132 370 139 371 147 371 c 0
 155 371 163 370 169 366 c 1
 175 370 182 371 190 371 c 0
 198 371 206 370 212 366 c 1
 218 370 225 371 233 371 c 0
 257 371 276 353 276 329 c 0x50
EndSplineSet
EndChar

StartChar: one
Encoding: 49 49 20
Width: 522
VWidth: 0
UnlinkRmOvrlpSave: 1
Flags: W
HStem: 200 86<52.6424 111.717 112.282 154.717 155.282 196.718 197.283 239.718 240.283 282.718 283.283 342.358> 286 85<152.642 211.717 212.282 270.358> 371 86<167.642 225.718 226.282 284.358> 457 86<181.642 239.718 240.283 299.358> 543 86<195.642 254.717 255.282 313.358> 629 85<124.642 182.718 183.283 225.718 226.282 268.717 269.282 327.358> 714 86<224.642 282.718 283.283 342.358>
VStem: 119 214<634.39 708.358> 147 129<291.642 365.61> 162 128<377.167 450.833> 176 129<463.167 536.833> 190 129<549.167 622.833> 219 129<720.167 793.833>
LayerCount: 2
Back
Fore
SplineSet
348 243 m 0x8008
 348 219 329 200 305 200 c 0x8020
 297 200 289 202 283 206 c 1
 277 202 270 200 262 200 c 0
 254 200 246 202 240 206 c 1
 234 202 227 200 219 200 c 0x8008
 211 200 203 202 197 206 c 1
 191 202 184 200 176 200 c 0
 168 200 161 202 155 206 c 1
 149 202 141 200 133 200 c 0
 125 200 118 202 112 206 c 1
 106 202 98 200 90 200 c 0
 66 200 47 219 47 243 c 0
 47 267 66 286 90 286 c 0
 98 286 106 284 112 280 c 1
 118 284 125 286 133 286 c 0
 141 286 149 284 155 280 c 1
 161 284 168 286 176 286 c 0x8020
 184 286 191 284 197 280 c 1
 203 284 211 286 219 286 c 0x8008
 227 286 234 284 240 280 c 1
 246 284 254 286 262 286 c 0
 270 286 277 284 283 280 c 1
 289 284 297 286 305 286 c 0x8020
 329 286 348 267 348 243 c 0x8008
276 329 m 0x4080
 276 305 257 286 233 286 c 0
 225 286 218 287 212 291 c 1
 206 287 198 286 190 286 c 0x8010
 166 286 147 305 147 329 c 0x8080
 147 353 166 371 190 371 c 0x4010
 198 371 206 370 212 366 c 1
 218 370 225 371 233 371 c 0
 257 371 276 353 276 329 c 0x4080
290 414 m 0x2040
 290 390 271 371 247 371 c 0
 239 371 232 373 226 377 c 1
 220 373 213 371 205 371 c 0x4040
 181 371 162 390 162 414 c 0
 162 438 181 457 205 457 c 0
 213 457 220 455 226 451 c 1
 232 455 239 457 247 457 c 0
 271 457 290 438 290 414 c 0x2040
305 500 m 0x1020
 305 476 286 457 262 457 c 0
 254 457 246 459 240 463 c 1
 234 459 227 457 219 457 c 0x2008
 195 457 176 476 176 500 c 0x2020
 176 524 195 543 219 543 c 0x1008
 227 543 234 541 240 537 c 1
 246 541 254 543 262 543 c 0
 286 543 305 524 305 500 c 0x1020
319 586 m 0x0810
 319 562 300 543 276 543 c 0x1080
 268 543 261 545 255 549 c 1
 249 545 241 543 233 543 c 0
 209 543 190 562 190 586 c 0x1010
 190 610 209 629 233 629 c 0
 241 629 249 627 255 623 c 1
 261 627 268 629 276 629 c 0x0880
 300 629 319 610 319 586 c 0x0810
333 671 m 0x05
 333 647 314 629 290 629 c 0
 282 629 275 630 269 634 c 1
 263 630 255 629 247 629 c 0
 239 629 232 630 226 634 c 1
 220 630 213 629 205 629 c 0x0840
 197 629 189 630 183 634 c 1
 177 630 170 629 162 629 c 0x0440
 138 629 119 647 119 671 c 0x05
 119 695 138 714 162 714 c 0
 170 714 177 713 183 709 c 1
 189 713 197 714 205 714 c 0
 213 714 220 713 226 709 c 1
 232 713 239 714 247 714 c 0
 255 714 263 713 269 709 c 1
 275 713 282 714 290 714 c 0x0440
 314 714 333 695 333 671 c 0x05
348 757 m 0x0208
 348 733 329 714 305 714 c 0x0420
 297 714 289 716 283 720 c 1
 277 716 270 714 262 714 c 0
 238 714 219 733 219 757 c 0x0408
 219 781 238 800 262 800 c 0
 270 800 277 798 283 794 c 1
 289 798 297 800 305 800 c 0x0220
 329 800 348 781 348 757 c 0x0208
EndSplineSet
EndChar

StartChar: zero
Encoding: 48 48 21
Width: 522
VWidth: 0
UnlinkRmOvrlpSave: 1
Flags: W
HStem: 200 86<123.642 181.718 182.283 224.718 225.283 267.718 268.283 327.358> 286 85<52.6424 110.718 111.282 169.358 309.642 367.718 368.283 427.358> 371 86<66.6424 124.718 125.283 184.358 323.642 381.718 382.283 441.358> 457 86<80.6424 139.717 140.282 198.358 337.642 396.717 397.282 455.358> 543 86<95.39 153.717 154.282 212.358 352.642 410.718 411.282 469.358> 629 85<109.642 167.718 168.283 227.358 366.642 424.718 425.283 484.358> 714 86<209.642 267.718 268.283 310.718 311.282 353.717 354.282 412.358>
VStem: 47 128<291.642 365.61> 61 129<377.167 450.833> 75 129<463.167 536.833> 90 128<549.167 622.833> 104 129<634.39 708.358> 118 215<206.167 279.833> 204 214<720.167 793.833> 304 129<291.642 365.61> 318 129<377.167 450.833> 332 129<463.167 536.833> 347 128<549.167 622.833> 361 129<634.39 708.358>
LayerCount: 2
Back
Fore
SplineSet
333 243 m 0x8008
 333 219 314 200 290 200 c 0
 282 200 274 202 268 206 c 1
 262 202 255 200 247 200 c 0
 239 200 231 202 225 206 c 1
 219 202 212 200 204 200 c 0x8004
 196 200 188 202 182 206 c 1
 176 202 169 200 161 200 c 0
 137 200 118 219 118 243 c 0x8008
 118 267 137 286 161 286 c 0
 169 286 176 284 182 280 c 1
 188 284 196 286 204 286 c 0x8004
 212 286 219 284 225 280 c 1
 231 284 239 286 247 286 c 0
 255 286 262 284 268 280 c 1
 274 284 282 286 290 286 c 0
 314 286 333 267 333 243 c 0x8008
433 329 m 0x4002
 433 305 414 286 390 286 c 0
 382 286 374 287 368 291 c 1
 362 287 355 286 347 286 c 0x400040
 323 286 304 305 304 329 c 0x4002
 304 353 323 371 347 371 c 0x400040
 355 371 362 370 368 366 c 1
 374 370 382 371 390 371 c 0
 414 371 433 353 433 329 c 0x4002
175 329 m 0x41
 175 305 156 286 132 286 c 0x81
 124 286 117 287 111 291 c 1
 105 287 98 286 90 286 c 0x4020
 66 286 47 305 47 329 c 0x41
 47 353 66 371 90 371 c 0x4020
 98 371 105 370 111 366 c 1
 117 370 124 371 132 371 c 0
 156 371 175 353 175 329 c 0x41
447 414 m 0x2001
 447 390 428 371 404 371 c 0
 396 371 388 373 382 377 c 1
 376 373 369 371 361 371 c 0x400020
 337 371 318 390 318 414 c 0x4001
 318 438 337 457 361 457 c 0x200020
 369 457 376 455 382 451 c 1
 388 455 396 457 404 457 c 0
 428 457 447 438 447 414 c 0x2001
190 414 m 0x2080
 190 390 171 371 147 371 c 0
 139 371 131 373 125 377 c 1
 119 373 112 371 104 371 c 0x4010
 80 371 61 390 61 414 c 0x4080
 61 438 80 457 104 457 c 0x2010
 112 457 119 455 125 451 c 1
 131 455 139 457 147 457 c 0
 171 457 190 438 190 414 c 0x2080
461 500 m 0x100080
 461 476 442 457 418 457 c 0x2004
 410 457 403 459 397 463 c 1
 391 459 383 457 375 457 c 0
 351 457 332 476 332 500 c 0x200080
 332 524 351 543 375 543 c 0
 383 543 391 541 397 537 c 1
 403 541 410 543 418 543 c 0x1004
 442 543 461 524 461 500 c 0x100080
204 500 m 0x1040
 204 476 185 457 161 457 c 0
 153 457 146 459 140 463 c 1
 134 459 126 457 118 457 c 0x2008
 94 457 75 476 75 500 c 0x2040
 75 524 94 543 118 543 c 0x1008
 126 543 134 541 140 537 c 1
 146 541 153 543 161 543 c 0
 185 543 204 524 204 500 c 0x1040
475 586 m 0x080040
 475 562 456 543 432 543 c 0
 424 543 417 545 411 549 c 1
 405 545 398 543 390 543 c 0x100040
 366 543 347 562 347 586 c 0
 347 610 366 629 390 629 c 0
 398 629 405 627 411 623 c 1
 417 627 424 629 432 629 c 0
 456 629 475 610 475 586 c 0x080040
218 586 m 0x0820
 218 562 199 543 175 543 c 0x11
 167 543 160 545 154 549 c 1
 148 545 140 543 132 543 c 0
 108 543 90 562 90 586 c 0x1020
 90 610 108 629 132 629 c 0
 140 629 148 627 154 623 c 1
 160 627 167 629 175 629 c 0x09
 199 629 218 610 218 586 c 0x0820
490 671 m 0x040020
 490 647 471 629 447 629 c 0x0801
 439 629 431 630 425 634 c 1
 419 630 412 629 404 629 c 0
 380 629 361 647 361 671 c 0x080020
 361 695 380 714 404 714 c 0
 412 714 419 713 425 709 c 1
 431 713 439 714 447 714 c 0x0401
 471 714 490 695 490 671 c 0x040020
233 671 m 0x0410
 233 647 214 629 190 629 c 0x0880
 182 629 174 630 168 634 c 1
 162 630 155 629 147 629 c 0
 123 629 104 647 104 671 c 0x0810
 104 695 123 714 147 714 c 0
 155 714 162 713 168 709 c 1
 174 713 182 714 190 714 c 0x0480
 214 714 233 695 233 671 c 0x0410
418 757 m 0x0204
 418 733 399 714 375 714 c 0x0404
 367 714 360 716 354 720 c 1
 348 716 340 714 332 714 c 0x020080
 324 714 317 716 311 720 c 1
 305 716 298 714 290 714 c 0
 282 714 274 716 268 720 c 1
 262 716 255 714 247 714 c 0
 223 714 204 733 204 757 c 0x0204
 204 781 223 800 247 800 c 0
 255 800 262 798 268 794 c 1
 274 798 282 800 290 800 c 0
 298 800 305 798 311 794 c 1
 317 798 324 800 332 800 c 0x020080
 340 800 348 798 354 794 c 1
 360 798 367 800 375 800 c 0
 399 800 418 781 418 757 c 0x0204
EndSplineSet
EndChar

StartChar: three
Encoding: 51 51 22
Width: 522
VWidth: 0
UnlinkRmOvrlpSave: 1
Flags: W
HStem: 200 86<123.642 182.717 183.282 225.717 226.282 267.718 268.283 310.718 311.283 353.718 354.283 413.358> 286 85<52.6424 110.718 111.283 170.358 395.642 453.718 454.283 513.358> 371 86<409.642 467.718 468.283 527.358> 457 86<252.642 310.718 311.283 353.718 354.283 396.718 397.282 455.358> 543 86<438.642 496.718 497.282 555.358> 629 85<109.642 167.718 168.283 227.358 452.642 510.718 511.283 570.358> 714 86<209.642 267.718 268.283 310.718 311.283 353.718 354.283 396.718 397.282 439.717 440.282 498.358>
VStem: 47 129<291.642 365.61> 104 129<634.39 708.358> 247 214<463.167 536.833> 390 129<291.642 365.61> 404 129<377.167 450.833> 433 128<549.167 622.833> 447 129<634.39 708.358>
LayerCount: 2
Back
Fore
SplineSet
419 243 m 0x8040
 419 219 400 200 376 200 c 0
 368 200 360 202 354 206 c 1
 348 202 341 200 333 200 c 0
 325 200 317 202 311 206 c 1
 305 202 298 200 290 200 c 0
 282 200 274 202 268 206 c 1
 262 202 255 200 247 200 c 0
 239 200 232 202 226 206 c 1
 220 202 212 200 204 200 c 0
 196 200 189 202 183 206 c 1
 177 202 169 200 161 200 c 0
 137 200 118 219 118 243 c 0
 118 267 137 286 161 286 c 0
 169 286 177 284 183 280 c 1
 189 284 196 286 204 286 c 0
 212 286 220 284 226 280 c 1
 232 284 239 286 247 286 c 0
 255 286 262 284 268 280 c 1
 274 284 282 286 290 286 c 0
 298 286 305 284 311 280 c 1
 317 284 325 286 333 286 c 0
 341 286 348 284 354 280 c 1
 360 284 368 286 376 286 c 0
 400 286 419 267 419 243 c 0x8040
519 329 m 0x4020
 519 305 500 286 476 286 c 0
 468 286 460 287 454 291 c 1
 448 287 441 286 433 286 c 0x4008
 409 286 390 305 390 329 c 0x4020
 390 353 409 371 433 371 c 0x4008
 441 371 448 370 454 366 c 1
 460 370 468 371 476 371 c 0
 500 371 519 353 519 329 c 0x4020
176 329 m 0x41
 176 305 157 286 133 286 c 0x81
 125 286 117 287 111 291 c 1
 105 287 98 286 90 286 c 0
 66 286 47 305 47 329 c 0
 47 353 66 371 90 371 c 0
 98 371 105 370 111 366 c 1
 117 370 125 371 133 371 c 0
 157 371 176 353 176 329 c 0x41
533 414 m 0x2010
 533 390 514 371 490 371 c 0
 482 371 474 373 468 377 c 1
 462 373 455 371 447 371 c 0x4004
 423 371 404 390 404 414 c 0x4010
 404 438 423 457 447 457 c 0x2004
 455 457 462 455 468 451 c 1
 474 455 482 457 490 457 c 0
 514 457 533 438 533 414 c 0x2010
461 500 m 0x1040
 461 476 442 457 418 457 c 0x2040
 410 457 403 459 397 463 c 1
 391 459 384 457 376 457 c 0
 368 457 360 459 354 463 c 1
 348 459 341 457 333 457 c 0
 325 457 317 459 311 463 c 1
 305 459 298 457 290 457 c 0
 266 457 247 476 247 500 c 0
 247 524 266 543 290 543 c 0
 298 543 305 541 311 537 c 1
 317 541 325 543 333 543 c 0
 341 543 348 541 354 537 c 1
 360 541 368 543 376 543 c 0
 384 543 391 541 397 537 c 1
 403 541 410 543 418 543 c 0
 442 543 461 524 461 500 c 0x1040
561 586 m 0x0808
 561 562 542 543 518 543 c 0
 510 543 503 545 497 549 c 1
 491 545 484 543 476 543 c 0
 452 543 433 562 433 586 c 0
 433 610 452 629 476 629 c 0
 484 629 491 627 497 623 c 1
 503 627 510 629 518 629 c 0
 542 629 561 610 561 586 c 0x0808
576 671 m 0x0404
 576 647 557 629 533 629 c 0x0810
 525 629 517 630 511 634 c 1
 505 630 498 629 490 629 c 0
 466 629 447 647 447 671 c 0x0804
 447 695 466 714 490 714 c 0
 498 714 505 713 511 709 c 1
 517 713 525 714 533 714 c 0x0410
 557 714 576 695 576 671 c 0x0404
233 671 m 0x0480
 233 647 214 629 190 629 c 0
 182 629 174 630 168 634 c 1
 162 630 155 629 147 629 c 0
 123 629 104 647 104 671 c 0
 104 695 123 714 147 714 c 0
 155 714 162 713 168 709 c 1
 174 713 182 714 190 714 c 0
 214 714 233 695 233 671 c 0x0480
504 757 m 0
 504 733 485 714 461 714 c 0x0440
 453 714 446 716 440 720 c 1
 434 716 426 714 418 714 c 0
 410 714 403 716 397 720 c 1
 391 716 384 714 376 714 c 0
 368 714 360 716 354 720 c 1
 348 716 341 714 333 714 c 0
 325 714 317 716 311 720 c 1
 305 716 298 714 290 714 c 0
 282 714 274 716 268 720 c 1
 262 716 255 714 247 714 c 0
 223 714 204 733 204 757 c 0
 204 781 223 800 247 800 c 0
 255 800 262 798 268 794 c 1
 274 798 282 800 290 800 c 0
 298 800 305 798 311 794 c 1
 317 798 325 800 333 800 c 0
 341 800 348 798 354 794 c 1
 360 798 368 800 376 800 c 0
 384 800 391 798 397 794 c 1
 403 798 410 800 418 800 c 0
 426 800 434 798 440 794 c 1
 446 798 453 800 461 800 c 0x0240
 485 800 504 781 504 757 c 0
EndSplineSet
EndChar

StartChar: two
Encoding: 50 50 23
Width: 522
VWidth: 0
UnlinkRmOvrlpSave: 1
Flags: W
HStem: 200 86<52.6424 110.718 111.282 153.717 154.282 196.717 197.282 239.717 240.282 281.718 282.283 324.718 325.283 367.718 368.283 410.718 411.282 453.717 454.282 512.358> 286 85<66.6424 124.718 125.283 184.358> 371 86<80.6424 139.717 140.282 198.358> 457 86<180.642 239.717 240.282 281.718 282.283 324.718 325.283 367.718 368.283 410.718 411.282 469.358> 543 86<452.642 510.718 511.282 569.358> 629 85<123.642 181.718 182.283 241.358 466.642 524.718 525.283 584.358> 714 86<223.642 281.718 282.283 324.718 325.283 367.718 368.283 410.718 411.282 453.717 454.282 512.358>
VStem: 61 129<291.642 365.61> 75 129<377.167 450.833> 118 129<634.39 708.358> 447 128<549.167 622.833> 461 129<634.39 708.358>
LayerCount: 2
Back
Fore
SplineSet
518 243 m 0x80
 518 219 499 200 475 200 c 0
 467 200 460 202 454 206 c 1
 448 202 440 200 432 200 c 0
 424 200 417 202 411 206 c 1
 405 202 398 200 390 200 c 0
 382 200 374 202 368 206 c 1
 362 202 355 200 347 200 c 0
 339 200 331 202 325 206 c 1
 319 202 312 200 304 200 c 0
 296 200 288 202 282 206 c 1
 276 202 269 200 261 200 c 0
 253 200 246 202 240 206 c 1
 234 202 226 200 218 200 c 0
 210 200 203 202 197 206 c 1
 191 202 183 200 175 200 c 0
 167 200 160 202 154 206 c 1
 148 202 140 200 132 200 c 0
 124 200 117 202 111 206 c 1
 105 202 98 200 90 200 c 0
 66 200 47 219 47 243 c 0
 47 267 66 286 90 286 c 0
 98 286 105 284 111 280 c 1
 117 284 124 286 132 286 c 0
 140 286 148 284 154 280 c 1
 160 284 167 286 175 286 c 0
 183 286 191 284 197 280 c 1
 203 284 210 286 218 286 c 0
 226 286 234 284 240 280 c 1
 246 284 253 286 261 286 c 0
 269 286 276 284 282 280 c 1
 288 284 296 286 304 286 c 0
 312 286 319 284 325 280 c 1
 331 284 339 286 347 286 c 0
 355 286 362 284 368 280 c 1
 374 284 382 286 390 286 c 0
 398 286 405 284 411 280 c 1
 417 284 424 286 432 286 c 0
 440 286 448 284 454 280 c 1
 460 284 467 286 475 286 c 0
 499 286 518 267 518 243 c 0x80
190 329 m 0x41
 190 305 171 286 147 286 c 0
 139 286 131 287 125 291 c 1
 119 287 112 286 104 286 c 0x81
 80 286 61 305 61 329 c 0
 61 353 80 371 104 371 c 0
 112 371 119 370 125 366 c 1
 131 370 139 371 147 371 c 0
 171 371 190 353 190 329 c 0x41
204 414 m 0x2080
 204 390 185 371 161 371 c 0
 153 371 146 373 140 377 c 1
 134 373 126 371 118 371 c 0x4040
 94 371 75 390 75 414 c 0x4080
 75 438 94 457 118 457 c 0x2040
 126 457 134 455 140 451 c 1
 146 455 153 457 161 457 c 0
 185 457 204 438 204 414 c 0x2080
475 500 m 0
 475 476 456 457 432 457 c 0
 424 457 417 459 411 463 c 1
 405 459 398 457 390 457 c 0
 382 457 374 459 368 463 c 1
 362 459 355 457 347 457 c 0
 339 457 331 459 325 463 c 1
 319 459 312 457 304 457 c 0
 296 457 288 459 282 463 c 1
 276 459 269 457 261 457 c 0
 253 457 246 459 240 463 c 1
 234 459 226 457 218 457 c 0
 194 457 175 476 175 500 c 0
 175 524 194 543 218 543 c 0
 226 543 234 541 240 537 c 1
 246 541 253 543 261 543 c 0
 269 543 276 541 282 537 c 1
 288 541 296 543 304 543 c 0
 312 543 319 541 325 537 c 1
 331 541 339 543 347 543 c 0
 355 543 362 541 368 537 c 1
 374 541 382 543 390 543 c 0
 398 543 405 541 411 537 c 1
 417 541 424 543 432 543 c 0x10
 456 543 475 524 475 500 c 0
575 586 m 0x0820
 575 562 556 543 532 543 c 0
 524 543 517 545 511 549 c 1
 505 545 498 543 490 543 c 0
 466 543 447 562 447 586 c 0
 447 610 466 629 490 629 c 0
 498 629 505 627 511 623 c 1
 517 627 524 629 532 629 c 0
 556 629 575 610 575 586 c 0x0820
590 671 m 0x0410
 590 647 571 629 547 629 c 0
 539 629 531 630 525 634 c 1
 519 630 512 629 504 629 c 0x0810
 480 629 461 647 461 671 c 0
 461 695 480 714 504 714 c 0
 512 714 519 713 525 709 c 1
 531 713 539 714 547 714 c 0
 571 714 590 695 590 671 c 0x0410
247 671 m 0x0440
 247 647 228 629 204 629 c 0x0480
 196 629 188 630 182 634 c 1
 176 630 169 629 161 629 c 0
 137 629 118 647 118 671 c 0x0440
 118 695 137 714 161 714 c 0
 169 714 176 713 182 709 c 1
 188 713 196 714 204 714 c 0x0480
 228 714 247 695 247 671 c 0x0440
518 757 m 0
 518 733 499 714 475 714 c 0x04
 467 714 460 716 454 720 c 1
 448 716 440 714 432 714 c 0
 424 714 417 716 411 720 c 1
 405 716 398 714 390 714 c 0
 382 714 374 716 368 720 c 1
 362 716 355 714 347 714 c 0
 339 714 331 716 325 720 c 1
 319 716 312 714 304 714 c 0
 296 714 288 716 282 720 c 1
 276 716 269 714 261 714 c 0
 237 714 218 733 218 757 c 0
 218 781 237 800 261 800 c 0
 269 800 276 798 282 794 c 1
 288 798 296 800 304 800 c 0
 312 800 319 798 325 794 c 1
 331 798 339 800 347 800 c 0
 355 800 362 798 368 794 c 1
 374 798 382 800 390 800 c 0
 398 800 405 798 411 794 c 1
 417 798 424 800 432 800 c 0
 440 800 448 798 454 794 c 1
 460 798 467 800 475 800 c 0x02
 499 800 518 781 518 757 c 0
EndSplineSet
EndChar

StartChar: five
Encoding: 53 53 24
Width: 522
VWidth: 0
UnlinkRmOvrlpSave: 1
Flags: W
HStem: 200 86<123.642 182.717 183.282 225.717 226.282 267.718 268.283 310.718 311.283 353.718 354.283 413.358> 286 85<52.6424 110.718 111.283 170.358 395.642 453.718 454.283 513.358> 371 86<409.642 467.718 468.283 527.358> 457 86<423.642 482.717 483.282 541.358> 543 86<95.6424 153.718 154.283 196.718 197.282 239.717 240.282 282.717 283.282 325.717 326.282 367.718 368.283 410.718 411.283 470.358> 629 85<109.642 167.718 168.283 227.358> 714 86<123.642 182.717 183.282 225.717 226.282 267.718 268.283 310.718 311.283 353.718 354.283 396.718 397.282 439.717 440.282 482.717 483.282 525.717 526.282 584.358>
VStem: 47 129<291.642 365.61> 104 129<634.39 708.358> 390 129<291.642 365.61> 404 129<377.167 450.833> 418 129<463.167 536.833>
LayerCount: 2
Back
Fore
SplineSet
419 243 m 0x80
 419 219 400 200 376 200 c 0
 368 200 360 202 354 206 c 1
 348 202 341 200 333 200 c 0
 325 200 317 202 311 206 c 1
 305 202 298 200 290 200 c 0
 282 200 274 202 268 206 c 1
 262 202 255 200 247 200 c 0
 239 200 232 202 226 206 c 1
 220 202 212 200 204 200 c 0
 196 200 189 202 183 206 c 1
 177 202 169 200 161 200 c 0
 137 200 118 219 118 243 c 0
 118 267 137 286 161 286 c 0
 169 286 177 284 183 280 c 1
 189 284 196 286 204 286 c 0
 212 286 220 284 226 280 c 1
 232 284 239 286 247 286 c 0
 255 286 262 284 268 280 c 1
 274 284 282 286 290 286 c 0
 298 286 305 284 311 280 c 1
 317 284 325 286 333 286 c 0
 341 286 348 284 354 280 c 1
 360 284 368 286 376 286 c 0
 400 286 419 267 419 243 c 0x80
519 329 m 0x4040
 519 305 500 286 476 286 c 0
 468 286 460 287 454 291 c 1
 448 287 441 286 433 286 c 0
 409 286 390 305 390 329 c 0
 390 353 409 371 433 371 c 0
 441 371 448 370 454 366 c 1
 460 370 468 371 476 371 c 0
 500 371 519 353 519 329 c 0x4040
176 329 m 0x41
 176 305 157 286 133 286 c 0x81
 125 286 117 287 111 291 c 1
 105 287 98 286 90 286 c 0
 66 286 47 305 47 329 c 0
 47 353 66 371 90 371 c 0
 98 371 105 370 111 366 c 1
 117 370 125 371 133 371 c 0
 157 371 176 353 176 329 c 0x41
533 414 m 0x2020
 533 390 514 371 490 371 c 0
 482 371 474 373 468 377 c 1
 462 373 455 371 447 371 c 0x4020
 423 371 404 390 404 414 c 0
 404 438 423 457 447 457 c 0
 455 457 462 455 468 451 c 1
 474 455 482 457 490 457 c 0
 514 457 533 438 533 414 c 0x2020
547 500 m 0x1010
 547 476 528 457 504 457 c 0
 496 457 489 459 483 463 c 1
 477 459 469 457 461 457 c 0x2010
 437 457 418 476 418 500 c 0
 418 524 437 543 461 543 c 0
 469 543 477 541 483 537 c 1
 489 541 496 543 504 543 c 0
 528 543 547 524 547 500 c 0x1010
476 586 m 0
 476 562 457 543 433 543 c 0x1140
 425 543 417 545 411 549 c 1
 405 545 398 543 390 543 c 0
 382 543 374 545 368 549 c 1
 362 545 355 543 347 543 c 0
 339 543 332 545 326 549 c 1
 320 545 312 543 304 543 c 0
 296 543 289 545 283 549 c 1
 277 545 269 543 261 543 c 0
 253 543 246 545 240 549 c 1
 234 545 226 543 218 543 c 0
 210 543 203 545 197 549 c 1
 191 545 184 543 176 543 c 0
 168 543 160 545 154 549 c 1
 148 545 141 543 133 543 c 0
 109 543 90 562 90 586 c 0
 90 610 109 629 133 629 c 0
 141 629 148 627 154 623 c 1
 160 627 168 629 176 629 c 0
 184 629 191 627 197 623 c 1
 203 627 210 629 218 629 c 0
 226 629 234 627 240 623 c 1
 246 627 253 629 261 629 c 0
 269 629 277 627 283 623 c 1
 289 627 296 629 304 629 c 0
 312 629 320 627 326 623 c 1
 332 627 339 629 347 629 c 0
 355 629 362 627 368 623 c 1
 374 627 382 629 390 629 c 0
 398 629 405 627 411 623 c 1
 417 627 425 629 433 629 c 0x0940
 457 629 476 610 476 586 c 0
233 671 m 0x0480
 233 647 214 629 190 629 c 0
 182 629 174 630 168 634 c 1
 162 630 155 629 147 629 c 0x0880
 123 629 104 647 104 671 c 0
 104 695 123 714 147 714 c 0
 155 714 162 713 168 709 c 1
 174 713 182 714 190 714 c 0
 214 714 233 695 233 671 c 0x0480
590 757 m 0
 590 733 571 714 547 714 c 0
 539 714 532 716 526 720 c 1
 520 716 512 714 504 714 c 0
 496 714 489 716 483 720 c 1
 477 716 469 714 461 714 c 0
 453 714 446 716 440 720 c 1
 434 716 426 714 418 714 c 0
 410 714 403 716 397 720 c 1
 391 716 384 714 376 714 c 0
 368 714 360 716 354 720 c 1
 348 716 341 714 333 714 c 0
 325 714 317 716 311 720 c 1
 305 716 298 714 290 714 c 0
 282 714 274 716 268 720 c 1
 262 716 255 714 247 714 c 0x0210
 239 714 232 716 226 720 c 1
 220 716 212 714 204 714 c 0
 196 714 189 716 183 720 c 1
 177 716 169 714 161 714 c 0x0410
 137 714 118 733 118 757 c 0
 118 781 137 800 161 800 c 0
 169 800 177 798 183 794 c 1
 189 798 196 800 204 800 c 0
 212 800 220 798 226 794 c 1
 232 798 239 800 247 800 c 0
 255 800 262 798 268 794 c 1
 274 798 282 800 290 800 c 0
 298 800 305 798 311 794 c 1
 317 798 325 800 333 800 c 0
 341 800 348 798 354 794 c 1
 360 798 368 800 376 800 c 0
 384 800 391 798 397 794 c 1
 403 798 410 800 418 800 c 0
 426 800 434 798 440 794 c 1
 446 798 453 800 461 800 c 0
 469 800 477 798 483 794 c 1
 489 798 496 800 504 800 c 0
 512 800 520 798 526 794 c 1
 532 798 539 800 547 800 c 0x0210
 571 800 590 781 590 757 c 0
EndSplineSet
EndChar

StartChar: four
Encoding: 52 52 25
Width: 522
VWidth: 0
UnlinkRmOvrlpSave: 1
Flags: W
HStem: 200 86<281.642 339.718 340.283 399.358> 286 85<295.642 353.718 354.283 413.358> 371 86<52.6424 111.717 112.282 153.718 154.283 196.718 197.283 239.718 240.283 282.718 283.282 325.717 326.282 368.717 369.282 411.717 412.282 453.718 454.283 513.358> 457 86<67.39 125.717 126.282 184.358 324.642 382.718 383.282 441.358> 543 86<167.39 225.717 226.282 284.358 338.642 396.718 397.283 456.358> 629 85<267.39 325.717 326.282 368.717 369.282 411.717 412.282 470.358> 714 86<367.39 425.717 426.282 484.358>
VStem: 62 128<463.167 536.833> 162 128<549.167 622.833> 262 214<634.39 708.358> 276 129<206.167 279.833> 290 129<291.642 365.61> 319 128<463.167 536.833> 333 129<549.167 622.833> 362 128<720.167 793.833>
LayerCount: 2
Back
Fore
SplineSet
405 243 m 0x8020
 405 219 386 200 362 200 c 0x8002
 354 200 346 202 340 206 c 1
 334 202 327 200 319 200 c 0x8008
 295 200 276 219 276 243 c 0x8020
 276 267 295 286 319 286 c 0x8008
 327 286 334 284 340 280 c 1
 346 284 354 286 362 286 c 0x8002
 386 286 405 267 405 243 c 0x8020
419 329 m 0x4010
 419 305 400 286 376 286 c 0
 368 286 360 287 354 291 c 1
 348 287 341 286 333 286 c 0x8004
 309 286 290 305 290 329 c 0x8010
 290 353 309 371 333 371 c 0x4004
 341 371 348 370 354 366 c 1
 360 370 368 371 376 371 c 0
 400 371 419 353 419 329 c 0x4010
519 414 m 0
 519 390 500 371 476 371 c 0
 468 371 460 373 454 377 c 1
 448 373 441 371 433 371 c 0x2040
 425 371 418 373 412 377 c 1
 406 373 398 371 390 371 c 0
 382 371 375 373 369 377 c 1
 363 373 355 371 347 371 c 0
 339 371 332 373 326 377 c 1
 320 373 312 371 304 371 c 0x4040
 296 371 289 373 283 377 c 1
 277 373 270 371 262 371 c 0
 254 371 246 373 240 377 c 1
 234 373 227 371 219 371 c 0
 211 371 203 373 197 377 c 1
 191 373 184 371 176 371 c 0
 168 371 160 373 154 377 c 1
 148 373 141 371 133 371 c 0
 125 371 118 373 112 377 c 1
 106 373 98 371 90 371 c 0
 66 371 47 390 47 414 c 0
 47 438 66 457 90 457 c 0
 98 457 106 455 112 451 c 1
 118 455 125 457 133 457 c 0
 141 457 148 455 154 451 c 1
 160 455 168 457 176 457 c 0
 184 457 191 455 197 451 c 1
 203 455 211 457 219 457 c 0
 227 457 234 455 240 451 c 1
 246 455 254 457 262 457 c 0
 270 457 277 455 283 451 c 1
 289 455 296 457 304 457 c 0
 312 457 320 455 326 451 c 1
 332 455 339 457 347 457 c 0
 355 457 363 455 369 451 c 1
 375 455 382 457 390 457 c 0
 398 457 406 455 412 451 c 1
 418 455 425 457 433 457 c 0
 441 457 448 455 454 451 c 1
 460 455 468 457 476 457 c 0x2040
 500 457 519 438 519 414 c 0
447 500 m 0x1008
 447 476 428 457 404 457 c 0
 396 457 389 459 383 463 c 1
 377 459 370 457 362 457 c 0x2002
 338 457 319 476 319 500 c 0x2008
 319 524 338 543 362 543 c 0x1002
 370 543 377 541 383 537 c 1
 389 541 396 543 404 543 c 0
 428 543 447 524 447 500 c 0x1008
190 500 m 0x11
 190 476 171 457 147 457 c 0
 139 457 132 459 126 463 c 1
 120 459 112 457 104 457 c 0x21
 80 457 62 476 62 500 c 0
 62 524 80 543 104 543 c 0
 112 543 120 541 126 537 c 1
 132 541 139 543 147 543 c 0
 171 543 190 524 190 500 c 0x11
462 586 m 0x0804
 462 562 443 543 419 543 c 0x1010
 411 543 403 545 397 549 c 1
 391 545 384 543 376 543 c 0
 352 543 333 562 333 586 c 0x1004
 333 610 352 629 376 629 c 0
 384 629 391 627 397 623 c 1
 403 627 411 629 419 629 c 0x0810
 443 629 462 610 462 586 c 0x0804
290 586 m 0x0880
 290 562 271 543 247 543 c 0
 239 543 232 545 226 549 c 1
 220 545 212 543 204 543 c 0
 180 543 162 562 162 586 c 0
 162 610 180 629 204 629 c 0
 212 629 220 627 226 623 c 1
 232 627 239 629 247 629 c 0
 271 629 290 610 290 586 c 0x0880
476 671 m 0x0440
 476 647 457 629 433 629 c 0
 425 629 418 630 412 634 c 1
 406 630 398 629 390 629 c 0
 382 629 375 630 369 634 c 1
 363 630 355 629 347 629 c 0x0840
 339 629 332 630 326 634 c 1
 320 630 312 629 304 629 c 0
 280 629 262 647 262 671 c 0
 262 695 280 714 304 714 c 0
 312 714 320 713 326 709 c 1
 332 713 339 714 347 714 c 0
 355 714 363 713 369 709 c 1
 375 713 382 714 390 714 c 0
 398 714 406 713 412 709 c 1
 418 713 425 714 433 714 c 0
 457 714 476 695 476 671 c 0x0440
490 757 m 0x0202
 490 733 471 714 447 714 c 0x0408
 439 714 432 716 426 720 c 1
 420 716 412 714 404 714 c 0
 380 714 362 733 362 757 c 0x0402
 362 781 380 800 404 800 c 0
 412 800 420 798 426 794 c 1
 432 798 439 800 447 800 c 0x0208
 471 800 490 781 490 757 c 0x0202
EndSplineSet
EndChar

StartChar: seven
Encoding: 55 55 26
Width: 522
VWidth: 0
UnlinkRmOvrlpSave: 1
Flags: W
HStem: 200 86<52.6424 111.717 112.282 170.358> 286 85<67.6424 125.718 126.282 184.358> 371 86<81.6424 139.718 140.283 199.358> 457 86<181.642 239.718 240.283 299.358> 543 86<281.642 339.718 340.283 399.358> 629 85<381.642 439.718 440.283 499.358> 714 86<52.6424 111.717 112.282 154.717 155.282 196.718 197.283 239.718 240.283 282.718 283.283 325.718 326.282 368.717 369.282 411.717 412.282 454.717 455.282 513.358>
VStem: 47 129<206.167 279.833> 62 128<291.642 365.61> 76 129<377.167 450.833> 176 129<463.167 536.833> 276 129<549.167 622.833> 376 129<634.39 708.358>
LayerCount: 2
Back
Fore
SplineSet
176 243 m 0x81
 176 219 157 200 133 200 c 0
 125 200 118 202 112 206 c 1
 106 202 98 200 90 200 c 0
 66 200 47 219 47 243 c 0
 47 267 66 286 90 286 c 0
 98 286 106 284 112 280 c 1
 118 284 125 286 133 286 c 0
 157 286 176 267 176 243 c 0x81
190 329 m 0x4080
 190 305 171 286 147 286 c 0
 139 286 132 287 126 291 c 1
 120 287 113 286 105 286 c 0x8080
 81 286 62 305 62 329 c 0
 62 353 81 371 105 371 c 0
 113 371 120 370 126 366 c 1
 132 370 139 371 147 371 c 0
 171 371 190 353 190 329 c 0x4080
205 414 m 0x2040
 205 390 186 371 162 371 c 0
 154 371 146 373 140 377 c 1
 134 373 127 371 119 371 c 0x4040
 95 371 76 390 76 414 c 0
 76 438 95 457 119 457 c 0
 127 457 134 455 140 451 c 1
 146 455 154 457 162 457 c 0
 186 457 205 438 205 414 c 0x2040
305 500 m 0x1020
 305 476 286 457 262 457 c 0
 254 457 246 459 240 463 c 1
 234 459 227 457 219 457 c 0
 195 457 176 476 176 500 c 0
 176 524 195 543 219 543 c 0
 227 543 234 541 240 537 c 1
 246 541 254 543 262 543 c 0
 286 543 305 524 305 500 c 0x1020
405 586 m 0x0810
 405 562 386 543 362 543 c 0
 354 543 346 545 340 549 c 1
 334 545 327 543 319 543 c 0
 295 543 276 562 276 586 c 0
 276 610 295 629 319 629 c 0
 327 629 334 627 340 623 c 1
 346 627 354 629 362 629 c 0
 386 629 405 610 405 586 c 0x0810
505 671 m 0x0408
 505 647 486 629 462 629 c 0
 454 629 446 630 440 634 c 1
 434 630 427 629 419 629 c 0
 395 629 376 647 376 671 c 0
 376 695 395 714 419 714 c 0
 427 714 434 713 440 709 c 1
 446 713 454 714 462 714 c 0
 486 714 505 695 505 671 c 0x0408
519 757 m 0
 519 733 500 714 476 714 c 0
 468 714 461 716 455 720 c 1
 449 716 441 714 433 714 c 0
 425 714 418 716 412 720 c 1
 406 716 398 714 390 714 c 0x0420
 382 714 375 716 369 720 c 1
 363 716 355 714 347 714 c 0
 339 714 332 716 326 720 c 1
 320 716 313 714 305 714 c 0
 297 714 289 716 283 720 c 1
 277 716 270 714 262 714 c 0
 254 714 246 716 240 720 c 1
 234 716 227 714 219 714 c 0
 211 714 203 716 197 720 c 1
 191 716 184 714 176 714 c 0x0220
 168 714 161 716 155 720 c 1
 149 716 141 714 133 714 c 0
 125 714 118 716 112 720 c 1
 106 716 98 714 90 714 c 0
 66 714 47 733 47 757 c 0x03
 47 781 66 800 90 800 c 0
 98 800 106 798 112 794 c 1
 118 798 125 800 133 800 c 0
 141 800 149 798 155 794 c 1
 161 798 168 800 176 800 c 0
 184 800 191 798 197 794 c 1
 203 798 211 800 219 800 c 0
 227 800 234 798 240 794 c 1
 246 798 254 800 262 800 c 0
 270 800 277 798 283 794 c 1
 289 798 297 800 305 800 c 0
 313 800 320 798 326 794 c 1
 332 798 339 800 347 800 c 0
 355 800 363 798 369 794 c 1
 375 798 382 800 390 800 c 0
 398 800 406 798 412 794 c 1
 418 798 425 800 433 800 c 0
 441 800 449 798 455 794 c 1
 461 798 468 800 476 800 c 0x0220
 500 800 519 781 519 757 c 0
EndSplineSet
EndChar

StartChar: six
Encoding: 54 54 27
Width: 522
VWidth: 0
UnlinkRmOvrlpSave: 1
Flags: W
HStem: 200 86<123.642 182.717 183.282 225.717 226.282 267.718 268.283 310.718 311.283 353.718 354.283 413.358> 286 85<52.6424 110.718 111.283 170.358 395.642 453.718 454.283 513.358> 371 86<66.6424 125.717 126.282 184.358 409.642 467.718 468.283 527.358> 457 86<81.39 139.717 140.282 182.717 183.282 225.717 226.282 267.718 268.283 310.718 311.283 353.718 354.283 396.718 397.282 455.358> 543 86<95.6424 153.718 154.283 213.358> 629 85<195.642 253.718 254.283 313.358> 714 86<295.642 353.718 354.283 396.718 397.282 439.717 440.282 498.358>
VStem: 47 129<291.642 365.61> 61 129<377.167 450.833> 90 129<549.167 622.833> 190 129<634.39 708.358> 290 214<720.167 793.833> 390 129<291.642 365.61> 404 129<377.167 450.833>
LayerCount: 2
Back
Fore
SplineSet
419 243 m 0x8010
 419 219 400 200 376 200 c 0
 368 200 360 202 354 206 c 1
 348 202 341 200 333 200 c 0
 325 200 317 202 311 206 c 1
 305 202 298 200 290 200 c 0
 282 200 274 202 268 206 c 1
 262 202 255 200 247 200 c 0
 239 200 232 202 226 206 c 1
 220 202 212 200 204 200 c 0
 196 200 189 202 183 206 c 1
 177 202 169 200 161 200 c 0
 137 200 118 219 118 243 c 0
 118 267 137 286 161 286 c 0
 169 286 177 284 183 280 c 1
 189 284 196 286 204 286 c 0
 212 286 220 284 226 280 c 1
 232 284 239 286 247 286 c 0
 255 286 262 284 268 280 c 1
 274 284 282 286 290 286 c 0
 298 286 305 284 311 280 c 1
 317 284 325 286 333 286 c 0
 341 286 348 284 354 280 c 1
 360 284 368 286 376 286 c 0
 400 286 419 267 419 243 c 0x8010
519 329 m 0x4008
 519 305 500 286 476 286 c 0
 468 286 460 287 454 291 c 1
 448 287 441 286 433 286 c 0
 409 286 390 305 390 329 c 0
 390 353 409 371 433 371 c 0
 441 371 448 370 454 366 c 1
 460 370 468 371 476 371 c 0
 500 371 519 353 519 329 c 0x4008
176 329 m 0x41
 176 305 157 286 133 286 c 0x81
 125 286 117 287 111 291 c 1
 105 287 98 286 90 286 c 0x4040
 66 286 47 305 47 329 c 0x41
 47 353 66 371 90 371 c 0x4040
 98 371 105 370 111 366 c 1
 117 370 125 371 133 371 c 0
 157 371 176 353 176 329 c 0x41
533 414 m 0x2004
 533 390 514 371 490 371 c 0
 482 371 474 373 468 377 c 1
 462 373 455 371 447 371 c 0x4004
 423 371 404 390 404 414 c 0
 404 438 423 457 447 457 c 0
 455 457 462 455 468 451 c 1
 474 455 482 457 490 457 c 0
 514 457 533 438 533 414 c 0x2004
190 414 m 0x2080
 190 390 171 371 147 371 c 0
 139 371 132 373 126 377 c 1
 120 373 112 371 104 371 c 0x4080
 80 371 61 390 61 414 c 0
 61 438 80 457 104 457 c 0
 112 457 120 455 126 451 c 1
 132 455 139 457 147 457 c 0
 171 457 190 438 190 414 c 0x2080
461 500 m 0
 461 476 442 457 418 457 c 0x2010
 410 457 403 459 397 463 c 1
 391 459 384 457 376 457 c 0
 368 457 360 459 354 463 c 1
 348 459 341 457 333 457 c 0
 325 457 317 459 311 463 c 1
 305 459 298 457 290 457 c 0
 282 457 274 459 268 463 c 1
 262 459 255 457 247 457 c 0
 239 457 232 459 226 463 c 1
 220 459 212 457 204 457 c 0x1010
 196 457 189 459 183 463 c 1
 177 459 169 457 161 457 c 0
 153 457 146 459 140 463 c 1
 134 459 126 457 118 457 c 0x2010
 94 457 76 476 76 500 c 0
 76 524 94 543 118 543 c 0
 126 543 134 541 140 537 c 1
 146 541 153 543 161 543 c 0
 169 543 177 541 183 537 c 1
 189 541 196 543 204 543 c 0
 212 543 220 541 226 537 c 1
 232 541 239 543 247 543 c 0
 255 543 262 541 268 537 c 1
 274 541 282 543 290 543 c 0
 298 543 305 541 311 537 c 1
 317 541 325 543 333 543 c 0
 341 543 348 541 354 537 c 1
 360 541 368 543 376 543 c 0
 384 543 391 541 397 537 c 1
 403 541 410 543 418 543 c 0x1010
 442 543 461 524 461 500 c 0
219 586 m 0x0840
 219 562 200 543 176 543 c 0x11
 168 543 160 545 154 549 c 1
 148 545 141 543 133 543 c 0
 109 543 90 562 90 586 c 0x1040
 90 610 109 629 133 629 c 0
 141 629 148 627 154 623 c 1
 160 627 168 629 176 629 c 0x09
 200 629 219 610 219 586 c 0x0840
319 671 m 0x0420
 319 647 300 629 276 629 c 0
 268 629 260 630 254 634 c 1
 248 630 241 629 233 629 c 0
 209 629 190 647 190 671 c 0
 190 695 209 714 233 714 c 0
 241 714 248 713 254 709 c 1
 260 713 268 714 276 714 c 0
 300 714 319 695 319 671 c 0x0420
504 757 m 0x0210
 504 733 485 714 461 714 c 0
 453 714 446 716 440 720 c 1
 434 716 426 714 418 714 c 0
 410 714 403 716 397 720 c 1
 391 716 384 714 376 714 c 0
 368 714 360 716 354 720 c 1
 348 716 341 714 333 714 c 0
 309 714 290 733 290 757 c 0
 290 781 309 800 333 800 c 0
 341 800 348 798 354 794 c 1
 360 798 368 800 376 800 c 0
 384 800 391 798 397 794 c 1
 403 798 410 800 418 800 c 0
 426 800 434 798 440 794 c 1
 446 798 453 800 461 800 c 0
 485 800 504 781 504 757 c 0x0210
EndSplineSet
EndChar

StartChar: nine
Encoding: 57 57 28
Width: 522
VWidth: 0
UnlinkRmOvrlpSave: 1
Flags: W
HStem: 200 86<80.6424 139.717 140.282 182.717 183.282 224.718 225.283 284.358> 286 85<266.642 324.718 325.283 384.358> 371 86<366.642 424.718 425.283 484.358> 457 86<123.642 182.717 183.282 224.718 225.283 267.718 268.283 310.718 311.283 353.718 354.282 396.717 397.282 439.717 440.282 498.358> 543 86<52.6424 110.718 111.283 170.358 395.642 453.718 454.282 512.358> 629 85<66.6424 124.718 125.283 184.358 409.642 467.718 468.283 527.358> 714 86<166.642 224.718 225.283 267.718 268.283 310.718 311.283 353.718 354.282 396.717 397.282 455.358>
VStem: 47 129<549.167 622.833> 61 129<634.39 708.358> 75 215<206.167 279.833> 261 129<291.642 365.61> 361 129<377.167 450.833> 390 128<549.167 622.833> 404 129<634.39 708.358>
LayerCount: 2
Back
Fore
SplineSet
290 243 m 0x8040
 290 219 271 200 247 200 c 0
 239 200 231 202 225 206 c 1
 219 202 212 200 204 200 c 0
 196 200 189 202 183 206 c 1
 177 202 169 200 161 200 c 0
 153 200 146 202 140 206 c 1
 134 202 126 200 118 200 c 0
 94 200 75 219 75 243 c 0
 75 267 94 286 118 286 c 0
 126 286 134 284 140 280 c 1
 146 284 153 286 161 286 c 0
 169 286 177 284 183 280 c 1
 189 284 196 286 204 286 c 0
 212 286 219 284 225 280 c 1
 231 284 239 286 247 286 c 0
 271 286 290 267 290 243 c 0x8040
390 329 m 0x4020
 390 305 371 286 347 286 c 0
 339 286 331 287 325 291 c 1
 319 287 312 286 304 286 c 0
 280 286 261 305 261 329 c 0
 261 353 280 371 304 371 c 0
 312 371 319 370 325 366 c 1
 331 370 339 371 347 371 c 0
 371 371 390 353 390 329 c 0x4020
490 414 m 0x2010
 490 390 471 371 447 371 c 0
 439 371 431 373 425 377 c 1
 419 373 412 371 404 371 c 0x2004
 380 371 361 390 361 414 c 0x2010
 361 438 380 457 404 457 c 0x2004
 412 457 419 455 425 451 c 1
 431 455 439 457 447 457 c 0
 471 457 490 438 490 414 c 0x2010
504 500 m 0
 504 476 485 457 461 457 c 0
 453 457 446 459 440 463 c 1
 434 459 426 457 418 457 c 0
 410 457 403 459 397 463 c 1
 391 459 383 457 375 457 c 0x2040
 367 457 360 459 354 463 c 1
 348 459 341 457 333 457 c 0
 325 457 317 459 311 463 c 1
 305 459 298 457 290 457 c 0
 282 457 274 459 268 463 c 1
 262 459 255 457 247 457 c 0
 239 457 231 459 225 463 c 1
 219 459 212 457 204 457 c 0
 196 457 189 459 183 463 c 1
 177 459 169 457 161 457 c 0
 137 457 118 476 118 500 c 0
 118 524 137 543 161 543 c 0
 169 543 177 541 183 537 c 1
 189 541 196 543 204 543 c 0
 212 543 219 541 225 537 c 1
 231 541 239 543 247 543 c 0
 255 543 262 541 268 537 c 1
 274 541 282 543 290 543 c 0
 298 543 305 541 311 537 c 1
 317 541 325 543 333 543 c 0
 341 543 348 541 354 537 c 1
 360 541 367 543 375 543 c 0
 383 543 391 541 397 537 c 1
 403 541 410 543 418 543 c 0
 426 543 434 541 440 537 c 1
 446 541 453 543 461 543 c 0x1040
 485 543 504 524 504 500 c 0
518 586 m 0x0808
 518 562 499 543 475 543 c 0
 467 543 460 545 454 549 c 1
 448 545 441 543 433 543 c 0x1008
 409 543 390 562 390 586 c 0
 390 610 409 629 433 629 c 0
 441 629 448 627 454 623 c 1
 460 627 467 629 475 629 c 0
 499 629 518 610 518 586 c 0x0808
176 586 m 0x09
 176 562 157 543 133 543 c 0x11
 125 543 117 545 111 549 c 1
 105 545 98 543 90 543 c 0
 66 543 47 562 47 586 c 0
 47 610 66 629 90 629 c 0
 98 629 105 627 111 623 c 1
 117 627 125 629 133 629 c 0
 157 629 176 610 176 586 c 0x09
533 671 m 0x0404
 533 647 514 629 490 629 c 0x0810
 482 629 474 630 468 634 c 1
 462 630 455 629 447 629 c 0
 423 629 404 647 404 671 c 0x0804
 404 695 423 714 447 714 c 0
 455 714 462 713 468 709 c 1
 474 713 482 714 490 714 c 0x0410
 514 714 533 695 533 671 c 0x0404
190 671 m 0x0480
 190 647 171 629 147 629 c 0
 139 629 131 630 125 634 c 1
 119 630 112 629 104 629 c 0x0880
 80 629 61 647 61 671 c 0
 61 695 80 714 104 714 c 0
 112 714 119 713 125 709 c 1
 131 713 139 714 147 714 c 0
 171 714 190 695 190 671 c 0x0480
461 757 m 0
 461 733 442 714 418 714 c 0x0440
 410 714 403 716 397 720 c 1
 391 716 383 714 375 714 c 0
 367 714 360 716 354 720 c 1
 348 716 341 714 333 714 c 0
 325 714 317 716 311 720 c 1
 305 716 298 714 290 714 c 0
 282 714 274 716 268 720 c 1
 262 716 255 714 247 714 c 0
 239 714 231 716 225 720 c 1
 219 716 212 714 204 714 c 0
 180 714 161 733 161 757 c 0
 161 781 180 800 204 800 c 0
 212 800 219 798 225 794 c 1
 231 798 239 800 247 800 c 0
 255 800 262 798 268 794 c 1
 274 798 282 800 290 800 c 0
 298 800 305 798 311 794 c 1
 317 798 325 800 333 800 c 0
 341 800 348 798 354 794 c 1
 360 798 367 800 375 800 c 0
 383 800 391 798 397 794 c 1
 403 798 410 800 418 800 c 0x0240
 442 800 461 781 461 757 c 0
EndSplineSet
EndChar

StartChar: eight
Encoding: 56 56 29
Width: 522
VWidth: 0
UnlinkRmOvrlpSave: 1
Flags: W
HStem: 200 86<123.642 182.717 183.282 225.717 226.282 267.718 268.283 310.718 311.283 353.718 354.283 413.358> 286 85<52.6424 110.718 111.283 170.358 395.642 453.718 454.283 513.358> 371 86<66.6424 125.717 126.282 184.358 409.642 467.718 468.283 527.358> 457 86<166.642 225.717 226.282 267.718 268.283 310.718 311.283 353.718 354.283 396.718 397.282 455.358> 543 86<95.6424 153.718 154.283 213.358 438.642 496.718 497.282 555.358> 629 85<109.642 167.718 168.283 227.358 452.642 510.718 511.283 570.358> 714 86<209.642 267.718 268.283 310.718 311.283 353.718 354.283 396.718 397.282 439.717 440.282 498.358>
VStem: 47 129<291.642 365.61> 61 129<377.167 450.833> 90 129<549.167 622.833> 104 129<634.39 708.358> 390 129<291.642 365.61> 404 129<377.167 450.833> 433 128<549.167 622.833> 447 129<634.39 708.358>
LayerCount: 2
Back
Fore
SplineSet
419 243 m 0x80
 419 219 400 200 376 200 c 0
 368 200 360 202 354 206 c 1
 348 202 341 200 333 200 c 0
 325 200 317 202 311 206 c 1
 305 202 298 200 290 200 c 0
 282 200 274 202 268 206 c 1
 262 202 255 200 247 200 c 0
 239 200 232 202 226 206 c 1
 220 202 212 200 204 200 c 0
 196 200 189 202 183 206 c 1
 177 202 169 200 161 200 c 0
 137 200 118 219 118 243 c 0
 118 267 137 286 161 286 c 0
 169 286 177 284 183 280 c 1
 189 284 196 286 204 286 c 0
 212 286 220 284 226 280 c 1
 232 284 239 286 247 286 c 0
 255 286 262 284 268 280 c 1
 274 284 282 286 290 286 c 0
 298 286 305 284 311 280 c 1
 317 284 325 286 333 286 c 0
 341 286 348 284 354 280 c 1
 360 284 368 286 376 286 c 0
 400 286 419 267 419 243 c 0x80
519 329 m 0x4010
 519 305 500 286 476 286 c 0
 468 286 460 287 454 291 c 1
 448 287 441 286 433 286 c 0x4004
 409 286 390 305 390 329 c 0x4010
 390 353 409 371 433 371 c 0x4004
 441 371 448 370 454 366 c 1
 460 370 468 371 476 371 c 0
 500 371 519 353 519 329 c 0x4010
176 329 m 0x41
 176 305 157 286 133 286 c 0x81
 125 286 117 287 111 291 c 1
 105 287 98 286 90 286 c 0x4040
 66 286 47 305 47 329 c 0x41
 47 353 66 371 90 371 c 0x4040
 98 371 105 370 111 366 c 1
 117 370 125 371 133 371 c 0
 157 371 176 353 176 329 c 0x41
533 414 m 0x2008
 533 390 514 371 490 371 c 0
 482 371 474 373 468 377 c 1
 462 373 455 371 447 371 c 0x4002
 423 371 404 390 404 414 c 0x4008
 404 438 423 457 447 457 c 0x2002
 455 457 462 455 468 451 c 1
 474 455 482 457 490 457 c 0
 514 457 533 438 533 414 c 0x2008
190 414 m 0x2080
 190 390 171 371 147 371 c 0
 139 371 132 373 126 377 c 1
 120 373 112 371 104 371 c 0x4020
 80 371 61 390 61 414 c 0x4080
 61 438 80 457 104 457 c 0x2020
 112 457 120 455 126 451 c 1
 132 455 139 457 147 457 c 0
 171 457 190 438 190 414 c 0x2080
461 500 m 0
 461 476 442 457 418 457 c 0x20
 410 457 403 459 397 463 c 1
 391 459 384 457 376 457 c 0
 368 457 360 459 354 463 c 1
 348 459 341 457 333 457 c 0
 325 457 317 459 311 463 c 1
 305 459 298 457 290 457 c 0
 282 457 274 459 268 463 c 1
 262 459 255 457 247 457 c 0
 239 457 232 459 226 463 c 1
 220 459 212 457 204 457 c 0
 180 457 161 476 161 500 c 0
 161 524 180 543 204 543 c 0
 212 543 220 541 226 537 c 1
 232 541 239 543 247 543 c 0
 255 543 262 541 268 537 c 1
 274 541 282 543 290 543 c 0
 298 543 305 541 311 537 c 1
 317 541 325 543 333 543 c 0
 341 543 348 541 354 537 c 1
 360 541 368 543 376 543 c 0
 384 543 391 541 397 537 c 1
 403 541 410 543 418 543 c 0x10
 442 543 461 524 461 500 c 0
561 586 m 0x0804
 561 562 542 543 518 543 c 0
 510 543 503 545 497 549 c 1
 491 545 484 543 476 543 c 0
 452 543 433 562 433 586 c 0
 433 610 452 629 476 629 c 0
 484 629 491 627 497 623 c 1
 503 627 510 629 518 629 c 0
 542 629 561 610 561 586 c 0x0804
219 586 m 0x0840
 219 562 200 543 176 543 c 0x11
 168 543 160 545 154 549 c 1
 148 545 141 543 133 543 c 0
 109 543 90 562 90 586 c 0x0840
 90 610 109 629 133 629 c 0
 141 629 148 627 154 623 c 1
 160 627 168 629 176 629 c 0x09
 200 629 219 610 219 586 c 0x0840
576 671 m 0x0402
 576 647 557 629 533 629 c 0x0808
 525 629 517 630 511 634 c 1
 505 630 498 629 490 629 c 0
 466 629 447 647 447 671 c 0x0802
 447 695 466 714 490 714 c 0
 498 714 505 713 511 709 c 1
 517 713 525 714 533 714 c 0x0408
 557 714 576 695 576 671 c 0x0402
233 671 m 0x0420
 233 647 214 629 190 629 c 0x0880
 182 629 174 630 168 634 c 1
 162 630 155 629 147 629 c 0
 123 629 104 647 104 671 c 0x0820
 104 695 123 714 147 714 c 0
 155 714 162 713 168 709 c 1
 174 713 182 714 190 714 c 0x0480
 214 714 233 695 233 671 c 0x0420
504 757 m 0
 504 733 485 714 461 714 c 0x04
 453 714 446 716 440 720 c 1
 434 716 426 714 418 714 c 0
 410 714 403 716 397 720 c 1
 391 716 384 714 376 714 c 0
 368 714 360 716 354 720 c 1
 348 716 341 714 333 714 c 0
 325 714 317 716 311 720 c 1
 305 716 298 714 290 714 c 0
 282 714 274 716 268 720 c 1
 262 716 255 714 247 714 c 0
 223 714 204 733 204 757 c 0
 204 781 223 800 247 800 c 0
 255 800 262 798 268 794 c 1
 274 798 282 800 290 800 c 0
 298 800 305 798 311 794 c 1
 317 798 325 800 333 800 c 0
 341 800 348 798 354 794 c 1
 360 798 368 800 376 800 c 0
 384 800 391 798 397 794 c 1
 403 798 410 800 418 800 c 0
 426 800 434 798 440 794 c 1
 446 798 453 800 461 800 c 0x02
 485 800 504 781 504 757 c 0
EndSplineSet
EndChar

StartChar: semicolon
Encoding: 59 59 30
Width: 522
VWidth: 0
UnlinkRmOvrlpSave: 1
Flags: W
HStem: 200 86<52.6424 111.717 112.282 170.358> 286 85<152.642 211.717 212.282 270.358> 371 86<81.6424 139.718 140.283 182.718 183.283 225.718 226.282 284.358> 457 86<95.6424 154.717 155.282 196.718 197.283 239.718 240.283 299.358> 629 85<124.642 182.718 183.283 225.718 226.282 268.717 269.282 327.358> 714 86<138.642 196.718 197.283 239.718 240.283 282.718 283.283 342.358>
VStem: 47 129<206.167 279.833> 76 214<377.167 450.833> 90 215<463.167 536.833> 119 214<634.39 708.358> 133 215<720.167 793.833> 147 129<291.642 365.61>
LayerCount: 2
Back
Fore
SplineSet
176 243 m 0x82
 176 219 157 200 133 200 c 0x8020
 125 200 118 202 112 206 c 1
 106 202 98 200 90 200 c 0x8080
 66 200 47 219 47 243 c 0x82
 47 267 66 286 90 286 c 0x8080
 98 286 106 284 112 280 c 1
 118 284 125 286 133 286 c 0x8020
 157 286 176 267 176 243 c 0x82
276 329 m 0x4010
 276 305 257 286 233 286 c 0
 225 286 218 287 212 291 c 1
 206 287 198 286 190 286 c 0
 166 286 147 305 147 329 c 0
 147 353 166 371 190 371 c 0
 198 371 206 370 212 366 c 1
 218 370 225 371 233 371 c 0
 257 371 276 353 276 329 c 0x4010
290 414 m 0x21
 290 390 271 371 247 371 c 0
 239 371 232 373 226 377 c 1
 220 373 213 371 205 371 c 0
 197 371 189 373 183 377 c 1
 177 373 170 371 162 371 c 0x41
 154 371 146 373 140 377 c 1
 134 373 127 371 119 371 c 0x2040
 95 371 76 390 76 414 c 0x21
 76 438 95 457 119 457 c 0x2040
 127 457 134 455 140 451 c 1
 146 455 154 457 162 457 c 0
 170 457 177 455 183 451 c 1
 189 455 197 457 205 457 c 0
 213 457 220 455 226 451 c 1
 232 455 239 457 247 457 c 0
 271 457 290 438 290 414 c 0x21
305 500 m 0x1080
 305 476 286 457 262 457 c 0
 254 457 246 459 240 463 c 1
 234 459 227 457 219 457 c 0
 211 457 203 459 197 463 c 1
 191 459 184 457 176 457 c 0x22
 168 457 161 459 155 463 c 1
 149 459 141 457 133 457 c 0x2020
 109 457 90 476 90 500 c 0x2080
 90 524 109 543 133 543 c 0x1020
 141 543 149 541 155 537 c 1
 161 541 168 543 176 543 c 0x12
 184 543 191 541 197 537 c 1
 203 541 211 543 219 543 c 0
 227 543 234 541 240 537 c 1
 246 541 254 543 262 543 c 0
 286 543 305 524 305 500 c 0x1080
333 671 m 0x0840
 333 647 314 629 290 629 c 0x09
 282 629 275 630 269 634 c 1
 263 630 255 629 247 629 c 0
 239 629 232 630 226 634 c 1
 220 630 213 629 205 629 c 0
 197 629 189 630 183 634 c 1
 177 630 170 629 162 629 c 0
 138 629 119 647 119 671 c 0x0840
 119 695 138 714 162 714 c 0
 170 714 177 713 183 709 c 1
 189 713 197 714 205 714 c 0
 213 714 220 713 226 709 c 1
 232 713 239 714 247 714 c 0
 255 714 263 713 269 709 c 1
 275 713 282 714 290 714 c 0x09
 314 714 333 695 333 671 c 0x0840
348 757 m 0x0420
 348 733 329 714 305 714 c 0x0880
 297 714 289 716 283 720 c 1
 277 716 270 714 262 714 c 0
 254 714 246 716 240 720 c 1
 234 716 227 714 219 714 c 0
 211 714 203 716 197 720 c 1
 191 716 184 714 176 714 c 0x0a
 152 714 133 733 133 757 c 0x0820
 133 781 152 800 176 800 c 0x06
 184 800 191 798 197 794 c 1
 203 798 211 800 219 800 c 0
 227 800 234 798 240 794 c 1
 246 798 254 800 262 800 c 0
 270 800 277 798 283 794 c 1
 289 798 297 800 305 800 c 0x0480
 329 800 348 781 348 757 c 0x0420
EndSplineSet
EndChar

StartChar: colon
Encoding: 58 58 31
Width: 522
VWidth: 0
UnlinkRmOvrlpSave: 1
Flags: W
HStem: 286 85<52.6424 110.718 111.282 153.717 154.282 196.717 197.282 255.358> 371 86<66.6424 124.718 125.283 167.718 168.283 210.718 211.282 269.358> 543 86<95.39 153.717 154.282 196.717 197.282 239.717 240.282 298.358> 629 85<109.642 167.718 168.283 210.718 211.282 253.717 254.282 312.358>
VStem: 47 214<291.642 365.61> 61 214<377.167 450.833> 90 214<549.167 622.833> 104 214<634.39 708.358>
LayerCount: 2
Back
Fore
SplineSet
261 329 m 0x88
 261 305 242 286 218 286 c 0
 210 286 203 287 197 291 c 1
 191 287 183 286 175 286 c 0
 167 286 160 287 154 291 c 1
 148 287 140 286 132 286 c 0
 124 286 117 287 111 291 c 1
 105 287 98 286 90 286 c 0x82
 66 286 47 305 47 329 c 0x88
 47 353 66 371 90 371 c 0x82
 98 371 105 370 111 366 c 1
 117 370 124 371 132 371 c 0
 140 371 148 370 154 366 c 1
 160 370 167 371 175 371 c 0
 183 371 191 370 197 366 c 1
 203 370 210 371 218 371 c 0
 242 371 261 353 261 329 c 0x88
275 414 m 0x44
 275 390 256 371 232 371 c 0
 224 371 217 373 211 377 c 1
 205 373 198 371 190 371 c 0
 182 371 174 373 168 377 c 1
 162 373 155 371 147 371 c 0
 139 371 131 373 125 377 c 1
 119 373 112 371 104 371 c 0x81
 80 371 61 390 61 414 c 0x84
 61 438 80 457 104 457 c 0x41
 112 457 119 455 125 451 c 1
 131 455 139 457 147 457 c 0
 155 457 162 455 168 451 c 1
 174 455 182 457 190 457 c 0
 198 457 205 455 211 451 c 1
 217 455 224 457 232 457 c 0
 256 457 275 438 275 414 c 0x44
304 586 m 0x22
 304 562 285 543 261 543 c 0x28
 253 543 246 545 240 549 c 1
 234 545 226 543 218 543 c 0
 210 543 203 545 197 549 c 1
 191 545 183 543 175 543 c 0
 167 543 160 545 154 549 c 1
 148 545 140 543 132 543 c 0
 108 543 90 562 90 586 c 0x22
 90 610 108 629 132 629 c 0
 140 629 148 627 154 623 c 1
 160 627 167 629 175 629 c 0
 183 629 191 627 197 623 c 1
 203 627 210 629 218 629 c 0
 226 629 234 627 240 623 c 1
 246 627 253 629 261 629 c 0x28
 285 629 304 610 304 586 c 0x22
318 671 m 0x11
 318 647 299 629 275 629 c 0x24
 267 629 260 630 254 634 c 1
 248 630 240 629 232 629 c 0
 224 629 217 630 211 634 c 1
 205 630 198 629 190 629 c 0
 182 629 174 630 168 634 c 1
 162 630 155 629 147 629 c 0
 123 629 104 647 104 671 c 0x21
 104 695 123 714 147 714 c 0
 155 714 162 713 168 709 c 1
 174 713 182 714 190 714 c 0
 198 714 205 713 211 709 c 1
 217 713 224 714 232 714 c 0
 240 714 248 713 254 709 c 1
 260 713 267 714 275 714 c 0x14
 299 714 318 695 318 671 c 0x11
EndSplineSet
EndChar

StartChar: equal
Encoding: 61 61 32
Width: 522
VWidth: 0
UnlinkRmOvrlpSave: 1
Flags: W
HStem: 371 86<52.6424 111.717 112.282 153.718 154.283 196.718 197.283 239.718 240.283 282.718 283.282 325.717 326.282 368.717 369.282 411.717 412.282 453.718 454.283 513.358> 543 86<81.6424 139.718 140.283 182.718 183.282 225.717 226.282 268.717 269.282 311.717 312.282 353.718 354.283 396.718 397.283 439.718 440.283 482.718 483.282 541.358>
LayerCount: 2
Back
Fore
SplineSet
519 414 m 0
 519 390 500 371 476 371 c 0
 468 371 460 373 454 377 c 1
 448 373 441 371 433 371 c 0
 425 371 418 373 412 377 c 1
 406 373 398 371 390 371 c 0
 382 371 375 373 369 377 c 1
 363 373 355 371 347 371 c 0
 339 371 332 373 326 377 c 1
 320 373 312 371 304 371 c 0
 296 371 289 373 283 377 c 1
 277 373 270 371 262 371 c 0
 254 371 246 373 240 377 c 1
 234 373 227 371 219 371 c 0
 211 371 203 373 197 377 c 1
 191 373 184 371 176 371 c 0
 168 371 160 373 154 377 c 1
 148 373 141 371 133 371 c 0
 125 371 118 373 112 377 c 1
 106 373 98 371 90 371 c 0
 66 371 47 390 47 414 c 0
 47 438 66 457 90 457 c 0
 98 457 106 455 112 451 c 1
 118 455 125 457 133 457 c 0
 141 457 148 455 154 451 c 1
 160 455 168 457 176 457 c 0
 184 457 191 455 197 451 c 1
 203 455 211 457 219 457 c 0
 227 457 234 455 240 451 c 1
 246 455 254 457 262 457 c 0
 270 457 277 455 283 451 c 1
 289 455 296 457 304 457 c 0
 312 457 320 455 326 451 c 1
 332 455 339 457 347 457 c 0
 355 457 363 455 369 451 c 1
 375 455 382 457 390 457 c 0
 398 457 406 455 412 451 c 1
 418 455 425 457 433 457 c 0
 441 457 448 455 454 451 c 1
 460 455 468 457 476 457 c 0
 500 457 519 438 519 414 c 0
547 586 m 0
 547 562 528 543 504 543 c 0
 496 543 489 545 483 549 c 1
 477 545 470 543 462 543 c 0
 454 543 446 545 440 549 c 1
 434 545 427 543 419 543 c 0
 411 543 403 545 397 549 c 1
 391 545 384 543 376 543 c 0
 368 543 360 545 354 549 c 1
 348 545 341 543 333 543 c 0
 325 543 318 545 312 549 c 1
 306 545 298 543 290 543 c 0
 282 543 275 545 269 549 c 1
 263 545 255 543 247 543 c 0
 239 543 232 545 226 549 c 1
 220 545 212 543 204 543 c 0
 196 543 189 545 183 549 c 1
 177 545 170 543 162 543 c 0
 154 543 146 545 140 549 c 1
 134 545 127 543 119 543 c 0
 95 543 76 562 76 586 c 0
 76 610 95 629 119 629 c 0
 127 629 134 627 140 623 c 1
 146 627 154 629 162 629 c 0
 170 629 177 627 183 623 c 1
 189 627 196 629 204 629 c 0
 212 629 220 627 226 623 c 1
 232 627 239 629 247 629 c 0
 255 629 263 627 269 623 c 1
 275 627 282 629 290 629 c 0
 298 629 306 627 312 623 c 1
 318 627 325 629 333 629 c 0
 341 629 348 627 354 623 c 1
 360 627 368 629 376 629 c 0
 384 629 391 627 397 623 c 1
 403 627 411 629 419 629 c 0
 427 629 434 627 440 623 c 1
 446 627 454 629 462 629 c 0
 470 629 477 627 483 623 c 1
 489 627 496 629 504 629 c 0
 528 629 547 610 547 586 c 0
EndSplineSet
EndChar

StartChar: less
Encoding: 60 60 33
Width: 522
VWidth: 0
UnlinkRmOvrlpSave: 1
Flags: W
HStem: 200 86<267.39 325.717 326.282 384.358> 286 85<195.642 253.718 254.283 313.358> 371 86<124.642 182.718 183.282 241.358> 457 86<52.6424 111.717 112.282 170.358> 543 86<152.642 211.717 212.282 270.358> 629 85<252.642 311.717 312.282 370.358> 714 86<352.642 411.717 412.282 470.358>
VStem: 47 129<463.167 536.833> 119 128<377.167 450.833> 147 129<549.167 622.833> 190 129<291.642 365.61> 247 129<634.39 708.358> 262 128<206.167 279.833> 347 129<720.167 793.833>
LayerCount: 2
Back
Fore
SplineSet
390 243 m 0x8008
 390 219 371 200 347 200 c 0x8004
 339 200 332 202 326 206 c 1
 320 202 312 200 304 200 c 0
 280 200 262 219 262 243 c 0x8008
 262 267 280 286 304 286 c 0
 312 286 320 284 326 280 c 1
 332 284 339 286 347 286 c 0x8004
 371 286 390 267 390 243 c 0x8008
319 329 m 0x4020
 319 305 300 286 276 286 c 0x8040
 268 286 260 287 254 291 c 1
 248 287 241 286 233 286 c 0
 209 286 190 305 190 329 c 0x4020
 190 353 209 371 233 371 c 0
 241 371 248 370 254 366 c 1
 260 370 268 371 276 371 c 0x4040
 300 371 319 353 319 329 c 0x4020
247 414 m 0x2080
 247 390 228 371 204 371 c 0x4080
 196 371 189 373 183 377 c 1
 177 373 170 371 162 371 c 0
 138 371 119 390 119 414 c 0
 119 438 138 457 162 457 c 0
 170 457 177 455 183 451 c 1
 189 455 196 457 204 457 c 0
 228 457 247 438 247 414 c 0x2080
176 500 m 0x11
 176 476 157 457 133 457 c 0x21
 125 457 118 459 112 463 c 1
 106 459 98 457 90 457 c 0
 66 457 47 476 47 500 c 0
 47 524 66 543 90 543 c 0
 98 543 106 541 112 537 c 1
 118 541 125 543 133 543 c 0
 157 543 176 524 176 500 c 0x11
276 586 m 0x0840
 276 562 257 543 233 543 c 0
 225 543 218 545 212 549 c 1
 206 545 198 543 190 543 c 0x0820
 166 543 147 562 147 586 c 0x0840
 147 610 166 629 190 629 c 0x0820
 198 629 206 627 212 623 c 1
 218 627 225 629 233 629 c 0
 257 629 276 610 276 586 c 0x0840
376 671 m 0x0410
 376 647 357 629 333 629 c 0
 325 629 318 630 312 634 c 1
 306 630 298 629 290 629 c 0
 266 629 247 647 247 671 c 0
 247 695 266 714 290 714 c 0
 298 714 306 713 312 709 c 1
 318 713 325 714 333 714 c 0
 357 714 376 695 376 671 c 0x0410
476 757 m 0x0204
 476 733 457 714 433 714 c 0
 425 714 418 716 412 720 c 1
 406 716 398 714 390 714 c 0x0208
 366 714 347 733 347 757 c 0x0204
 347 781 366 800 390 800 c 0x0208
 398 800 406 798 412 794 c 1
 418 798 425 800 433 800 c 0
 457 800 476 781 476 757 c 0x0204
EndSplineSet
EndChar

StartChar: question
Encoding: 63 63 34
Width: 522
VWidth: 0
UnlinkRmOvrlpSave: 1
Flags: W
HStem: 200 86<152.642 210.718 211.283 270.358> 371 86<181.642 239.718 240.282 298.358> 457 86<195.642 253.718 254.283 313.358> 543 86<295.642 353.718 354.283 413.358> 629 85<52.6424 110.718 111.283 170.358 309.642 368.717 369.282 427.358> 714 86<152.642 210.718 211.283 253.718 254.283 296.718 297.283 356.358>
VStem: 47 129<634.39 708.358> 147 215<720.167 793.833> 147 129<206.167 279.833> 176 128<377.167 450.833> 190 129<463.167 536.833> 290 129<549.167 622.833> 304 129<634.39 708.358>
LayerCount: 2
Back
Fore
SplineSet
276 243 m 0x8080
 276 219 257 200 233 200 c 0
 225 200 217 202 211 206 c 1
 205 202 198 200 190 200 c 0x8020
 166 200 147 219 147 243 c 0x8080
 147 267 166 286 190 286 c 0x8020
 198 286 205 284 211 280 c 1
 217 284 225 286 233 286 c 0
 257 286 276 267 276 243 c 0x8080
304 414 m 0xc040
 304 390 285 371 261 371 c 0
 253 371 246 373 240 377 c 1
 234 373 227 371 219 371 c 0
 195 371 176 390 176 414 c 0
 176 438 195 457 219 457 c 0
 227 457 234 455 240 451 c 1
 246 455 253 457 261 457 c 0
 285 457 304 438 304 414 c 0xc040
319 500 m 0xa020
 319 476 300 457 276 457 c 0xc080
 268 457 260 459 254 463 c 1
 248 459 241 457 233 457 c 0
 209 457 190 476 190 500 c 0xc020
 190 524 209 543 233 543 c 0
 241 543 248 541 254 537 c 1
 260 541 268 543 276 543 c 0xa080
 300 543 319 524 319 500 c 0xa020
419 586 m 0x9010
 419 562 400 543 376 543 c 0
 368 543 360 545 354 549 c 1
 348 545 341 543 333 543 c 0
 309 543 290 562 290 586 c 0
 290 610 309 629 333 629 c 0
 341 629 348 627 354 623 c 1
 360 627 368 629 376 629 c 0
 400 629 419 610 419 586 c 0x9010
433 671 m 0x8808
 433 647 414 629 390 629 c 0
 382 629 375 630 369 634 c 1
 363 630 355 629 347 629 c 0x9008
 323 629 304 647 304 671 c 0
 304 695 323 714 347 714 c 0
 355 714 363 713 369 709 c 1
 375 713 382 714 390 714 c 0
 414 714 433 695 433 671 c 0x8808
176 671 m 0x8a
 176 647 157 629 133 629 c 0
 125 629 117 630 111 634 c 1
 105 630 98 629 90 629 c 0
 66 629 47 647 47 671 c 0
 47 695 66 714 90 714 c 0
 98 714 105 713 111 709 c 1
 117 713 125 714 133 714 c 0
 157 714 176 695 176 671 c 0x8a
362 757 m 0x85
 362 733 343 714 319 714 c 0x8820
 311 714 303 716 297 720 c 1
 291 716 284 714 276 714 c 0x8480
 268 714 260 716 254 720 c 1
 248 716 241 714 233 714 c 0
 225 714 217 716 211 720 c 1
 205 716 198 714 190 714 c 0x8420
 166 714 147 733 147 757 c 0x85
 147 781 166 800 190 800 c 0x8420
 198 800 205 798 211 794 c 1
 217 798 225 800 233 800 c 0
 241 800 248 798 254 794 c 1
 260 798 268 800 276 800 c 0x8480
 284 800 291 798 297 794 c 1
 303 798 311 800 319 800 c 0x8420
 343 800 362 781 362 757 c 0x85
EndSplineSet
EndChar

StartChar: greater
Encoding: 62 62 35
Width: 522
VWidth: 0
UnlinkRmOvrlpSave: 1
Flags: W
HStem: 200 86<52.6424 110.718 111.282 169.358> 286 85<152.642 210.718 211.282 269.358> 371 86<252.642 310.718 311.282 369.358> 457 86<352.642 410.718 411.282 469.358> 543 86<280.642 339.717 340.282 398.358> 629 85<209.642 267.718 268.283 327.358> 714 86<137.642 196.717 197.282 255.358>
VStem: 47 128<206.167 279.833> 132 129<720.167 793.833> 147 128<291.642 365.61> 204 129<634.39 708.358> 247 128<377.167 450.833> 275 129<549.167 622.833> 347 128<463.167 536.833>
LayerCount: 2
Back
Fore
SplineSet
175 243 m 0x81
 175 219 156 200 132 200 c 0x8080
 124 200 117 202 111 206 c 1
 105 202 98 200 90 200 c 0
 66 200 47 219 47 243 c 0x81
 47 267 66 286 90 286 c 0
 98 286 105 284 111 280 c 1
 117 284 124 286 132 286 c 0x8080
 156 286 175 267 175 243 c 0x81
275 329 m 0x4040
 275 305 256 286 232 286 c 0
 224 286 217 287 211 291 c 1
 205 287 198 286 190 286 c 0
 166 286 147 305 147 329 c 0
 147 353 166 371 190 371 c 0
 198 371 205 370 211 366 c 1
 217 370 224 371 232 371 c 0
 256 371 275 353 275 329 c 0x4040
375 414 m 0x2010
 375 390 356 371 332 371 c 0
 324 371 317 373 311 377 c 1
 305 373 298 371 290 371 c 0
 266 371 247 390 247 414 c 0
 247 438 266 457 290 457 c 0
 298 457 305 455 311 451 c 1
 317 455 324 457 332 457 c 0
 356 457 375 438 375 414 c 0x2010
475 500 m 0x1004
 475 476 456 457 432 457 c 0
 424 457 417 459 411 463 c 1
 405 459 398 457 390 457 c 0
 366 457 347 476 347 500 c 0
 347 524 366 543 390 543 c 0
 398 543 405 541 411 537 c 1
 417 541 424 543 432 543 c 0
 456 543 475 524 475 500 c 0x1004
404 586 m 0x0808
 404 562 385 543 361 543 c 0x1008
 353 543 346 545 340 549 c 1
 334 545 326 543 318 543 c 0
 294 543 275 562 275 586 c 0
 275 610 294 629 318 629 c 0
 326 629 334 627 340 623 c 1
 346 627 353 629 361 629 c 0
 385 629 404 610 404 586 c 0x0808
333 671 m 0x0420
 333 647 314 629 290 629 c 0x0820
 282 629 274 630 268 634 c 1
 262 630 255 629 247 629 c 0x0410
 223 629 204 647 204 671 c 0x0420
 204 695 223 714 247 714 c 0x0410
 255 714 262 713 268 709 c 1
 274 713 282 714 290 714 c 0
 314 714 333 695 333 671 c 0x0420
261 757 m 0x0280
 261 733 242 714 218 714 c 0x0480
 210 714 203 716 197 720 c 1
 191 716 183 714 175 714 c 0x03
 151 714 132 733 132 757 c 0x0280
 132 781 151 800 175 800 c 0x03
 183 800 191 798 197 794 c 1
 203 798 210 800 218 800 c 0
 242 800 261 781 261 757 c 0x0280
EndSplineSet
EndChar

StartChar: A
Encoding: 65 65 36
Width: 522
VWidth: 0
UnlinkRmOvrlpSave: 1
Flags: W
HStem: 200 86<52.6424 110.718 111.282 169.358 395.39 453.717 454.282 512.358> 286 85<66.6424 124.718 125.283 184.358 409.642 467.718 468.283 527.358> 371 86<80.6424 139.717 140.282 181.718 182.283 224.718 225.283 267.718 268.283 310.718 311.282 353.717 354.282 396.717 397.282 439.717 440.282 481.718 482.283 541.358> 457 86<95.39 153.717 154.282 212.358 437.642 496.717 497.282 555.358> 543 86<109.642 167.718 168.283 227.358 452.642 510.718 511.282 569.358> 629 85<209.642 267.718 268.283 327.358 380.642 439.717 440.282 498.358> 714 86<309.642 367.718 368.283 427.358>
VStem: 47 128<206.167 279.833> 61 129<291.642 365.61> 90 128<463.167 536.833> 104 129<549.167 622.833> 204 129<634.39 708.358> 304 129<720.167 793.833> 375 129<634.39 708.358> 390 128<206.167 279.833> 404 129<291.642 365.61> 432 129<463.167 536.833> 447 128<549.167 622.833>
LayerCount: 2
Back
Fore
SplineSet
518 243 m 0x8002
 518 219 499 200 475 200 c 0
 467 200 460 202 454 206 c 1
 448 202 440 200 432 200 c 0x800080
 408 200 390 219 390 243 c 0x8002
 390 267 408 286 432 286 c 0x800080
 440 286 448 284 454 280 c 1
 460 284 467 286 475 286 c 0
 499 286 518 267 518 243 c 0x8002
175 243 m 0x81
 175 219 156 200 132 200 c 0
 124 200 117 202 111 206 c 1
 105 202 98 200 90 200 c 0x8040
 66 200 47 219 47 243 c 0x81
 47 267 66 286 90 286 c 0x8040
 98 286 105 284 111 280 c 1
 117 284 124 286 132 286 c 0
 156 286 175 267 175 243 c 0x81
533 329 m 0x4001
 533 305 514 286 490 286 c 0
 482 286 474 287 468 291 c 1
 462 287 455 286 447 286 c 0x800040
 423 286 404 305 404 329 c 0x8001
 404 353 423 371 447 371 c 0x400040
 455 371 462 370 468 366 c 1
 474 370 482 371 490 371 c 0
 514 371 533 353 533 329 c 0x4001
190 329 m 0x4080
 190 305 171 286 147 286 c 0
 139 286 131 287 125 291 c 1
 119 287 112 286 104 286 c 0x8020
 80 286 61 305 61 329 c 0x8080
 61 353 80 371 104 371 c 0x4020
 112 371 119 370 125 366 c 1
 131 370 139 371 147 371 c 0
 171 371 190 353 190 329 c 0x4080
547 414 m 0
 547 390 528 371 504 371 c 0
 496 371 488 373 482 377 c 1
 476 373 469 371 461 371 c 0
 453 371 446 373 440 377 c 1
 434 373 426 371 418 371 c 0x4014
 410 371 403 373 397 377 c 1
 391 373 383 371 375 371 c 0
 367 371 360 373 354 377 c 1
 348 373 340 371 332 371 c 0
 324 371 317 373 311 377 c 1
 305 373 298 371 290 371 c 0
 282 371 274 373 268 377 c 1
 262 373 255 371 247 371 c 0
 239 371 231 373 225 377 c 1
 219 373 212 371 204 371 c 0x2014
 196 371 188 373 182 377 c 1
 176 373 169 371 161 371 c 0
 153 371 146 373 140 377 c 1
 134 373 126 371 118 371 c 0x4014
 94 371 75 390 75 414 c 0
 75 438 94 457 118 457 c 0
 126 457 134 455 140 451 c 1
 146 455 153 457 161 457 c 0
 169 457 176 455 182 451 c 1
 188 455 196 457 204 457 c 0
 212 457 219 455 225 451 c 1
 231 455 239 457 247 457 c 0
 255 457 262 455 268 451 c 1
 274 455 282 457 290 457 c 0
 298 457 305 455 311 451 c 1
 317 455 324 457 332 457 c 0
 340 457 348 455 354 451 c 1
 360 455 367 457 375 457 c 0
 383 457 391 455 397 451 c 1
 403 455 410 457 418 457 c 0
 426 457 434 455 440 451 c 1
 446 455 453 457 461 457 c 0
 469 457 476 455 482 451 c 1
 488 455 496 457 504 457 c 0x2014
 528 457 547 438 547 414 c 0
561 500 m 0x100080
 561 476 542 457 518 457 c 0x2002
 510 457 503 459 497 463 c 1
 491 459 483 457 475 457 c 0
 451 457 432 476 432 500 c 0x200080
 432 524 451 543 475 543 c 0
 483 543 491 541 497 537 c 1
 503 541 510 543 518 543 c 0x1002
 542 543 561 524 561 500 c 0x100080
218 500 m 0x1040
 218 476 199 457 175 457 c 0x21
 167 457 160 459 154 463 c 1
 148 459 140 457 132 457 c 0
 108 457 90 476 90 500 c 0x2040
 90 524 108 543 132 543 c 0
 140 543 148 541 154 537 c 1
 160 541 167 543 175 543 c 0x11
 199 543 218 524 218 500 c 0x1040
575 586 m 0x080040
 575 562 556 543 532 543 c 0
 524 543 517 545 511 549 c 1
 505 545 498 543 490 543 c 0x100040
 466 543 447 562 447 586 c 0
 447 610 466 629 490 629 c 0
 498 629 505 627 511 623 c 1
 517 627 524 629 532 629 c 0
 556 629 575 610 575 586 c 0x080040
233 586 m 0x0820
 233 562 214 543 190 543 c 0x1080
 182 543 174 545 168 549 c 1
 162 545 155 543 147 543 c 0
 123 543 104 562 104 586 c 0x1020
 104 610 123 629 147 629 c 0
 155 629 162 627 168 623 c 1
 174 627 182 629 190 629 c 0x0880
 214 629 233 610 233 586 c 0x0820
504 671 m 0x0404
 504 647 485 629 461 629 c 0x0804
 453 629 446 630 440 634 c 1
 434 630 426 629 418 629 c 0
 394 629 375 647 375 671 c 0
 375 695 394 714 418 714 c 0
 426 714 434 713 440 709 c 1
 446 713 453 714 461 714 c 0
 485 714 504 695 504 671 c 0x0404
333 671 m 0x0410
 333 647 314 629 290 629 c 0
 282 629 274 630 268 634 c 1
 262 630 255 629 247 629 c 0
 223 629 204 647 204 671 c 0
 204 695 223 714 247 714 c 0
 255 714 262 713 268 709 c 1
 274 713 282 714 290 714 c 0
 314 714 333 695 333 671 c 0x0410
433 757 m 0x0208
 433 733 414 714 390 714 c 0x0402
 382 714 374 716 368 720 c 1
 362 716 355 714 347 714 c 0
 323 714 304 733 304 757 c 0x0208
 304 781 323 800 347 800 c 0
 355 800 362 798 368 794 c 1
 374 798 382 800 390 800 c 0x0202
 414 800 433 781 433 757 c 0x0208
EndSplineSet
EndChar

StartChar: at
Encoding: 64 64 37
Width: 522
VWidth: 0
UnlinkRmOvrlpSave: 1
Flags: W
HStem: 200 86<123.642 182.717 183.282 225.717 226.282 267.718 268.283 310.718 311.283 353.718 354.283 413.358> 286 85<52.6424 110.718 111.283 170.358 223.642 282.717 283.282 341.358 395.642 453.718 454.283 513.358> 371 86<66.6424 125.717 126.282 184.358 238.642 296.718 297.282 355.358 409.642 467.718 468.283 527.358> 457 86<166.642 225.717 226.282 267.718 268.283 310.718 311.283 370.358 423.642 482.717 483.282 541.358> 543 86<438.642 496.718 497.282 555.358> 629 85<109.642 167.718 168.283 227.358 452.642 510.718 511.283 570.358> 714 86<209.642 267.718 268.283 310.718 311.283 353.718 354.283 396.718 397.282 439.717 440.282 498.358>
VStem: 47 129<291.642 365.61> 61 129<377.167 450.833> 104 129<634.39 708.358> 161 215<463.167 536.833> 218 129<291.642 365.61> 233 128<377.167 450.833> 390 129<291.642 365.61> 404 129<377.167 450.833> 418 129<463.167 536.833> 433 128<549.167 622.833> 447 129<634.39 708.358>
LayerCount: 2
Back
Fore
SplineSet
419 243 m 0x8020
 419 219 400 200 376 200 c 0
 368 200 360 202 354 206 c 1
 348 202 341 200 333 200 c 0
 325 200 317 202 311 206 c 1
 305 202 298 200 290 200 c 0
 282 200 274 202 268 206 c 1
 262 202 255 200 247 200 c 0
 239 200 232 202 226 206 c 1
 220 202 212 200 204 200 c 0
 196 200 189 202 183 206 c 1
 177 202 169 200 161 200 c 0
 137 200 118 219 118 243 c 0
 118 267 137 286 161 286 c 0
 169 286 177 284 183 280 c 1
 189 284 196 286 204 286 c 0
 212 286 220 284 226 280 c 1
 232 284 239 286 247 286 c 0
 255 286 262 284 268 280 c 1
 274 284 282 286 290 286 c 0
 298 286 305 284 311 280 c 1
 317 284 325 286 333 286 c 0
 341 286 348 284 354 280 c 1
 360 284 368 286 376 286 c 0
 400 286 419 267 419 243 c 0x8020
519 329 m 0x4004
 519 305 500 286 476 286 c 0
 468 286 460 287 454 291 c 1
 448 287 441 286 433 286 c 0x400080
 409 286 390 305 390 329 c 0x4004
 390 353 409 371 433 371 c 0x400080
 441 371 448 370 454 366 c 1
 460 370 468 371 476 371 c 0
 500 371 519 353 519 329 c 0x4004
347 329 m 0x4010
 347 305 328 286 304 286 c 0
 296 286 289 287 283 291 c 1
 277 287 269 286 261 286 c 0x8010
 237 286 218 305 218 329 c 0
 218 353 237 371 261 371 c 0
 269 371 277 370 283 366 c 1
 289 370 296 371 304 371 c 0
 328 371 347 353 347 329 c 0x4010
176 329 m 0x41
 176 305 157 286 133 286 c 0x81
 125 286 117 287 111 291 c 1
 105 287 98 286 90 286 c 0
 66 286 47 305 47 329 c 0
 47 353 66 371 90 371 c 0
 98 371 105 370 111 366 c 1
 117 370 125 371 133 371 c 0
 157 371 176 353 176 329 c 0x41
533 414 m 0x2002
 533 390 514 371 490 371 c 0
 482 371 474 373 468 377 c 1
 462 373 455 371 447 371 c 0x400040
 423 371 404 390 404 414 c 0x4002
 404 438 423 457 447 457 c 0x200040
 455 457 462 455 468 451 c 1
 474 455 482 457 490 457 c 0
 514 457 533 438 533 414 c 0x2002
361 414 m 0x2008
 361 390 342 371 318 371 c 0
 310 371 303 373 297 377 c 1
 291 373 284 371 276 371 c 0x4008
 252 371 233 390 233 414 c 0
 233 438 252 457 276 457 c 0
 284 457 291 455 297 451 c 1
 303 455 310 457 318 457 c 0
 342 457 361 438 361 414 c 0x2008
190 414 m 0x2080
 190 390 171 371 147 371 c 0
 139 371 132 373 126 377 c 1
 120 373 112 371 104 371 c 0x4040
 80 371 61 390 61 414 c 0x4080
 61 438 80 457 104 457 c 0x2040
 112 457 120 455 126 451 c 1
 132 455 139 457 147 457 c 0
 171 457 190 438 190 414 c 0x2080
547 500 m 0x1001
 547 476 528 457 504 457 c 0
 496 457 489 459 483 463 c 1
 477 459 469 457 461 457 c 0x2001
 437 457 418 476 418 500 c 0
 418 524 437 543 461 543 c 0
 469 543 477 541 483 537 c 1
 489 541 496 543 504 543 c 0
 528 543 547 524 547 500 c 0x1001
376 500 m 0x1020
 376 476 357 457 333 457 c 0
 325 457 317 459 311 463 c 1
 305 459 298 457 290 457 c 0
 282 457 274 459 268 463 c 1
 262 459 255 457 247 457 c 0x2020
 239 457 232 459 226 463 c 1
 220 459 212 457 204 457 c 0
 180 457 161 476 161 500 c 0
 161 524 180 543 204 543 c 0
 212 543 220 541 226 537 c 1
 232 541 239 543 247 543 c 0
 255 543 262 541 268 537 c 1
 274 541 282 543 290 543 c 0
 298 543 305 541 311 537 c 1
 317 541 325 543 333 543 c 0
 357 543 376 524 376 500 c 0x1020
561 586 m 0x080080
 561 562 542 543 518 543 c 0
 510 543 503 545 497 549 c 1
 491 545 484 543 476 543 c 0x100080
 452 543 433 562 433 586 c 0
 433 610 452 629 476 629 c 0
 484 629 491 627 497 623 c 1
 503 627 510 629 518 629 c 0
 542 629 561 610 561 586 c 0x080080
576 671 m 0x040040
 576 647 557 629 533 629 c 0x0802
 525 629 517 630 511 634 c 1
 505 630 498 629 490 629 c 0
 466 629 447 647 447 671 c 0x080040
 447 695 466 714 490 714 c 0
 498 714 505 713 511 709 c 1
 517 713 525 714 533 714 c 0x0402
 557 714 576 695 576 671 c 0x040040
233 671 m 0x0440
 233 647 214 629 190 629 c 0x0480
 182 629 174 630 168 634 c 1
 162 630 155 629 147 629 c 0
 123 629 104 647 104 671 c 0x0440
 104 695 123 714 147 714 c 0
 155 714 162 713 168 709 c 1
 174 713 182 714 190 714 c 0x0480
 214 714 233 695 233 671 c 0x0440
504 757 m 0
 504 733 485 714 461 714 c 0x0421
 453 714 446 716 440 720 c 1
 434 716 426 714 418 714 c 0
 410 714 403 716 397 720 c 1
 391 716 384 714 376 714 c 0
 368 714 360 716 354 720 c 1
 348 716 341 714 333 714 c 0
 325 714 317 716 311 720 c 1
 305 716 298 714 290 714 c 0
 282 714 274 716 268 720 c 1
 262 716 255 714 247 714 c 0
 223 714 204 733 204 757 c 0
 204 781 223 800 247 800 c 0
 255 800 262 798 268 794 c 1
 274 798 282 800 290 800 c 0
 298 800 305 798 311 794 c 1
 317 798 325 800 333 800 c 0
 341 800 348 798 354 794 c 1
 360 798 368 800 376 800 c 0
 384 800 391 798 397 794 c 1
 403 798 410 800 418 800 c 0
 426 800 434 798 440 794 c 1
 446 798 453 800 461 800 c 0x0221
 485 800 504 781 504 757 c 0
EndSplineSet
EndChar

StartChar: C
Encoding: 67 67 38
Width: 522
VWidth: 0
UnlinkRmOvrlpSave: 1
Flags: W
HStem: 200 86<123.642 182.717 183.282 225.717 226.282 267.718 268.283 310.718 311.283 353.718 354.283 413.358> 286 85<52.6424 110.718 111.283 170.358 395.642 453.718 454.283 513.358> 371 86<66.6424 125.717 126.282 184.358> 457 86<81.39 139.717 140.282 198.358> 543 86<95.6424 153.718 154.283 213.358> 629 85<109.642 167.718 168.283 227.358 452.642 510.718 511.283 570.358> 714 86<209.642 267.718 268.283 310.718 311.283 353.718 354.283 396.718 397.282 439.717 440.282 498.358>
VStem: 47 129<291.642 365.61> 61 129<377.167 450.833> 76 128<463.167 536.833> 90 129<549.167 622.833> 104 129<634.39 708.358> 390 129<291.642 365.61> 447 129<634.39 708.358>
LayerCount: 2
Back
Fore
SplineSet
419 243 m 0x8040
 419 219 400 200 376 200 c 0
 368 200 360 202 354 206 c 1
 348 202 341 200 333 200 c 0
 325 200 317 202 311 206 c 1
 305 202 298 200 290 200 c 0
 282 200 274 202 268 206 c 1
 262 202 255 200 247 200 c 0
 239 200 232 202 226 206 c 1
 220 202 212 200 204 200 c 0
 196 200 189 202 183 206 c 1
 177 202 169 200 161 200 c 0
 137 200 118 219 118 243 c 0
 118 267 137 286 161 286 c 0
 169 286 177 284 183 280 c 1
 189 284 196 286 204 286 c 0
 212 286 220 284 226 280 c 1
 232 284 239 286 247 286 c 0
 255 286 262 284 268 280 c 1
 274 284 282 286 290 286 c 0
 298 286 305 284 311 280 c 1
 317 284 325 286 333 286 c 0
 341 286 348 284 354 280 c 1
 360 284 368 286 376 286 c 0
 400 286 419 267 419 243 c 0x8040
519 329 m 0x4008
 519 305 500 286 476 286 c 0
 468 286 460 287 454 291 c 1
 448 287 441 286 433 286 c 0
 409 286 390 305 390 329 c 0
 390 353 409 371 433 371 c 0
 441 371 448 370 454 366 c 1
 460 370 468 371 476 371 c 0
 500 371 519 353 519 329 c 0x4008
176 329 m 0x41
 176 305 157 286 133 286 c 0x81
 125 286 117 287 111 291 c 1
 105 287 98 286 90 286 c 0x4020
 66 286 47 305 47 329 c 0x41
 47 353 66 371 90 371 c 0x4020
 98 371 105 370 111 366 c 1
 117 370 125 371 133 371 c 0
 157 371 176 353 176 329 c 0x41
190 414 m 0x2080
 190 390 171 371 147 371 c 0
 139 371 132 373 126 377 c 1
 120 373 112 371 104 371 c 0x4010
 80 371 61 390 61 414 c 0x4080
 61 438 80 457 104 457 c 0x2010
 112 457 120 455 126 451 c 1
 132 455 139 457 147 457 c 0
 171 457 190 438 190 414 c 0x2080
204 500 m 0x1040
 204 476 185 457 161 457 c 0
 153 457 146 459 140 463 c 1
 134 459 126 457 118 457 c 0x2040
 94 457 76 476 76 500 c 0
 76 524 94 543 118 543 c 0
 126 543 134 541 140 537 c 1
 146 541 153 543 161 543 c 0
 185 543 204 524 204 500 c 0x1040
219 586 m 0x0820
 219 562 200 543 176 543 c 0x11
 168 543 160 545 154 549 c 1
 148 545 141 543 133 543 c 0
 109 543 90 562 90 586 c 0x1020
 90 610 109 629 133 629 c 0
 141 629 148 627 154 623 c 1
 160 627 168 629 176 629 c 0x09
 200 629 219 610 219 586 c 0x0820
576 671 m 0x0404
 576 647 557 629 533 629 c 0
 525 629 517 630 511 634 c 1
 505 630 498 629 490 629 c 0
 466 629 447 647 447 671 c 0
 447 695 466 714 490 714 c 0
 498 714 505 713 511 709 c 1
 517 713 525 714 533 714 c 0
 557 714 576 695 576 671 c 0x0404
233 671 m 0x0410
 233 647 214 629 190 629 c 0x0880
 182 629 174 630 168 634 c 1
 162 630 155 629 147 629 c 0
 123 629 104 647 104 671 c 0x0810
 104 695 123 714 147 714 c 0
 155 714 162 713 168 709 c 1
 174 713 182 714 190 714 c 0x0480
 214 714 233 695 233 671 c 0x0410
504 757 m 0
 504 733 485 714 461 714 c 0x0440
 453 714 446 716 440 720 c 1
 434 716 426 714 418 714 c 0
 410 714 403 716 397 720 c 1
 391 716 384 714 376 714 c 0
 368 714 360 716 354 720 c 1
 348 716 341 714 333 714 c 0
 325 714 317 716 311 720 c 1
 305 716 298 714 290 714 c 0
 282 714 274 716 268 720 c 1
 262 716 255 714 247 714 c 0
 223 714 204 733 204 757 c 0
 204 781 223 800 247 800 c 0
 255 800 262 798 268 794 c 1
 274 798 282 800 290 800 c 0
 298 800 305 798 311 794 c 1
 317 798 325 800 333 800 c 0
 341 800 348 798 354 794 c 1
 360 798 368 800 376 800 c 0
 384 800 391 798 397 794 c 1
 403 798 410 800 418 800 c 0
 426 800 434 798 440 794 c 1
 446 798 453 800 461 800 c 0x0240
 485 800 504 781 504 757 c 0
EndSplineSet
EndChar

StartChar: B
Encoding: 66 66 39
Width: 522
VWidth: 0
UnlinkRmOvrlpSave: 1
Flags: W
HStem: 200 86<52.6424 110.718 111.282 153.717 154.282 196.717 197.282 239.717 240.282 281.718 282.283 324.718 325.283 367.718 368.283 427.358> 286 85<152.642 210.718 211.282 269.358 409.642 467.718 468.283 527.358> 371 86<166.642 224.718 225.283 284.358 423.642 481.718 482.283 541.358> 457 86<180.642 239.717 240.282 281.718 282.283 324.718 325.283 367.718 368.283 410.718 411.282 469.358> 543 86<195.39 253.717 254.282 312.358 452.642 510.718 511.282 569.358> 629 85<209.642 267.718 268.283 327.358 466.642 524.718 525.283 584.358> 714 86<137.642 196.717 197.282 239.717 240.282 281.718 282.283 324.718 325.283 367.718 368.283 410.718 411.282 453.717 454.282 512.358>
VStem: 147 128<291.642 365.61> 161 129<377.167 450.833> 190 128<549.167 622.833> 204 129<634.39 708.358> 404 129<291.642 365.61> 418 129<377.167 450.833> 447 128<549.167 622.833> 461 129<634.39 708.358>
LayerCount: 2
Back
Fore
SplineSet
433 243 m 0x80
 433 219 414 200 390 200 c 0
 382 200 374 202 368 206 c 1
 362 202 355 200 347 200 c 0
 339 200 331 202 325 206 c 1
 319 202 312 200 304 200 c 0
 296 200 288 202 282 206 c 1
 276 202 269 200 261 200 c 0
 253 200 246 202 240 206 c 1
 234 202 226 200 218 200 c 0
 210 200 203 202 197 206 c 1
 191 202 183 200 175 200 c 0
 167 200 160 202 154 206 c 1
 148 202 140 200 132 200 c 0
 124 200 117 202 111 206 c 1
 105 202 98 200 90 200 c 0
 66 200 47 219 47 243 c 0
 47 267 66 286 90 286 c 0
 98 286 105 284 111 280 c 1
 117 284 124 286 132 286 c 0
 140 286 148 284 154 280 c 1
 160 284 167 286 175 286 c 0
 183 286 191 284 197 280 c 1
 203 284 210 286 218 286 c 0
 226 286 234 284 240 280 c 1
 246 284 253 286 261 286 c 0
 269 286 276 284 282 280 c 1
 288 284 296 286 304 286 c 0
 312 286 319 284 325 280 c 1
 331 284 339 286 347 286 c 0
 355 286 362 284 368 280 c 1
 374 284 382 286 390 286 c 0
 414 286 433 267 433 243 c 0x80
533 329 m 0x4010
 533 305 514 286 490 286 c 0
 482 286 474 287 468 291 c 1
 462 287 455 286 447 286 c 0x4004
 423 286 404 305 404 329 c 0x4010
 404 353 423 371 447 371 c 0x4004
 455 371 462 370 468 366 c 1
 474 370 482 371 490 371 c 0
 514 371 533 353 533 329 c 0x4010
275 329 m 0x41
 275 305 256 286 232 286 c 0
 224 286 217 287 211 291 c 1
 205 287 198 286 190 286 c 0x8040
 166 286 147 305 147 329 c 0x81
 147 353 166 371 190 371 c 0x4040
 198 371 205 370 211 366 c 1
 217 370 224 371 232 371 c 0
 256 371 275 353 275 329 c 0x41
547 414 m 0x2008
 547 390 528 371 504 371 c 0
 496 371 488 373 482 377 c 1
 476 373 469 371 461 371 c 0x4002
 437 371 418 390 418 414 c 0x4008
 418 438 437 457 461 457 c 0x2002
 469 457 476 455 482 451 c 1
 488 455 496 457 504 457 c 0
 528 457 547 438 547 414 c 0x2008
290 414 m 0x2080
 290 390 271 371 247 371 c 0
 239 371 231 373 225 377 c 1
 219 373 212 371 204 371 c 0x4020
 180 371 161 390 161 414 c 0x4080
 161 438 180 457 204 457 c 0x2020
 212 457 219 455 225 451 c 1
 231 455 239 457 247 457 c 0
 271 457 290 438 290 414 c 0x2080
475 500 m 0
 475 476 456 457 432 457 c 0x20
 424 457 417 459 411 463 c 1
 405 459 398 457 390 457 c 0
 382 457 374 459 368 463 c 1
 362 459 355 457 347 457 c 0
 339 457 331 459 325 463 c 1
 319 459 312 457 304 457 c 0x10
 296 457 288 459 282 463 c 1
 276 459 269 457 261 457 c 0
 253 457 246 459 240 463 c 1
 234 459 226 457 218 457 c 0x20
 194 457 175 476 175 500 c 0
 175 524 194 543 218 543 c 0
 226 543 234 541 240 537 c 1
 246 541 253 543 261 543 c 0
 269 543 276 541 282 537 c 1
 288 541 296 543 304 543 c 0
 312 543 319 541 325 537 c 1
 331 541 339 543 347 543 c 0
 355 543 362 541 368 537 c 1
 374 541 382 543 390 543 c 0
 398 543 405 541 411 537 c 1
 417 541 424 543 432 543 c 0x10
 456 543 475 524 475 500 c 0
575 586 m 0x0804
 575 562 556 543 532 543 c 0
 524 543 517 545 511 549 c 1
 505 545 498 543 490 543 c 0
 466 543 447 562 447 586 c 0
 447 610 466 629 490 629 c 0
 498 629 505 627 511 623 c 1
 517 627 524 629 532 629 c 0
 556 629 575 610 575 586 c 0x0804
318 586 m 0x0840
 318 562 299 543 275 543 c 0x11
 267 543 260 545 254 549 c 1
 248 545 240 543 232 543 c 0
 208 543 190 562 190 586 c 0x1040
 190 610 208 629 232 629 c 0
 240 629 248 627 254 623 c 1
 260 627 267 629 275 629 c 0x09
 299 629 318 610 318 586 c 0x0840
590 671 m 0x0402
 590 647 571 629 547 629 c 0x0808
 539 629 531 630 525 634 c 1
 519 630 512 629 504 629 c 0
 480 629 461 647 461 671 c 0x0802
 461 695 480 714 504 714 c 0
 512 714 519 713 525 709 c 1
 531 713 539 714 547 714 c 0x0408
 571 714 590 695 590 671 c 0x0402
333 671 m 0x0420
 333 647 314 629 290 629 c 0x0880
 282 629 274 630 268 634 c 1
 262 630 255 629 247 629 c 0
 223 629 204 647 204 671 c 0x0820
 204 695 223 714 247 714 c 0
 255 714 262 713 268 709 c 1
 274 713 282 714 290 714 c 0x0480
 314 714 333 695 333 671 c 0x0420
518 757 m 0
 518 733 499 714 475 714 c 0x04
 467 714 460 716 454 720 c 1
 448 716 440 714 432 714 c 0
 424 714 417 716 411 720 c 1
 405 716 398 714 390 714 c 0
 382 714 374 716 368 720 c 1
 362 716 355 714 347 714 c 0x02
 339 714 331 716 325 720 c 1
 319 716 312 714 304 714 c 0
 296 714 288 716 282 720 c 1
 276 716 269 714 261 714 c 0
 253 714 246 716 240 720 c 1
 234 716 226 714 218 714 c 0x04
 210 714 203 716 197 720 c 1
 191 716 183 714 175 714 c 0
 151 714 132 733 132 757 c 0
 132 781 151 800 175 800 c 0
 183 800 191 798 197 794 c 1
 203 798 210 800 218 800 c 0
 226 800 234 798 240 794 c 1
 246 798 253 800 261 800 c 0
 269 800 276 798 282 794 c 1
 288 798 296 800 304 800 c 0
 312 800 319 798 325 794 c 1
 331 798 339 800 347 800 c 0
 355 800 362 798 368 794 c 1
 374 798 382 800 390 800 c 0
 398 800 405 798 411 794 c 1
 417 798 424 800 432 800 c 0
 440 800 448 798 454 794 c 1
 460 798 467 800 475 800 c 0x02
 499 800 518 781 518 757 c 0
EndSplineSet
EndChar

StartChar: E
Encoding: 69 69 40
Width: 522
VWidth: 0
UnlinkRmOvrlpSave: 1
Flags: W
HStem: 200 86<52.6424 110.718 111.282 153.717 154.282 196.717 197.282 239.717 240.282 281.718 282.283 324.718 325.283 367.718 368.283 410.718 411.282 453.717 454.282 512.358> 286 85<66.6424 124.718 125.283 184.358> 371 86<80.6424 139.717 140.282 198.358> 457 86<95.39 153.717 154.282 196.717 197.282 239.717 240.282 281.718 282.283 324.718 325.283 384.358> 543 86<109.642 167.718 168.283 227.358> 629 85<123.642 181.718 182.283 241.358> 714 86<137.642 196.717 197.282 239.717 240.282 281.718 282.283 324.718 325.283 367.718 368.283 410.718 411.282 453.717 454.282 496.717 497.282 539.717 540.282 598.358>
VStem: 61 129<291.642 365.61> 75 129<377.167 450.833> 104 129<549.167 622.833> 118 129<634.39 708.358>
LayerCount: 2
Back
Fore
SplineSet
518 243 m 0x80
 518 219 499 200 475 200 c 0
 467 200 460 202 454 206 c 1
 448 202 440 200 432 200 c 0
 424 200 417 202 411 206 c 1
 405 202 398 200 390 200 c 0
 382 200 374 202 368 206 c 1
 362 202 355 200 347 200 c 0
 339 200 331 202 325 206 c 1
 319 202 312 200 304 200 c 0
 296 200 288 202 282 206 c 1
 276 202 269 200 261 200 c 0
 253 200 246 202 240 206 c 1
 234 202 226 200 218 200 c 0
 210 200 203 202 197 206 c 1
 191 202 183 200 175 200 c 0
 167 200 160 202 154 206 c 1
 148 202 140 200 132 200 c 0
 124 200 117 202 111 206 c 1
 105 202 98 200 90 200 c 0
 66 200 47 219 47 243 c 0
 47 267 66 286 90 286 c 0
 98 286 105 284 111 280 c 1
 117 284 124 286 132 286 c 0
 140 286 148 284 154 280 c 1
 160 284 167 286 175 286 c 0
 183 286 191 284 197 280 c 1
 203 284 210 286 218 286 c 0
 226 286 234 284 240 280 c 1
 246 284 253 286 261 286 c 0
 269 286 276 284 282 280 c 1
 288 284 296 286 304 286 c 0
 312 286 319 284 325 280 c 1
 331 284 339 286 347 286 c 0
 355 286 362 284 368 280 c 1
 374 284 382 286 390 286 c 0
 398 286 405 284 411 280 c 1
 417 284 424 286 432 286 c 0
 440 286 448 284 454 280 c 1
 460 284 467 286 475 286 c 0
 499 286 518 267 518 243 c 0x80
190 329 m 0x41
 190 305 171 286 147 286 c 0
 139 286 131 287 125 291 c 1
 119 287 112 286 104 286 c 0x8040
 80 286 61 305 61 329 c 0x81
 61 353 80 371 104 371 c 0x4040
 112 371 119 370 125 366 c 1
 131 370 139 371 147 371 c 0
 171 371 190 353 190 329 c 0x41
204 414 m 0x2080
 204 390 185 371 161 371 c 0
 153 371 146 373 140 377 c 1
 134 373 126 371 118 371 c 0x4020
 94 371 75 390 75 414 c 0x4080
 75 438 94 457 118 457 c 0x2020
 126 457 134 455 140 451 c 1
 146 455 153 457 161 457 c 0
 185 457 204 438 204 414 c 0x2080
390 500 m 0
 390 476 371 457 347 457 c 0
 339 457 331 459 325 463 c 1
 319 459 312 457 304 457 c 0
 296 457 288 459 282 463 c 1
 276 459 269 457 261 457 c 0
 253 457 246 459 240 463 c 1
 234 459 226 457 218 457 c 0x10
 210 457 203 459 197 463 c 1
 191 459 183 457 175 457 c 0
 167 457 160 459 154 463 c 1
 148 459 140 457 132 457 c 0x20
 108 457 90 476 90 500 c 0
 90 524 108 543 132 543 c 0
 140 543 148 541 154 537 c 1
 160 541 167 543 175 543 c 0
 183 543 191 541 197 537 c 1
 203 541 210 543 218 543 c 0
 226 543 234 541 240 537 c 1
 246 541 253 543 261 543 c 0
 269 543 276 541 282 537 c 1
 288 541 296 543 304 543 c 0
 312 543 319 541 325 537 c 1
 331 541 339 543 347 543 c 0x10
 371 543 390 524 390 500 c 0
233 586 m 0x0840
 233 562 214 543 190 543 c 0x11
 182 543 174 545 168 549 c 1
 162 545 155 543 147 543 c 0
 123 543 104 562 104 586 c 0x1040
 104 610 123 629 147 629 c 0
 155 629 162 627 168 623 c 1
 174 627 182 629 190 629 c 0x09
 214 629 233 610 233 586 c 0x0840
247 671 m 0x0420
 247 647 228 629 204 629 c 0x0880
 196 629 188 630 182 634 c 1
 176 630 169 629 161 629 c 0
 137 629 118 647 118 671 c 0x0820
 118 695 137 714 161 714 c 0
 169 714 176 713 182 709 c 1
 188 713 196 714 204 714 c 0x0480
 228 714 247 695 247 671 c 0x0420
604 757 m 0
 604 733 585 714 561 714 c 0
 553 714 546 716 540 720 c 1
 534 716 526 714 518 714 c 0
 510 714 503 716 497 720 c 1
 491 716 483 714 475 714 c 0
 467 714 460 716 454 720 c 1
 448 716 440 714 432 714 c 0
 424 714 417 716 411 720 c 1
 405 716 398 714 390 714 c 0
 382 714 374 716 368 720 c 1
 362 716 355 714 347 714 c 0
 339 714 331 716 325 720 c 1
 319 716 312 714 304 714 c 0
 296 714 288 716 282 720 c 1
 276 716 269 714 261 714 c 0x02
 253 714 246 716 240 720 c 1
 234 716 226 714 218 714 c 0
 210 714 203 716 197 720 c 1
 191 716 183 714 175 714 c 0x04
 151 714 132 733 132 757 c 0
 132 781 151 800 175 800 c 0
 183 800 191 798 197 794 c 1
 203 798 210 800 218 800 c 0
 226 800 234 798 240 794 c 1
 246 798 253 800 261 800 c 0
 269 800 276 798 282 794 c 1
 288 798 296 800 304 800 c 0
 312 800 319 798 325 794 c 1
 331 798 339 800 347 800 c 0
 355 800 362 798 368 794 c 1
 374 798 382 800 390 800 c 0
 398 800 405 798 411 794 c 1
 417 798 424 800 432 800 c 0
 440 800 448 798 454 794 c 1
 460 798 467 800 475 800 c 0
 483 800 491 798 497 794 c 1
 503 798 510 800 518 800 c 0
 526 800 534 798 540 794 c 1
 546 798 553 800 561 800 c 0x02
 585 800 604 781 604 757 c 0
EndSplineSet
EndChar

StartChar: D
Encoding: 68 68 41
Width: 522
VWidth: 0
UnlinkRmOvrlpSave: 1
Flags: W
HStem: 200 86<52.6424 110.718 111.282 153.717 154.282 196.717 197.282 239.717 240.282 281.718 282.283 324.718 325.283 367.718 368.283 427.358> 286 85<152.642 210.718 211.282 269.358 409.642 467.718 468.283 527.358> 371 86<166.642 224.718 225.283 284.358 423.642 481.718 482.283 541.358> 457 86<180.642 239.717 240.282 298.358 437.642 496.717 497.282 555.358> 543 86<195.39 253.717 254.282 312.358 452.642 510.718 511.282 569.358> 629 85<209.642 267.718 268.283 327.358 466.642 524.718 525.283 584.358> 714 86<137.642 196.717 197.282 239.717 240.282 281.718 282.283 324.718 325.283 367.718 368.283 410.718 411.282 453.717 454.282 512.358>
VStem: 147 128<291.642 365.61> 161 129<377.167 450.833> 175 129<463.167 536.833> 190 128<549.167 622.833> 204 129<634.39 708.358> 404 129<291.642 365.61> 418 129<377.167 450.833> 432 129<463.167 536.833> 447 128<549.167 622.833> 461 129<634.39 708.358>
LayerCount: 2
Back
Fore
SplineSet
433 243 m 0x8040
 433 219 414 200 390 200 c 0
 382 200 374 202 368 206 c 1
 362 202 355 200 347 200 c 0
 339 200 331 202 325 206 c 1
 319 202 312 200 304 200 c 0
 296 200 288 202 282 206 c 1
 276 202 269 200 261 200 c 0
 253 200 246 202 240 206 c 1
 234 202 226 200 218 200 c 0
 210 200 203 202 197 206 c 1
 191 202 183 200 175 200 c 0
 167 200 160 202 154 206 c 1
 148 202 140 200 132 200 c 0
 124 200 117 202 111 206 c 1
 105 202 98 200 90 200 c 0
 66 200 47 219 47 243 c 0
 47 267 66 286 90 286 c 0
 98 286 105 284 111 280 c 1
 117 284 124 286 132 286 c 0
 140 286 148 284 154 280 c 1
 160 284 167 286 175 286 c 0
 183 286 191 284 197 280 c 1
 203 284 210 286 218 286 c 0
 226 286 234 284 240 280 c 1
 246 284 253 286 261 286 c 0
 269 286 276 284 282 280 c 1
 288 284 296 286 304 286 c 0
 312 286 319 284 325 280 c 1
 331 284 339 286 347 286 c 0
 355 286 362 284 368 280 c 1
 374 284 382 286 390 286 c 0
 414 286 433 267 433 243 c 0x8040
533 329 m 0x4008
 533 305 514 286 490 286 c 0
 482 286 474 287 468 291 c 1
 462 287 455 286 447 286 c 0x4001
 423 286 404 305 404 329 c 0x4008
 404 353 423 371 447 371 c 0x4001
 455 371 462 370 468 366 c 1
 474 370 482 371 490 371 c 0
 514 371 533 353 533 329 c 0x4008
275 329 m 0x41
 275 305 256 286 232 286 c 0
 224 286 217 287 211 291 c 1
 205 287 198 286 190 286 c 0x8020
 166 286 147 305 147 329 c 0x81
 147 353 166 371 190 371 c 0x4020
 198 371 205 370 211 366 c 1
 217 370 224 371 232 371 c 0
 256 371 275 353 275 329 c 0x41
547 414 m 0x2004
 547 390 528 371 504 371 c 0
 496 371 488 373 482 377 c 1
 476 373 469 371 461 371 c 0x400080
 437 371 418 390 418 414 c 0x4004
 418 438 437 457 461 457 c 0x200080
 469 457 476 455 482 451 c 1
 488 455 496 457 504 457 c 0
 528 457 547 438 547 414 c 0x2004
290 414 m 0x2080
 290 390 271 371 247 371 c 0
 239 371 231 373 225 377 c 1
 219 373 212 371 204 371 c 0x4010
 180 371 161 390 161 414 c 0x4080
 161 438 180 457 204 457 c 0x2010
 212 457 219 455 225 451 c 1
 231 455 239 457 247 457 c 0
 271 457 290 438 290 414 c 0x2080
561 500 m 0x1002
 561 476 542 457 518 457 c 0
 510 457 503 459 497 463 c 1
 491 459 483 457 475 457 c 0x2002
 451 457 432 476 432 500 c 0
 432 524 451 543 475 543 c 0
 483 543 491 541 497 537 c 1
 503 541 510 543 518 543 c 0
 542 543 561 524 561 500 c 0x1002
304 500 m 0x1040
 304 476 285 457 261 457 c 0
 253 457 246 459 240 463 c 1
 234 459 226 457 218 457 c 0x2040
 194 457 175 476 175 500 c 0
 175 524 194 543 218 543 c 0
 226 543 234 541 240 537 c 1
 246 541 253 543 261 543 c 0
 285 543 304 524 304 500 c 0x1040
575 586 m 0x0801
 575 562 556 543 532 543 c 0
 524 543 517 545 511 549 c 1
 505 545 498 543 490 543 c 0x1001
 466 543 447 562 447 586 c 0
 447 610 466 629 490 629 c 0
 498 629 505 627 511 623 c 1
 517 627 524 629 532 629 c 0
 556 629 575 610 575 586 c 0x0801
318 586 m 0x0820
 318 562 299 543 275 543 c 0x11
 267 543 260 545 254 549 c 1
 248 545 240 543 232 543 c 0
 208 543 190 562 190 586 c 0x1020
 190 610 208 629 232 629 c 0
 240 629 248 627 254 623 c 1
 260 627 267 629 275 629 c 0x09
 299 629 318 610 318 586 c 0x0820
590 671 m 0x040080
 590 647 571 629 547 629 c 0x0804
 539 629 531 630 525 634 c 1
 519 630 512 629 504 629 c 0
 480 629 461 647 461 671 c 0x080080
 461 695 480 714 504 714 c 0
 512 714 519 713 525 709 c 1
 531 713 539 714 547 714 c 0x0404
 571 714 590 695 590 671 c 0x040080
333 671 m 0x0410
 333 647 314 629 290 629 c 0x0880
 282 629 274 630 268 634 c 1
 262 630 255 629 247 629 c 0
 223 629 204 647 204 671 c 0x0810
 204 695 223 714 247 714 c 0
 255 714 262 713 268 709 c 1
 274 713 282 714 290 714 c 0x0480
 314 714 333 695 333 671 c 0x0410
518 757 m 0
 518 733 499 714 475 714 c 0x0442
 467 714 460 716 454 720 c 1
 448 716 440 714 432 714 c 0
 424 714 417 716 411 720 c 1
 405 716 398 714 390 714 c 0
 382 714 374 716 368 720 c 1
 362 716 355 714 347 714 c 0x0242
 339 714 331 716 325 720 c 1
 319 716 312 714 304 714 c 0
 296 714 288 716 282 720 c 1
 276 716 269 714 261 714 c 0
 253 714 246 716 240 720 c 1
 234 716 226 714 218 714 c 0x0442
 210 714 203 716 197 720 c 1
 191 716 183 714 175 714 c 0
 151 714 132 733 132 757 c 0
 132 781 151 800 175 800 c 0
 183 800 191 798 197 794 c 1
 203 798 210 800 218 800 c 0
 226 800 234 798 240 794 c 1
 246 798 253 800 261 800 c 0
 269 800 276 798 282 794 c 1
 288 798 296 800 304 800 c 0
 312 800 319 798 325 794 c 1
 331 798 339 800 347 800 c 0
 355 800 362 798 368 794 c 1
 374 798 382 800 390 800 c 0
 398 800 405 798 411 794 c 1
 417 798 424 800 432 800 c 0
 440 800 448 798 454 794 c 1
 460 798 467 800 475 800 c 0x0242
 499 800 518 781 518 757 c 0
EndSplineSet
EndChar

StartChar: G
Encoding: 71 71 42
Width: 522
VWidth: 0
UnlinkRmOvrlpSave: 1
Flags: W
HStem: 200 86<123.642 182.717 183.282 225.717 226.282 267.718 268.283 310.718 311.283 353.718 354.283 396.718 397.282 439.717 440.282 498.358> 286 85<52.6424 110.718 111.283 170.358 395.642 453.718 454.283 513.358> 371 86<66.6424 125.717 126.282 184.358 409.642 467.718 468.283 527.358> 457 86<81.39 139.717 140.282 198.358 338.642 396.718 397.282 439.717 440.282 482.717 483.282 541.358> 543 86<95.6424 153.718 154.283 213.358> 629 85<109.642 167.718 168.283 227.358> 714 86<209.642 267.718 268.283 310.718 311.283 353.718 354.283 396.718 397.282 439.717 440.282 482.717 483.282 525.717 526.282 584.358>
VStem: 47 129<291.642 365.61> 61 129<377.167 450.833> 76 128<463.167 536.833> 90 129<549.167 622.833> 104 129<634.39 708.358> 333 214<463.167 536.833> 390 129<291.642 365.61> 404 129<377.167 450.833>
LayerCount: 2
Back
Fore
SplineSet
504 243 m 0x8048
 504 219 485 200 461 200 c 0
 453 200 446 202 440 206 c 1
 434 202 426 200 418 200 c 0
 410 200 403 202 397 206 c 1
 391 202 384 200 376 200 c 0
 368 200 360 202 354 206 c 1
 348 202 341 200 333 200 c 0
 325 200 317 202 311 206 c 1
 305 202 298 200 290 200 c 0
 282 200 274 202 268 206 c 1
 262 202 255 200 247 200 c 0
 239 200 232 202 226 206 c 1
 220 202 212 200 204 200 c 0
 196 200 189 202 183 206 c 1
 177 202 169 200 161 200 c 0
 137 200 118 219 118 243 c 0
 118 267 137 286 161 286 c 0
 169 286 177 284 183 280 c 1
 189 284 196 286 204 286 c 0
 212 286 220 284 226 280 c 1
 232 284 239 286 247 286 c 0
 255 286 262 284 268 280 c 1
 274 284 282 286 290 286 c 0
 298 286 305 284 311 280 c 1
 317 284 325 286 333 286 c 0
 341 286 348 284 354 280 c 1
 360 284 368 286 376 286 c 0
 384 286 391 284 397 280 c 1
 403 284 410 286 418 286 c 0
 426 286 434 284 440 280 c 1
 446 284 453 286 461 286 c 0
 485 286 504 267 504 243 c 0x8048
519 329 m 0x4004
 519 305 500 286 476 286 c 0
 468 286 460 287 454 291 c 1
 448 287 441 286 433 286 c 0x8004
 409 286 390 305 390 329 c 0
 390 353 409 371 433 371 c 0
 441 371 448 370 454 366 c 1
 460 370 468 371 476 371 c 0
 500 371 519 353 519 329 c 0x4004
176 329 m 0x41
 176 305 157 286 133 286 c 0x81
 125 286 117 287 111 291 c 1
 105 287 98 286 90 286 c 0x4020
 66 286 47 305 47 329 c 0x41
 47 353 66 371 90 371 c 0x4020
 98 371 105 370 111 366 c 1
 117 370 125 371 133 371 c 0
 157 371 176 353 176 329 c 0x41
533 414 m 0x2002
 533 390 514 371 490 371 c 0
 482 371 474 373 468 377 c 1
 462 373 455 371 447 371 c 0x4002
 423 371 404 390 404 414 c 0
 404 438 423 457 447 457 c 0
 455 457 462 455 468 451 c 1
 474 455 482 457 490 457 c 0
 514 457 533 438 533 414 c 0x2002
190 414 m 0x2080
 190 390 171 371 147 371 c 0
 139 371 132 373 126 377 c 1
 120 373 112 371 104 371 c 0x4010
 80 371 61 390 61 414 c 0x4080
 61 438 80 457 104 457 c 0x2010
 112 457 120 455 126 451 c 1
 132 455 139 457 147 457 c 0
 171 457 190 438 190 414 c 0x2080
547 500 m 0x1008
 547 476 528 457 504 457 c 0
 496 457 489 459 483 463 c 1
 477 459 469 457 461 457 c 0
 453 457 446 459 440 463 c 1
 434 459 426 457 418 457 c 0x2008
 410 457 403 459 397 463 c 1
 391 459 384 457 376 457 c 0
 352 457 333 476 333 500 c 0
 333 524 352 543 376 543 c 0
 384 543 391 541 397 537 c 1
 403 541 410 543 418 543 c 0
 426 543 434 541 440 537 c 1
 446 541 453 543 461 543 c 0
 469 543 477 541 483 537 c 1
 489 541 496 543 504 543 c 0
 528 543 547 524 547 500 c 0x1008
204 500 m 0x1040
 204 476 185 457 161 457 c 0
 153 457 146 459 140 463 c 1
 134 459 126 457 118 457 c 0x2040
 94 457 76 476 76 500 c 0
 76 524 94 543 118 543 c 0
 126 543 134 541 140 537 c 1
 146 541 153 543 161 543 c 0
 185 543 204 524 204 500 c 0x1040
219 586 m 0x0820
 219 562 200 543 176 543 c 0x11
 168 543 160 545 154 549 c 1
 148 545 141 543 133 543 c 0
 109 543 90 562 90 586 c 0x1020
 90 610 109 629 133 629 c 0
 141 629 148 627 154 623 c 1
 160 627 168 629 176 629 c 0x09
 200 629 219 610 219 586 c 0x0820
233 671 m 0x0410
 233 647 214 629 190 629 c 0x0880
 182 629 174 630 168 634 c 1
 162 630 155 629 147 629 c 0
 123 629 104 647 104 671 c 0x0810
 104 695 123 714 147 714 c 0
 155 714 162 713 168 709 c 1
 174 713 182 714 190 714 c 0x0480
 214 714 233 695 233 671 c 0x0410
590 757 m 0
 590 733 571 714 547 714 c 0
 539 714 532 716 526 720 c 1
 520 716 512 714 504 714 c 0
 496 714 489 716 483 720 c 1
 477 716 469 714 461 714 c 0
 453 714 446 716 440 720 c 1
 434 716 426 714 418 714 c 0
 410 714 403 716 397 720 c 1
 391 716 384 714 376 714 c 0
 368 714 360 716 354 720 c 1
 348 716 341 714 333 714 c 0
 325 714 317 716 311 720 c 1
 305 716 298 714 290 714 c 0
 282 714 274 716 268 720 c 1
 262 716 255 714 247 714 c 0
 223 714 204 733 204 757 c 0
 204 781 223 800 247 800 c 0
 255 800 262 798 268 794 c 1
 274 798 282 800 290 800 c 0
 298 800 305 798 311 794 c 1
 317 798 325 800 333 800 c 0
 341 800 348 798 354 794 c 1
 360 798 368 800 376 800 c 0
 384 800 391 798 397 794 c 1
 403 798 410 800 418 800 c 0
 426 800 434 798 440 794 c 1
 446 798 453 800 461 800 c 0
 469 800 477 798 483 794 c 1
 489 798 496 800 504 800 c 0
 512 800 520 798 526 794 c 1
 532 798 539 800 547 800 c 0x0248
 571 800 590 781 590 757 c 0
EndSplineSet
EndChar

StartChar: F
Encoding: 70 70 43
Width: 522
VWidth: 0
UnlinkRmOvrlpSave: 1
Flags: W
HStem: 200 86<52.6424 110.718 111.282 169.358> 286 85<66.6424 124.718 125.283 184.358> 371 86<80.6424 139.717 140.282 198.358> 457 86<95.39 153.717 154.282 196.717 197.282 239.717 240.282 281.718 282.283 324.718 325.283 384.358> 543 86<109.642 167.718 168.283 227.358> 629 85<123.642 181.718 182.283 241.358> 714 86<137.642 196.717 197.282 239.717 240.282 281.718 282.283 324.718 325.283 367.718 368.283 410.718 411.282 453.717 454.282 496.717 497.282 539.717 540.282 598.358>
VStem: 47 128<206.167 279.833> 61 129<291.642 365.61> 75 129<377.167 450.833> 104 129<549.167 622.833> 118 129<634.39 708.358>
LayerCount: 2
Back
Fore
SplineSet
175 243 m 0x81
 175 219 156 200 132 200 c 0
 124 200 117 202 111 206 c 1
 105 202 98 200 90 200 c 0
 66 200 47 219 47 243 c 0
 47 267 66 286 90 286 c 0
 98 286 105 284 111 280 c 1
 117 284 124 286 132 286 c 0
 156 286 175 267 175 243 c 0x81
190 329 m 0x4080
 190 305 171 286 147 286 c 0
 139 286 131 287 125 291 c 1
 119 287 112 286 104 286 c 0x8020
 80 286 61 305 61 329 c 0x8080
 61 353 80 371 104 371 c 0x4020
 112 371 119 370 125 366 c 1
 131 370 139 371 147 371 c 0
 171 371 190 353 190 329 c 0x4080
204 414 m 0x2040
 204 390 185 371 161 371 c 0
 153 371 146 373 140 377 c 1
 134 373 126 371 118 371 c 0x4010
 94 371 75 390 75 414 c 0x4040
 75 438 94 457 118 457 c 0x2010
 126 457 134 455 140 451 c 1
 146 455 153 457 161 457 c 0
 185 457 204 438 204 414 c 0x2040
390 500 m 0
 390 476 371 457 347 457 c 0
 339 457 331 459 325 463 c 1
 319 459 312 457 304 457 c 0
 296 457 288 459 282 463 c 1
 276 459 269 457 261 457 c 0
 253 457 246 459 240 463 c 1
 234 459 226 457 218 457 c 0x11
 210 457 203 459 197 463 c 1
 191 459 183 457 175 457 c 0
 167 457 160 459 154 463 c 1
 148 459 140 457 132 457 c 0x21
 108 457 90 476 90 500 c 0
 90 524 108 543 132 543 c 0
 140 543 148 541 154 537 c 1
 160 541 167 543 175 543 c 0
 183 543 191 541 197 537 c 1
 203 541 210 543 218 543 c 0
 226 543 234 541 240 537 c 1
 246 541 253 543 261 543 c 0
 269 543 276 541 282 537 c 1
 288 541 296 543 304 543 c 0
 312 543 319 541 325 537 c 1
 331 541 339 543 347 543 c 0x11
 371 543 390 524 390 500 c 0
233 586 m 0x0820
 233 562 214 543 190 543 c 0x1080
 182 543 174 545 168 549 c 1
 162 545 155 543 147 543 c 0
 123 543 104 562 104 586 c 0x1020
 104 610 123 629 147 629 c 0
 155 629 162 627 168 623 c 1
 174 627 182 629 190 629 c 0x0880
 214 629 233 610 233 586 c 0x0820
247 671 m 0x0410
 247 647 228 629 204 629 c 0x0840
 196 629 188 630 182 634 c 1
 176 630 169 629 161 629 c 0
 137 629 118 647 118 671 c 0x0810
 118 695 137 714 161 714 c 0
 169 714 176 713 182 709 c 1
 188 713 196 714 204 714 c 0x0440
 228 714 247 695 247 671 c 0x0410
604 757 m 0
 604 733 585 714 561 714 c 0
 553 714 546 716 540 720 c 1
 534 716 526 714 518 714 c 0
 510 714 503 716 497 720 c 1
 491 716 483 714 475 714 c 0
 467 714 460 716 454 720 c 1
 448 716 440 714 432 714 c 0
 424 714 417 716 411 720 c 1
 405 716 398 714 390 714 c 0
 382 714 374 716 368 720 c 1
 362 716 355 714 347 714 c 0
 339 714 331 716 325 720 c 1
 319 716 312 714 304 714 c 0
 296 714 288 716 282 720 c 1
 276 716 269 714 261 714 c 0x03
 253 714 246 716 240 720 c 1
 234 716 226 714 218 714 c 0
 210 714 203 716 197 720 c 1
 191 716 183 714 175 714 c 0x05
 151 714 132 733 132 757 c 0
 132 781 151 800 175 800 c 0
 183 800 191 798 197 794 c 1
 203 798 210 800 218 800 c 0
 226 800 234 798 240 794 c 1
 246 798 253 800 261 800 c 0
 269 800 276 798 282 794 c 1
 288 798 296 800 304 800 c 0
 312 800 319 798 325 794 c 1
 331 798 339 800 347 800 c 0
 355 800 362 798 368 794 c 1
 374 798 382 800 390 800 c 0
 398 800 405 798 411 794 c 1
 417 798 424 800 432 800 c 0
 440 800 448 798 454 794 c 1
 460 798 467 800 475 800 c 0
 483 800 491 798 497 794 c 1
 503 798 510 800 518 800 c 0
 526 800 534 798 540 794 c 1
 546 798 553 800 561 800 c 0x03
 585 800 604 781 604 757 c 0
EndSplineSet
EndChar

StartChar: I
Encoding: 73 73 44
Width: 522
VWidth: 0
UnlinkRmOvrlpSave: 1
Flags: W
HStem: 200 86<52.6424 111.717 112.282 154.717 155.282 196.718 197.283 239.718 240.283 282.718 283.283 342.358> 286 85<152.642 211.717 212.282 270.358> 371 86<167.642 225.718 226.282 284.358> 457 86<181.642 239.718 240.283 299.358> 543 86<195.642 254.717 255.282 313.358> 629 85<210.39 268.717 269.282 327.358> 714 86<138.642 196.718 197.283 239.718 240.283 282.718 283.283 325.718 326.282 368.717 369.282 427.358>
VStem: 147 129<291.642 365.61> 162 128<377.167 450.833> 176 129<463.167 536.833> 190 129<549.167 622.833> 205 128<634.39 708.358>
LayerCount: 2
Back
Fore
SplineSet
348 243 m 0x8040
 348 219 329 200 305 200 c 0
 297 200 289 202 283 206 c 1
 277 202 270 200 262 200 c 0
 254 200 246 202 240 206 c 1
 234 202 227 200 219 200 c 0
 211 200 203 202 197 206 c 1
 191 202 184 200 176 200 c 0
 168 200 161 202 155 206 c 1
 149 202 141 200 133 200 c 0
 125 200 118 202 112 206 c 1
 106 202 98 200 90 200 c 0
 66 200 47 219 47 243 c 0
 47 267 66 286 90 286 c 0
 98 286 106 284 112 280 c 1
 118 284 125 286 133 286 c 0
 141 286 149 284 155 280 c 1
 161 284 168 286 176 286 c 0
 184 286 191 284 197 280 c 1
 203 284 211 286 219 286 c 0
 227 286 234 284 240 280 c 1
 246 284 254 286 262 286 c 0
 270 286 277 284 283 280 c 1
 289 284 297 286 305 286 c 0
 329 286 348 267 348 243 c 0x8040
276 329 m 0x41
 276 305 257 286 233 286 c 0
 225 286 218 287 212 291 c 1
 206 287 198 286 190 286 c 0x8020
 166 286 147 305 147 329 c 0x81
 147 353 166 371 190 371 c 0x4020
 198 371 206 370 212 366 c 1
 218 370 225 371 233 371 c 0
 257 371 276 353 276 329 c 0x41
290 414 m 0x2080
 290 390 271 371 247 371 c 0
 239 371 232 373 226 377 c 1
 220 373 213 371 205 371 c 0x4010
 181 371 162 390 162 414 c 0x4080
 162 438 181 457 205 457 c 0x2010
 213 457 220 455 226 451 c 1
 232 455 239 457 247 457 c 0
 271 457 290 438 290 414 c 0x2080
305 500 m 0x1040
 305 476 286 457 262 457 c 0
 254 457 246 459 240 463 c 1
 234 459 227 457 219 457 c 0x2040
 195 457 176 476 176 500 c 0
 176 524 195 543 219 543 c 0
 227 543 234 541 240 537 c 1
 246 541 254 543 262 543 c 0
 286 543 305 524 305 500 c 0x1040
319 586 m 0x0820
 319 562 300 543 276 543 c 0x11
 268 543 261 545 255 549 c 1
 249 545 241 543 233 543 c 0
 209 543 190 562 190 586 c 0x1020
 190 610 209 629 233 629 c 0
 241 629 249 627 255 623 c 1
 261 627 268 629 276 629 c 0x09
 300 629 319 610 319 586 c 0x0820
333 671 m 0x0410
 333 647 314 629 290 629 c 0x0880
 282 629 275 630 269 634 c 1
 263 630 255 629 247 629 c 0
 223 629 205 647 205 671 c 0x0810
 205 695 223 714 247 714 c 0
 255 714 263 713 269 709 c 1
 275 713 282 714 290 714 c 0x0480
 314 714 333 695 333 671 c 0x0410
433 757 m 0
 433 733 414 714 390 714 c 0
 382 714 375 716 369 720 c 1
 363 716 355 714 347 714 c 0x0240
 339 714 332 716 326 720 c 1
 320 716 313 714 305 714 c 0
 297 714 289 716 283 720 c 1
 277 716 270 714 262 714 c 0
 254 714 246 716 240 720 c 1
 234 716 227 714 219 714 c 0x0440
 211 714 203 716 197 720 c 1
 191 716 184 714 176 714 c 0
 152 714 133 733 133 757 c 0
 133 781 152 800 176 800 c 0
 184 800 191 798 197 794 c 1
 203 798 211 800 219 800 c 0
 227 800 234 798 240 794 c 1
 246 798 254 800 262 800 c 0
 270 800 277 798 283 794 c 1
 289 798 297 800 305 800 c 0
 313 800 320 798 326 794 c 1
 332 798 339 800 347 800 c 0
 355 800 363 798 369 794 c 1
 375 798 382 800 390 800 c 0x0240
 414 800 433 781 433 757 c 0
EndSplineSet
EndChar

StartChar: H
Encoding: 72 72 45
Width: 522
VWidth: 0
UnlinkRmOvrlpSave: 1
Flags: W
HStem: 200 86<52.6424 110.718 111.282 169.358 395.39 453.717 454.282 512.358> 286 85<66.6424 124.718 125.283 184.358 409.642 467.718 468.283 527.358> 371 86<80.6424 139.717 140.282 198.358 423.642 481.718 482.283 541.358> 457 86<95.39 153.717 154.282 196.717 197.282 239.717 240.282 281.718 282.283 324.718 325.283 367.718 368.283 410.718 411.282 453.717 454.282 496.717 497.282 555.358> 543 86<109.642 167.718 168.283 227.358 452.642 510.718 511.282 569.358> 629 85<123.642 181.718 182.283 241.358 466.642 524.718 525.283 584.358> 714 86<137.642 196.717 197.282 255.358 480.642 539.717 540.282 598.358>
VStem: 47 128<206.167 279.833> 61 129<291.642 365.61> 75 129<377.167 450.833> 104 129<549.167 622.833> 118 129<634.39 708.358> 132 129<720.167 793.833> 390 128<206.167 279.833> 404 129<291.642 365.61> 418 129<377.167 450.833> 447 128<549.167 622.833> 461 129<634.39 708.358> 475 129<720.167 793.833>
LayerCount: 2
Back
Fore
SplineSet
518 243 m 0x8004
 518 219 499 200 475 200 c 0x800020
 467 200 460 202 454 206 c 1
 448 202 440 200 432 200 c 0
 408 200 390 219 390 243 c 0x8004
 390 267 408 286 432 286 c 0
 440 286 448 284 454 280 c 1
 460 284 467 286 475 286 c 0x800020
 499 286 518 267 518 243 c 0x8004
175 243 m 0x81
 175 219 156 200 132 200 c 0x8008
 124 200 117 202 111 206 c 1
 105 202 98 200 90 200 c 0
 66 200 47 219 47 243 c 0x81
 47 267 66 286 90 286 c 0
 98 286 105 284 111 280 c 1
 117 284 124 286 132 286 c 0x8008
 156 286 175 267 175 243 c 0x81
533 329 m 0x4002
 533 305 514 286 490 286 c 0
 482 286 474 287 468 291 c 1
 462 287 455 286 447 286 c 0x800080
 423 286 404 305 404 329 c 0x8002
 404 353 423 371 447 371 c 0x400080
 455 371 462 370 468 366 c 1
 474 370 482 371 490 371 c 0
 514 371 533 353 533 329 c 0x4002
190 329 m 0x4080
 190 305 171 286 147 286 c 0
 139 286 131 287 125 291 c 1
 119 287 112 286 104 286 c 0x8020
 80 286 61 305 61 329 c 0x8080
 61 353 80 371 104 371 c 0x4020
 112 371 119 370 125 366 c 1
 131 370 139 371 147 371 c 0
 171 371 190 353 190 329 c 0x4080
547 414 m 0x2001
 547 390 528 371 504 371 c 0
 496 371 488 373 482 377 c 1
 476 373 469 371 461 371 c 0x400040
 437 371 418 390 418 414 c 0x4001
 418 438 437 457 461 457 c 0x200040
 469 457 476 455 482 451 c 1
 488 455 496 457 504 457 c 0
 528 457 547 438 547 414 c 0x2001
204 414 m 0x2040
 204 390 185 371 161 371 c 0
 153 371 146 373 140 377 c 1
 134 373 126 371 118 371 c 0x4010
 94 371 75 390 75 414 c 0x4040
 75 438 94 457 118 457 c 0x2010
 126 457 134 455 140 451 c 1
 146 455 153 457 161 457 c 0
 185 457 204 438 204 414 c 0x2040
561 500 m 0
 561 476 542 457 518 457 c 0x2004
 510 457 503 459 497 463 c 1
 491 459 483 457 475 457 c 0
 467 457 460 459 454 463 c 1
 448 459 440 457 432 457 c 0x200020
 424 457 417 459 411 463 c 1
 405 459 398 457 390 457 c 0
 382 457 374 459 368 463 c 1
 362 459 355 457 347 457 c 0
 339 457 331 459 325 463 c 1
 319 459 312 457 304 457 c 0
 296 457 288 459 282 463 c 1
 276 459 269 457 261 457 c 0
 253 457 246 459 240 463 c 1
 234 459 226 457 218 457 c 0x100c
 210 457 203 459 197 463 c 1
 191 459 183 457 175 457 c 0x21
 167 457 160 459 154 463 c 1
 148 459 140 457 132 457 c 0x2008
 108 457 90 476 90 500 c 0
 90 524 108 543 132 543 c 0x1008
 140 543 148 541 154 537 c 1
 160 541 167 543 175 543 c 0x11
 183 543 191 541 197 537 c 1
 203 541 210 543 218 543 c 0
 226 543 234 541 240 537 c 1
 246 541 253 543 261 543 c 0
 269 543 276 541 282 537 c 1
 288 541 296 543 304 543 c 0
 312 543 319 541 325 537 c 1
 331 541 339 543 347 543 c 0
 355 543 362 541 368 537 c 1
 374 541 382 543 390 543 c 0x100c
 398 543 405 541 411 537 c 1
 417 541 424 543 432 543 c 0
 440 543 448 541 454 537 c 1
 460 541 467 543 475 543 c 0x100020
 483 543 491 541 497 537 c 1
 503 541 510 543 518 543 c 0x1004
 542 543 561 524 561 500 c 0
575 586 m 0x080080
 575 562 556 543 532 543 c 0
 524 543 517 545 511 549 c 1
 505 545 498 543 490 543 c 0x100080
 466 543 447 562 447 586 c 0
 447 610 466 629 490 629 c 0
 498 629 505 627 511 623 c 1
 517 627 524 629 532 629 c 0
 556 629 575 610 575 586 c 0x080080
233 586 m 0x0820
 233 562 214 543 190 543 c 0x1080
 182 543 174 545 168 549 c 1
 162 545 155 543 147 543 c 0
 123 543 104 562 104 586 c 0x1020
 104 610 123 629 147 629 c 0
 155 629 162 627 168 623 c 1
 174 627 182 629 190 629 c 0x0880
 214 629 233 610 233 586 c 0x0820
590 671 m 0x040040
 590 647 571 629 547 629 c 0x0801
 539 629 531 630 525 634 c 1
 519 630 512 629 504 629 c 0
 480 629 461 647 461 671 c 0x080040
 461 695 480 714 504 714 c 0
 512 714 519 713 525 709 c 1
 531 713 539 714 547 714 c 0x0401
 571 714 590 695 590 671 c 0x040040
247 671 m 0x0410
 247 647 228 629 204 629 c 0x0840
 196 629 188 630 182 634 c 1
 176 630 169 629 161 629 c 0
 137 629 118 647 118 671 c 0x0810
 118 695 137 714 161 714 c 0
 169 714 176 713 182 709 c 1
 188 713 196 714 204 714 c 0x0440
 228 714 247 695 247 671 c 0x0410
604 757 m 0x020020
 604 733 585 714 561 714 c 0
 553 714 546 716 540 720 c 1
 534 716 526 714 518 714 c 0x0404
 494 714 475 733 475 757 c 0x040020
 475 781 494 800 518 800 c 0x0204
 526 800 534 798 540 794 c 1
 546 798 553 800 561 800 c 0
 585 800 604 781 604 757 c 0x020020
261 757 m 0x0208
 261 733 242 714 218 714 c 0
 210 714 203 716 197 720 c 1
 191 716 183 714 175 714 c 0x05
 151 714 132 733 132 757 c 0x0408
 132 781 151 800 175 800 c 0x03
 183 800 191 798 197 794 c 1
 203 798 210 800 218 800 c 0
 242 800 261 781 261 757 c 0x0208
EndSplineSet
EndChar

StartChar: K
Encoding: 75 75 46
Width: 522
VWidth: 0
UnlinkRmOvrlpSave: 1
Flags: W
HStem: 200 86<52.6424 110.718 111.282 169.358 395.39 453.717 454.282 512.358> 286 85<66.6424 124.718 125.283 184.358 323.642 381.718 382.283 441.358> 371 86<80.6424 139.717 140.282 198.358 252.642 310.718 311.282 369.358> 457 86<95.39 153.717 154.282 196.717 197.282 239.717 240.282 298.358> 543 86<109.642 167.718 168.283 227.358 280.642 339.717 340.282 398.358> 629 85<123.642 181.718 182.283 241.358 380.642 439.717 440.282 498.358> 714 86<137.642 196.717 197.282 255.358 480.642 539.717 540.282 598.358>
VStem: 47 128<206.167 279.833> 61 129<291.642 365.61> 75 129<377.167 450.833> 90 214<463.167 536.833> 104 129<549.167 622.833> 118 129<634.39 708.358> 132 129<720.167 793.833> 247 128<377.167 450.833> 275 129<549.167 622.833> 318 129<291.642 365.61> 375 129<634.39 708.358> 390 128<206.167 279.833> 475 129<720.167 793.833>
LayerCount: 2
Back
Fore
SplineSet
518 243 m 0x800020
 518 219 499 200 475 200 c 0x800010
 467 200 460 202 454 206 c 1
 448 202 440 200 432 200 c 0
 408 200 390 219 390 243 c 0x800020
 390 267 408 286 432 286 c 0
 440 286 448 284 454 280 c 1
 460 284 467 286 475 286 c 0x800010
 499 286 518 267 518 243 c 0x800020
175 243 m 0x81
 175 219 156 200 132 200 c 0x8004
 124 200 117 202 111 206 c 1
 105 202 98 200 90 200 c 0x8020
 66 200 47 219 47 243 c 0x81
 47 267 66 286 90 286 c 0x8020
 98 286 105 284 111 280 c 1
 117 284 124 286 132 286 c 0x8004
 156 286 175 267 175 243 c 0x81
447 329 m 0x400080
 447 305 428 286 404 286 c 0x8001
 396 286 388 287 382 291 c 1
 376 287 369 286 361 286 c 0
 337 286 318 305 318 329 c 0x400080
 318 353 337 371 361 371 c 0
 369 371 376 370 382 366 c 1
 388 370 396 371 404 371 c 0x4001
 428 371 447 353 447 329 c 0x400080
190 329 m 0x4080
 190 305 171 286 147 286 c 0
 139 286 131 287 125 291 c 1
 119 287 112 286 104 286 c 0x8010
 80 286 61 305 61 329 c 0x8080
 61 353 80 371 104 371 c 0x4010
 112 371 119 370 125 366 c 1
 131 370 139 371 147 371 c 0
 171 371 190 353 190 329 c 0x4080
375 414 m 0x2002
 375 390 356 371 332 371 c 0x4002
 324 371 317 373 311 377 c 1
 305 373 298 371 290 371 c 0
 266 371 247 390 247 414 c 0
 247 438 266 457 290 457 c 0
 298 457 305 455 311 451 c 1
 317 455 324 457 332 457 c 0
 356 457 375 438 375 414 c 0x2002
204 414 m 0x2040
 204 390 185 371 161 371 c 0
 153 371 146 373 140 377 c 1
 134 373 126 371 118 371 c 0x4008
 94 371 75 390 75 414 c 0x4040
 75 438 94 457 118 457 c 0x2008
 126 457 134 455 140 451 c 1
 146 455 153 457 161 457 c 0
 185 457 204 438 204 414 c 0x2040
304 500 m 0x1020
 304 476 285 457 261 457 c 0x2004
 253 457 246 459 240 463 c 1
 234 459 226 457 218 457 c 0x1004
 210 457 203 459 197 463 c 1
 191 459 183 457 175 457 c 0x21
 167 457 160 459 154 463 c 1
 148 459 140 457 132 457 c 0x2004
 108 457 90 476 90 500 c 0x2020
 90 524 108 543 132 543 c 0x1004
 140 543 148 541 154 537 c 1
 160 541 167 543 175 543 c 0x11
 183 543 191 541 197 537 c 1
 203 541 210 543 218 543 c 0
 226 543 234 541 240 537 c 1
 246 541 253 543 261 543 c 0x1004
 285 543 304 524 304 500 c 0x1020
404 586 m 0x0801
 404 562 385 543 361 543 c 0
 353 543 346 545 340 549 c 1
 334 545 326 543 318 543 c 0x080080
 294 543 275 562 275 586 c 0x0801
 275 610 294 629 318 629 c 0x080080
 326 629 334 627 340 623 c 1
 346 627 353 629 361 629 c 0
 385 629 404 610 404 586 c 0x0801
233 586 m 0x0810
 233 562 214 543 190 543 c 0x1080
 182 543 174 545 168 549 c 1
 162 545 155 543 147 543 c 0
 123 543 104 562 104 586 c 0x1010
 104 610 123 629 147 629 c 0
 155 629 162 627 168 623 c 1
 174 627 182 629 190 629 c 0x0880
 214 629 233 610 233 586 c 0x0810
504 671 m 0x040040
 504 647 485 629 461 629 c 0
 453 629 446 630 440 634 c 1
 434 630 426 629 418 629 c 0
 394 629 375 647 375 671 c 0
 375 695 394 714 418 714 c 0
 426 714 434 713 440 709 c 1
 446 713 453 714 461 714 c 0
 485 714 504 695 504 671 c 0x040040
247 671 m 0x0408
 247 647 228 629 204 629 c 0x0840
 196 629 188 630 182 634 c 1
 176 630 169 629 161 629 c 0
 137 629 118 647 118 671 c 0x0808
 118 695 137 714 161 714 c 0
 169 714 176 713 182 709 c 1
 188 713 196 714 204 714 c 0x0440
 228 714 247 695 247 671 c 0x0408
604 757 m 0x020010
 604 733 585 714 561 714 c 0
 553 714 546 716 540 720 c 1
 534 716 526 714 518 714 c 0x020020
 494 714 475 733 475 757 c 0x020010
 475 781 494 800 518 800 c 0x020020
 526 800 534 798 540 794 c 1
 546 798 553 800 561 800 c 0
 585 800 604 781 604 757 c 0x020010
261 757 m 0x0204
 261 733 242 714 218 714 c 0
 210 714 203 716 197 720 c 1
 191 716 183 714 175 714 c 0x05
 151 714 132 733 132 757 c 0x0404
 132 781 151 800 175 800 c 0x03
 183 800 191 798 197 794 c 1
 203 798 210 800 218 800 c 0
 242 800 261 781 261 757 c 0x0204
EndSplineSet
EndChar

StartChar: J
Encoding: 74 74 47
Width: 522
VWidth: 0
UnlinkRmOvrlpSave: 1
Flags: W
HStem: 200 86<123.642 182.717 183.282 225.717 226.282 267.718 268.283 310.718 311.283 353.718 354.283 413.358> 286 85<52.6424 110.718 111.283 170.358 395.642 453.718 454.283 513.358> 371 86<409.642 467.718 468.283 527.358> 457 86<423.642 482.717 483.282 541.358> 543 86<438.642 496.718 497.282 555.358> 629 85<452.642 510.718 511.283 570.358> 714 86<466.642 525.717 526.282 584.358>
VStem: 47 129<291.642 365.61> 390 129<291.642 365.61> 404 129<377.167 450.833> 418 129<463.167 536.833> 433 128<549.167 622.833> 447 129<634.39 708.358> 461 129<720.167 793.833>
LayerCount: 2
Back
Fore
SplineSet
419 243 m 0x81
 419 219 400 200 376 200 c 0
 368 200 360 202 354 206 c 1
 348 202 341 200 333 200 c 0
 325 200 317 202 311 206 c 1
 305 202 298 200 290 200 c 0
 282 200 274 202 268 206 c 1
 262 202 255 200 247 200 c 0
 239 200 232 202 226 206 c 1
 220 202 212 200 204 200 c 0
 196 200 189 202 183 206 c 1
 177 202 169 200 161 200 c 0
 137 200 118 219 118 243 c 0
 118 267 137 286 161 286 c 0
 169 286 177 284 183 280 c 1
 189 284 196 286 204 286 c 0
 212 286 220 284 226 280 c 1
 232 284 239 286 247 286 c 0
 255 286 262 284 268 280 c 1
 274 284 282 286 290 286 c 0
 298 286 305 284 311 280 c 1
 317 284 325 286 333 286 c 0
 341 286 348 284 354 280 c 1
 360 284 368 286 376 286 c 0
 400 286 419 267 419 243 c 0x81
519 329 m 0x4180
 519 305 500 286 476 286 c 0
 468 286 460 287 454 291 c 1
 448 287 441 286 433 286 c 0x4110
 409 286 390 305 390 329 c 0x4180
 390 353 409 371 433 371 c 0x4110
 441 371 448 370 454 366 c 1
 460 370 468 371 476 371 c 0
 500 371 519 353 519 329 c 0x4180
176 329 m 0
 176 305 157 286 133 286 c 0x81
 125 286 117 287 111 291 c 1
 105 287 98 286 90 286 c 0
 66 286 47 305 47 329 c 0
 47 353 66 371 90 371 c 0
 98 371 105 370 111 366 c 1
 117 370 125 371 133 371 c 0
 157 371 176 353 176 329 c 0
533 414 m 0x2140
 533 390 514 371 490 371 c 0
 482 371 474 373 468 377 c 1
 462 373 455 371 447 371 c 0x4108
 423 371 404 390 404 414 c 0x4140
 404 438 423 457 447 457 c 0x2108
 455 457 462 455 468 451 c 1
 474 455 482 457 490 457 c 0
 514 457 533 438 533 414 c 0x2140
547 500 m 0x1120
 547 476 528 457 504 457 c 0
 496 457 489 459 483 463 c 1
 477 459 469 457 461 457 c 0x2104
 437 457 418 476 418 500 c 0x2120
 418 524 437 543 461 543 c 0x1104
 469 543 477 541 483 537 c 1
 489 541 496 543 504 543 c 0
 528 543 547 524 547 500 c 0x1120
561 586 m 0x0910
 561 562 542 543 518 543 c 0
 510 543 503 545 497 549 c 1
 491 545 484 543 476 543 c 0x1110
 452 543 433 562 433 586 c 0
 433 610 452 629 476 629 c 0
 484 629 491 627 497 623 c 1
 503 627 510 629 518 629 c 0
 542 629 561 610 561 586 c 0x0910
576 671 m 0x0508
 576 647 557 629 533 629 c 0x0940
 525 629 517 630 511 634 c 1
 505 630 498 629 490 629 c 0
 466 629 447 647 447 671 c 0x0908
 447 695 466 714 490 714 c 0
 498 714 505 713 511 709 c 1
 517 713 525 714 533 714 c 0x0540
 557 714 576 695 576 671 c 0x0508
590 757 m 0x0304
 590 733 571 714 547 714 c 0x0520
 539 714 532 716 526 720 c 1
 520 716 512 714 504 714 c 0
 480 714 461 733 461 757 c 0x0504
 461 781 480 800 504 800 c 0
 512 800 520 798 526 794 c 1
 532 798 539 800 547 800 c 0x0320
 571 800 590 781 590 757 c 0x0304
EndSplineSet
EndChar

StartChar: M
Encoding: 77 77 48
Width: 522
VWidth: 0
UnlinkRmOvrlpSave: 1
Flags: W
HStem: 200 86<52.6424 110.718 111.282 169.358 395.39 453.717 454.282 512.358> 286 85<66.6424 124.718 125.283 184.358 409.642 467.718 468.283 527.358> 371 86<80.6424 139.717 140.282 198.358 423.642 481.718 482.283 541.358> 457 86<95.39 153.717 154.282 212.358 266.642 324.718 325.283 384.358 437.642 496.717 497.282 555.358> 543 86<109.642 167.718 168.283 227.358 280.642 339.717 340.282 398.358 452.642 510.718 511.282 569.358> 629 85<123.642 181.718 182.283 224.718 225.283 267.718 268.283 327.358 380.642 439.717 440.282 481.718 482.283 524.718 525.283 584.358> 714 86<137.642 196.717 197.282 255.358 480.642 539.717 540.282 598.358>
VStem: 47 128<206.167 279.833> 61 129<291.642 365.61> 75 129<377.167 450.833> 90 128<463.167 536.833> 104 129<549.167 622.833> 118 215<634.39 708.358> 132 129<720.167 793.833> 261 129<463.167 536.833> 275 129<549.167 622.833> 375 215<634.39 708.358> 390 128<206.167 279.833> 404 129<291.642 365.61> 418 129<377.167 450.833> 432 129<463.167 536.833> 447 128<549.167 622.833> 475 129<720.167 793.833>
LayerCount: 2
Back
Fore
SplineSet
518 243 m 0x800040
 518 219 499 200 475 200 c 0x800002
 467 200 460 202 454 206 c 1
 448 202 440 200 432 200 c 0x800008
 408 200 390 219 390 243 c 0x800040
 390 267 408 286 432 286 c 0x800008
 440 286 448 284 454 280 c 1
 460 284 467 286 475 286 c 0x800002
 499 286 518 267 518 243 c 0x800040
175 243 m 0x81
 175 219 156 200 132 200 c 0x8004
 124 200 117 202 111 206 c 1
 105 202 98 200 90 200 c 0x8020
 66 200 47 219 47 243 c 0x81
 47 267 66 286 90 286 c 0x8020
 98 286 105 284 111 280 c 1
 117 284 124 286 132 286 c 0x8004
 156 286 175 267 175 243 c 0x81
533 329 m 0x400020
 533 305 514 286 490 286 c 0
 482 286 474 287 468 291 c 1
 462 287 455 286 447 286 c 0x800004
 423 286 404 305 404 329 c 0x800020
 404 353 423 371 447 371 c 0x400004
 455 371 462 370 468 366 c 1
 474 370 482 371 490 371 c 0
 514 371 533 353 533 329 c 0x400020
190 329 m 0x4080
 190 305 171 286 147 286 c 0
 139 286 131 287 125 291 c 1
 119 287 112 286 104 286 c 0x8010
 80 286 61 305 61 329 c 0x8080
 61 353 80 371 104 371 c 0x4010
 112 371 119 370 125 366 c 1
 131 370 139 371 147 371 c 0
 171 371 190 353 190 329 c 0x4080
547 414 m 0x200010
 547 390 528 371 504 371 c 0
 496 371 488 373 482 377 c 1
 476 373 469 371 461 371 c 0x400010
 437 371 418 390 418 414 c 0
 418 438 437 457 461 457 c 0
 469 457 476 455 482 451 c 1
 488 455 496 457 504 457 c 0
 528 457 547 438 547 414 c 0x200010
204 414 m 0x2040
 204 390 185 371 161 371 c 0
 153 371 146 373 140 377 c 1
 134 373 126 371 118 371 c 0x4008
 94 371 75 390 75 414 c 0x4040
 75 438 94 457 118 457 c 0x2008
 126 457 134 455 140 451 c 1
 146 455 153 457 161 457 c 0
 185 457 204 438 204 414 c 0x2040
561 500 m 0x100008
 561 476 542 457 518 457 c 0x200040
 510 457 503 459 497 463 c 1
 491 459 483 457 475 457 c 0x200002
 451 457 432 476 432 500 c 0x200008
 432 524 451 543 475 543 c 0x100002
 483 543 491 541 497 537 c 1
 503 541 510 543 518 543 c 0x100040
 542 543 561 524 561 500 c 0x100008
390 500 m 0x1002
 390 476 371 457 347 457 c 0
 339 457 331 459 325 463 c 1
 319 459 312 457 304 457 c 0
 280 457 261 476 261 500 c 0
 261 524 280 543 304 543 c 0
 312 543 319 541 325 537 c 1
 331 541 339 543 347 543 c 0
 371 543 390 524 390 500 c 0x1002
218 500 m 0x1020
 218 476 199 457 175 457 c 0x21
 167 457 160 459 154 463 c 1
 148 459 140 457 132 457 c 0x2004
 108 457 90 476 90 500 c 0x2020
 90 524 108 543 132 543 c 0x1004
 140 543 148 541 154 537 c 1
 160 541 167 543 175 543 c 0x11
 199 543 218 524 218 500 c 0x1020
575 586 m 0x080004
 575 562 556 543 532 543 c 0
 524 543 517 545 511 549 c 1
 505 545 498 543 490 543 c 0x100004
 466 543 447 562 447 586 c 0
 447 610 466 629 490 629 c 0
 498 629 505 627 511 623 c 1
 517 627 524 629 532 629 c 0
 556 629 575 610 575 586 c 0x080004
404 586 m 0x0801
 404 562 385 543 361 543 c 0
 353 543 346 545 340 549 c 1
 334 545 326 543 318 543 c 0x1001
 294 543 275 562 275 586 c 0
 275 610 294 629 318 629 c 0
 326 629 334 627 340 623 c 1
 346 627 353 629 361 629 c 0
 385 629 404 610 404 586 c 0x0801
233 586 m 0x0810
 233 562 214 543 190 543 c 0x1080
 182 543 174 545 168 549 c 1
 162 545 155 543 147 543 c 0
 123 543 104 562 104 586 c 0x1010
 104 610 123 629 147 629 c 0
 155 629 162 627 168 623 c 1
 174 627 182 629 190 629 c 0x0880
 214 629 233 610 233 586 c 0x0810
590 671 m 0x040080
 590 647 571 629 547 629 c 0
 539 629 531 630 525 634 c 1
 519 630 512 629 504 629 c 0
 496 629 488 630 482 634 c 1
 476 630 469 629 461 629 c 0x080010
 453 629 446 630 440 634 c 1
 434 630 426 629 418 629 c 0x040010
 394 629 375 647 375 671 c 0x040080
 375 695 394 714 418 714 c 0
 426 714 434 713 440 709 c 1
 446 713 453 714 461 714 c 0
 469 714 476 713 482 709 c 1
 488 713 496 714 504 714 c 0
 512 714 519 713 525 709 c 1
 531 713 539 714 547 714 c 0x040010
 571 714 590 695 590 671 c 0x040080
333 671 m 0x0408
 333 647 314 629 290 629 c 0x0808
 282 629 274 630 268 634 c 1
 262 630 255 629 247 629 c 0x0408
 239 629 231 630 225 634 c 1
 219 630 212 629 204 629 c 0x0840
 196 629 188 630 182 634 c 1
 176 630 169 629 161 629 c 0
 137 629 118 647 118 671 c 0x0808
 118 695 137 714 161 714 c 0
 169 714 176 713 182 709 c 1
 188 713 196 714 204 714 c 0x0440
 212 714 219 713 225 709 c 1
 231 713 239 714 247 714 c 0
 255 714 262 713 268 709 c 1
 274 713 282 714 290 714 c 0
 314 714 333 695 333 671 c 0x0408
604 757 m 0x020002
 604 733 585 714 561 714 c 0x040008
 553 714 546 716 540 720 c 1
 534 716 526 714 518 714 c 0x040040
 494 714 475 733 475 757 c 0x040002
 475 781 494 800 518 800 c 0x020040
 526 800 534 798 540 794 c 1
 546 798 553 800 561 800 c 0x020008
 585 800 604 781 604 757 c 0x020002
261 757 m 0x0204
 261 733 242 714 218 714 c 0x0420
 210 714 203 716 197 720 c 1
 191 716 183 714 175 714 c 0x05
 151 714 132 733 132 757 c 0x0404
 132 781 151 800 175 800 c 0x03
 183 800 191 798 197 794 c 1
 203 798 210 800 218 800 c 0x0220
 242 800 261 781 261 757 c 0x0204
EndSplineSet
EndChar

StartChar: L
Encoding: 76 76 49
Width: 522
VWidth: 0
UnlinkRmOvrlpSave: 1
Flags: W
HStem: 200 86<52.6424 110.718 111.282 153.717 154.282 196.717 197.282 239.717 240.282 281.718 282.283 324.718 325.283 367.718 368.283 410.718 411.282 453.717 454.282 512.358> 286 85<66.6424 124.718 125.283 184.358> 371 86<80.6424 139.717 140.282 198.358> 457 86<95.39 153.717 154.282 212.358> 543 86<109.642 167.718 168.283 227.358> 629 85<123.642 181.718 182.283 241.358> 714 86<137.642 196.717 197.282 255.358>
VStem: 61 129<291.642 365.61> 75 129<377.167 450.833> 90 128<463.167 536.833> 104 129<549.167 622.833> 118 129<634.39 708.358> 132 129<720.167 793.833>
LayerCount: 2
Back
Fore
SplineSet
518 243 m 0x8008
 518 219 499 200 475 200 c 0
 467 200 460 202 454 206 c 1
 448 202 440 200 432 200 c 0
 424 200 417 202 411 206 c 1
 405 202 398 200 390 200 c 0
 382 200 374 202 368 206 c 1
 362 202 355 200 347 200 c 0
 339 200 331 202 325 206 c 1
 319 202 312 200 304 200 c 0
 296 200 288 202 282 206 c 1
 276 202 269 200 261 200 c 0x8008
 253 200 246 202 240 206 c 1
 234 202 226 200 218 200 c 0x8040
 210 200 203 202 197 206 c 1
 191 202 183 200 175 200 c 0
 167 200 160 202 154 206 c 1
 148 202 140 200 132 200 c 0x8008
 124 200 117 202 111 206 c 1
 105 202 98 200 90 200 c 0
 66 200 47 219 47 243 c 0
 47 267 66 286 90 286 c 0x8040
 98 286 105 284 111 280 c 1
 117 284 124 286 132 286 c 0x8008
 140 286 148 284 154 280 c 1
 160 284 167 286 175 286 c 0
 183 286 191 284 197 280 c 1
 203 284 210 286 218 286 c 0x8040
 226 286 234 284 240 280 c 1
 246 284 253 286 261 286 c 0
 269 286 276 284 282 280 c 1
 288 284 296 286 304 286 c 0
 312 286 319 284 325 280 c 1
 331 284 339 286 347 286 c 0
 355 286 362 284 368 280 c 1
 374 284 382 286 390 286 c 0
 398 286 405 284 411 280 c 1
 417 284 424 286 432 286 c 0
 440 286 448 284 454 280 c 1
 460 284 467 286 475 286 c 0
 499 286 518 267 518 243 c 0x8008
190 329 m 0x41
 190 305 171 286 147 286 c 0
 139 286 131 287 125 291 c 1
 119 287 112 286 104 286 c 0x8020
 80 286 61 305 61 329 c 0x81
 61 353 80 371 104 371 c 0x4020
 112 371 119 370 125 366 c 1
 131 370 139 371 147 371 c 0
 171 371 190 353 190 329 c 0x41
204 414 m 0x2080
 204 390 185 371 161 371 c 0
 153 371 146 373 140 377 c 1
 134 373 126 371 118 371 c 0x4010
 94 371 75 390 75 414 c 0x4080
 75 438 94 457 118 457 c 0x2010
 126 457 134 455 140 451 c 1
 146 455 153 457 161 457 c 0
 185 457 204 438 204 414 c 0x2080
218 500 m 0x1040
 218 476 199 457 175 457 c 0
 167 457 160 459 154 463 c 1
 148 459 140 457 132 457 c 0x2008
 108 457 90 476 90 500 c 0x2040
 90 524 108 543 132 543 c 0x1008
 140 543 148 541 154 537 c 1
 160 541 167 543 175 543 c 0
 199 543 218 524 218 500 c 0x1040
233 586 m 0x0820
 233 562 214 543 190 543 c 0x11
 182 543 174 545 168 549 c 1
 162 545 155 543 147 543 c 0
 123 543 104 562 104 586 c 0x1020
 104 610 123 629 147 629 c 0
 155 629 162 627 168 623 c 1
 174 627 182 629 190 629 c 0x09
 214 629 233 610 233 586 c 0x0820
247 671 m 0x0410
 247 647 228 629 204 629 c 0x0880
 196 629 188 630 182 634 c 1
 176 630 169 629 161 629 c 0
 137 629 118 647 118 671 c 0x0810
 118 695 137 714 161 714 c 0
 169 714 176 713 182 709 c 1
 188 713 196 714 204 714 c 0x0480
 228 714 247 695 247 671 c 0x0410
261 757 m 0x0208
 261 733 242 714 218 714 c 0x0440
 210 714 203 716 197 720 c 1
 191 716 183 714 175 714 c 0
 151 714 132 733 132 757 c 0x0408
 132 781 151 800 175 800 c 0
 183 800 191 798 197 794 c 1
 203 798 210 800 218 800 c 0x0240
 242 800 261 781 261 757 c 0x0208
EndSplineSet
EndChar

StartChar: O
Encoding: 79 79 50
Width: 522
VWidth: 0
UnlinkRmOvrlpSave: 1
Flags: W
HStem: 200 86<52.6424 110.718 111.282 153.717 154.282 196.717 197.282 239.717 240.282 281.718 282.283 324.718 325.283 367.718 368.283 410.718 411.282 453.717 454.282 512.358> 286 85<66.6424 124.718 125.283 184.358 409.642 467.718 468.283 527.358> 371 86<80.6424 139.717 140.282 198.358 423.642 481.718 482.283 541.358> 457 86<95.39 153.717 154.282 212.358 437.642 496.717 497.282 555.358> 543 86<109.642 167.718 168.283 227.358 452.642 510.718 511.282 569.358> 629 85<123.642 181.718 182.283 241.358 466.642 524.718 525.283 584.358> 714 86<137.642 196.717 197.282 239.717 240.282 281.718 282.283 324.718 325.283 367.718 368.283 410.718 411.282 453.717 454.282 496.717 497.282 539.717 540.282 598.358>
VStem: 61 129<291.642 365.61> 75 129<377.167 450.833> 90 128<463.167 536.833> 104 129<549.167 622.833> 118 129<634.39 708.358> 404 129<291.642 365.61> 418 129<377.167 450.833> 432 129<463.167 536.833> 447 128<549.167 622.833> 461 129<634.39 708.358>
LayerCount: 2
Back
Fore
SplineSet
518 243 m 0x8042
 518 219 499 200 475 200 c 0
 467 200 460 202 454 206 c 1
 448 202 440 200 432 200 c 0
 424 200 417 202 411 206 c 1
 405 202 398 200 390 200 c 0
 382 200 374 202 368 206 c 1
 362 202 355 200 347 200 c 0
 339 200 331 202 325 206 c 1
 319 202 312 200 304 200 c 0
 296 200 288 202 282 206 c 1
 276 202 269 200 261 200 c 0
 253 200 246 202 240 206 c 1
 234 202 226 200 218 200 c 0
 210 200 203 202 197 206 c 1
 191 202 183 200 175 200 c 0
 167 200 160 202 154 206 c 1
 148 202 140 200 132 200 c 0
 124 200 117 202 111 206 c 1
 105 202 98 200 90 200 c 0
 66 200 47 219 47 243 c 0
 47 267 66 286 90 286 c 0
 98 286 105 284 111 280 c 1
 117 284 124 286 132 286 c 0
 140 286 148 284 154 280 c 1
 160 284 167 286 175 286 c 0
 183 286 191 284 197 280 c 1
 203 284 210 286 218 286 c 0
 226 286 234 284 240 280 c 1
 246 284 253 286 261 286 c 0
 269 286 276 284 282 280 c 1
 288 284 296 286 304 286 c 0
 312 286 319 284 325 280 c 1
 331 284 339 286 347 286 c 0
 355 286 362 284 368 280 c 1
 374 284 382 286 390 286 c 0
 398 286 405 284 411 280 c 1
 417 284 424 286 432 286 c 0
 440 286 448 284 454 280 c 1
 460 284 467 286 475 286 c 0
 499 286 518 267 518 243 c 0x8042
533 329 m 0x4008
 533 305 514 286 490 286 c 0
 482 286 474 287 468 291 c 1
 462 287 455 286 447 286 c 0x8001
 423 286 404 305 404 329 c 0x8008
 404 353 423 371 447 371 c 0x4001
 455 371 462 370 468 366 c 1
 474 370 482 371 490 371 c 0
 514 371 533 353 533 329 c 0x4008
190 329 m 0x41
 190 305 171 286 147 286 c 0
 139 286 131 287 125 291 c 1
 119 287 112 286 104 286 c 0x8020
 80 286 61 305 61 329 c 0x81
 61 353 80 371 104 371 c 0x4020
 112 371 119 370 125 366 c 1
 131 370 139 371 147 371 c 0
 171 371 190 353 190 329 c 0x41
547 414 m 0x2004
 547 390 528 371 504 371 c 0
 496 371 488 373 482 377 c 1
 476 373 469 371 461 371 c 0x400080
 437 371 418 390 418 414 c 0x4004
 418 438 437 457 461 457 c 0x200080
 469 457 476 455 482 451 c 1
 488 455 496 457 504 457 c 0
 528 457 547 438 547 414 c 0x2004
204 414 m 0x2080
 204 390 185 371 161 371 c 0
 153 371 146 373 140 377 c 1
 134 373 126 371 118 371 c 0x4010
 94 371 75 390 75 414 c 0x4080
 75 438 94 457 118 457 c 0x2010
 126 457 134 455 140 451 c 1
 146 455 153 457 161 457 c 0
 185 457 204 438 204 414 c 0x2080
561 500 m 0x1002
 561 476 542 457 518 457 c 0
 510 457 503 459 497 463 c 1
 491 459 483 457 475 457 c 0x2002
 451 457 432 476 432 500 c 0
 432 524 451 543 475 543 c 0
 483 543 491 541 497 537 c 1
 503 541 510 543 518 543 c 0
 542 543 561 524 561 500 c 0x1002
218 500 m 0x1040
 218 476 199 457 175 457 c 0
 167 457 160 459 154 463 c 1
 148 459 140 457 132 457 c 0x2040
 108 457 90 476 90 500 c 0
 90 524 108 543 132 543 c 0
 140 543 148 541 154 537 c 1
 160 541 167 543 175 543 c 0
 199 543 218 524 218 500 c 0x1040
575 586 m 0x0801
 575 562 556 543 532 543 c 0
 524 543 517 545 511 549 c 1
 505 545 498 543 490 543 c 0x1001
 466 543 447 562 447 586 c 0
 447 610 466 629 490 629 c 0
 498 629 505 627 511 623 c 1
 517 627 524 629 532 629 c 0
 556 629 575 610 575 586 c 0x0801
233 586 m 0x0820
 233 562 214 543 190 543 c 0x11
 182 543 174 545 168 549 c 1
 162 545 155 543 147 543 c 0
 123 543 104 562 104 586 c 0x1020
 104 610 123 629 147 629 c 0
 155 629 162 627 168 623 c 1
 174 627 182 629 190 629 c 0x09
 214 629 233 610 233 586 c 0x0820
590 671 m 0x040080
 590 647 571 629 547 629 c 0x0804
 539 629 531 630 525 634 c 1
 519 630 512 629 504 629 c 0
 480 629 461 647 461 671 c 0x080080
 461 695 480 714 504 714 c 0
 512 714 519 713 525 709 c 1
 531 713 539 714 547 714 c 0x0404
 571 714 590 695 590 671 c 0x040080
247 671 m 0x0410
 247 647 228 629 204 629 c 0x0880
 196 629 188 630 182 634 c 1
 176 630 169 629 161 629 c 0
 137 629 118 647 118 671 c 0x0810
 118 695 137 714 161 714 c 0
 169 714 176 713 182 709 c 1
 188 713 196 714 204 714 c 0x0480
 228 714 247 695 247 671 c 0x0410
604 757 m 0
 604 733 585 714 561 714 c 0
 553 714 546 716 540 720 c 1
 534 716 526 714 518 714 c 0
 510 714 503 716 497 720 c 1
 491 716 483 714 475 714 c 0x0442
 467 714 460 716 454 720 c 1
 448 716 440 714 432 714 c 0
 424 714 417 716 411 720 c 1
 405 716 398 714 390 714 c 0
 382 714 374 716 368 720 c 1
 362 716 355 714 347 714 c 0
 339 714 331 716 325 720 c 1
 319 716 312 714 304 714 c 0
 296 714 288 716 282 720 c 1
 276 716 269 714 261 714 c 0x0242
 253 714 246 716 240 720 c 1
 234 716 226 714 218 714 c 0
 210 714 203 716 197 720 c 1
 191 716 183 714 175 714 c 0x0442
 151 714 132 733 132 757 c 0
 132 781 151 800 175 800 c 0
 183 800 191 798 197 794 c 1
 203 798 210 800 218 800 c 0
 226 800 234 798 240 794 c 1
 246 798 253 800 261 800 c 0
 269 800 276 798 282 794 c 1
 288 798 296 800 304 800 c 0
 312 800 319 798 325 794 c 1
 331 798 339 800 347 800 c 0
 355 800 362 798 368 794 c 1
 374 798 382 800 390 800 c 0
 398 800 405 798 411 794 c 1
 417 798 424 800 432 800 c 0
 440 800 448 798 454 794 c 1
 460 798 467 800 475 800 c 0
 483 800 491 798 497 794 c 1
 503 798 510 800 518 800 c 0
 526 800 534 798 540 794 c 1
 546 798 553 800 561 800 c 0x0242
 585 800 604 781 604 757 c 0
EndSplineSet
EndChar

StartChar: N
Encoding: 78 78 51
Width: 522
VWidth: 0
UnlinkRmOvrlpSave: 1
Flags: W
HStem: 200 86<52.6424 110.718 111.282 169.358 395.39 453.717 454.282 512.358> 286 85<66.6424 124.718 125.283 184.358 409.642 467.718 468.283 527.358> 371 86<80.6424 139.717 140.282 198.358 423.642 481.718 482.283 541.358> 457 86<95.39 153.717 154.282 212.358 352.642 410.718 411.282 453.717 454.282 496.717 497.282 555.358> 543 86<109.642 167.718 168.283 227.358 280.642 339.717 340.282 398.358 452.642 510.718 511.282 569.358> 629 85<123.642 181.718 182.283 224.718 225.283 267.718 268.283 327.358 466.642 524.718 525.283 584.358> 714 86<137.642 196.717 197.282 255.358 480.642 539.717 540.282 598.358>
VStem: 47 128<206.167 279.833> 61 129<291.642 365.61> 75 129<377.167 450.833> 90 128<463.167 536.833> 104 129<549.167 622.833> 118 215<634.39 708.358> 132 129<720.167 793.833> 275 129<549.167 622.833> 347 214<463.167 536.833> 390 128<206.167 279.833> 404 129<291.642 365.61> 418 129<377.167 450.833> 447 128<549.167 622.833> 461 129<634.39 708.358> 475 129<720.167 793.833>
LayerCount: 2
Back
Fore
SplineSet
518 243 m 0x800080
 518 219 499 200 475 200 c 0x800004
 467 200 460 202 454 206 c 1
 448 202 440 200 432 200 c 0
 408 200 390 219 390 243 c 0x800080
 390 267 408 286 432 286 c 0
 440 286 448 284 454 280 c 1
 460 284 467 286 475 286 c 0x800004
 499 286 518 267 518 243 c 0x800080
175 243 m 0x81
 175 219 156 200 132 200 c 0x8004
 124 200 117 202 111 206 c 1
 105 202 98 200 90 200 c 0x8020
 66 200 47 219 47 243 c 0x81
 47 267 66 286 90 286 c 0x8020
 98 286 105 284 111 280 c 1
 117 284 124 286 132 286 c 0x8004
 156 286 175 267 175 243 c 0x81
533 329 m 0x400040
 533 305 514 286 490 286 c 0
 482 286 474 287 468 291 c 1
 462 287 455 286 447 286 c 0x800010
 423 286 404 305 404 329 c 0x800040
 404 353 423 371 447 371 c 0x400010
 455 371 462 370 468 366 c 1
 474 370 482 371 490 371 c 0
 514 371 533 353 533 329 c 0x400040
190 329 m 0x4080
 190 305 171 286 147 286 c 0
 139 286 131 287 125 291 c 1
 119 287 112 286 104 286 c 0x8010
 80 286 61 305 61 329 c 0x8080
 61 353 80 371 104 371 c 0x4010
 112 371 119 370 125 366 c 1
 131 370 139 371 147 371 c 0
 171 371 190 353 190 329 c 0x4080
547 414 m 0x200020
 547 390 528 371 504 371 c 0
 496 371 488 373 482 377 c 1
 476 373 469 371 461 371 c 0x400008
 437 371 418 390 418 414 c 0x400020
 418 438 437 457 461 457 c 0x200008
 469 457 476 455 482 451 c 1
 488 455 496 457 504 457 c 0
 528 457 547 438 547 414 c 0x200020
204 414 m 0x2040
 204 390 185 371 161 371 c 0
 153 371 146 373 140 377 c 1
 134 373 126 371 118 371 c 0x4008
 94 371 75 390 75 414 c 0x4040
 75 438 94 457 118 457 c 0x2008
 126 457 134 455 140 451 c 1
 146 455 153 457 161 457 c 0
 185 457 204 438 204 414 c 0x2040
561 500 m 0x1001
 561 476 542 457 518 457 c 0x200080
 510 457 503 459 497 463 c 1
 491 459 483 457 475 457 c 0
 467 457 460 459 454 463 c 1
 448 459 440 457 432 457 c 0x200004
 424 457 417 459 411 463 c 1
 405 459 398 457 390 457 c 0x100080
 366 457 347 476 347 500 c 0x1001
 347 524 366 543 390 543 c 0x100080
 398 543 405 541 411 537 c 1
 417 541 424 543 432 543 c 0
 440 543 448 541 454 537 c 1
 460 541 467 543 475 543 c 0x100004
 483 543 491 541 497 537 c 1
 503 541 510 543 518 543 c 0x100080
 542 543 561 524 561 500 c 0x1001
218 500 m 0x1020
 218 476 199 457 175 457 c 0x21
 167 457 160 459 154 463 c 1
 148 459 140 457 132 457 c 0x2004
 108 457 90 476 90 500 c 0x2020
 90 524 108 543 132 543 c 0x1004
 140 543 148 541 154 537 c 1
 160 541 167 543 175 543 c 0x11
 199 543 218 524 218 500 c 0x1020
575 586 m 0x080010
 575 562 556 543 532 543 c 0
 524 543 517 545 511 549 c 1
 505 545 498 543 490 543 c 0x100010
 466 543 447 562 447 586 c 0
 447 610 466 629 490 629 c 0
 498 629 505 627 511 623 c 1
 517 627 524 629 532 629 c 0
 556 629 575 610 575 586 c 0x080010
404 586 m 0x0802
 404 562 385 543 361 543 c 0x1002
 353 543 346 545 340 549 c 1
 334 545 326 543 318 543 c 0
 294 543 275 562 275 586 c 0
 275 610 294 629 318 629 c 0
 326 629 334 627 340 623 c 1
 346 627 353 629 361 629 c 0
 385 629 404 610 404 586 c 0x0802
233 586 m 0x0810
 233 562 214 543 190 543 c 0x1080
 182 543 174 545 168 549 c 1
 162 545 155 543 147 543 c 0
 123 543 104 562 104 586 c 0x1010
 104 610 123 629 147 629 c 0
 155 629 162 627 168 623 c 1
 174 627 182 629 190 629 c 0x0880
 214 629 233 610 233 586 c 0x0810
590 671 m 0x040008
 590 647 571 629 547 629 c 0x080020
 539 629 531 630 525 634 c 1
 519 630 512 629 504 629 c 0
 480 629 461 647 461 671 c 0x080008
 461 695 480 714 504 714 c 0
 512 714 519 713 525 709 c 1
 531 713 539 714 547 714 c 0x040020
 571 714 590 695 590 671 c 0x040008
333 671 m 0x0408
 333 647 314 629 290 629 c 0x0808
 282 629 274 630 268 634 c 1
 262 630 255 629 247 629 c 0x0408
 239 629 231 630 225 634 c 1
 219 630 212 629 204 629 c 0x0840
 196 629 188 630 182 634 c 1
 176 630 169 629 161 629 c 0
 137 629 118 647 118 671 c 0x0808
 118 695 137 714 161 714 c 0
 169 714 176 713 182 709 c 1
 188 713 196 714 204 714 c 0x0440
 212 714 219 713 225 709 c 1
 231 713 239 714 247 714 c 0
 255 714 262 713 268 709 c 1
 274 713 282 714 290 714 c 0
 314 714 333 695 333 671 c 0x0408
604 757 m 0x020004
 604 733 585 714 561 714 c 0x0401
 553 714 546 716 540 720 c 1
 534 716 526 714 518 714 c 0x040080
 494 714 475 733 475 757 c 0x040004
 475 781 494 800 518 800 c 0x020080
 526 800 534 798 540 794 c 1
 546 798 553 800 561 800 c 0x0201
 585 800 604 781 604 757 c 0x020004
261 757 m 0x0204
 261 733 242 714 218 714 c 0x0420
 210 714 203 716 197 720 c 1
 191 716 183 714 175 714 c 0x05
 151 714 132 733 132 757 c 0x0404
 132 781 151 800 175 800 c 0x03
 183 800 191 798 197 794 c 1
 203 798 210 800 218 800 c 0x0220
 242 800 261 781 261 757 c 0x0204
EndSplineSet
EndChar

